M48
; DRILL file {KiCad (5.1.0)-1} date 02/10/2019 21:09:00
; FORMAT={-:-/ absolute / metric / decimal}
; #@! TF.CreationDate,2019-10-02T21:09:00+02:00
; #@! TF.GenerationSoftware,Kicad,Pcbnew,(5.1.0)-1
; #@! TF.FileFunction,Plated,1,2,PTH
FMAT,2
METRIC
T1C0.400
T2C0.500
T3C0.600
T4C0.800
T5C0.900
T6C1.000
T7C1.016
T8C1.200
T9C1.300
%
G90
G05
T1
X52.0Y-123.0
X52.0Y-128.5
X57.0Y-68.0
X57.0Y-77.0
X57.0Y-83.0
X59.0Y-96.0
X59.0Y-116.0
X63.0Y-90.0
X65.0Y-77.0
X67.0Y-117.0
X67.0Y-127.0
X77.719Y-66.206
X78.65Y-94.0
X79.5Y-97.5
X81.35Y-94.0
X82.255Y-97.245
X100.5Y-120.5
X102.05Y-120.5
X123.5Y-127.7
X125.25Y-127.6
X132.25Y-52.75
X132.25Y-80.25
X132.25Y-82.75
X132.5Y-135.75
X132.5Y-148.5
X143.75Y-94.75
X145.106Y-95.856
X148.25Y-148.5
X148.5Y-51.75
X148.75Y-135.75
X148.925Y-112.5
X149.375Y-105.0
T2
X57.687Y-90.937
X59.103Y-91.853
X72.0Y-108.0
X75.5Y-92.5
X87.0Y-60.25
X87.8Y-106.0
X92.0Y-111.0
X94.075Y-111.0
X95.0Y-83.0
X124.425Y-115.25
X125.0Y-107.25
X132.25Y-57.75
X132.25Y-72.5
X134.25Y-51.75
X134.75Y-107.5
X138.0Y-102.25
X138.5Y-80.25
X139.5Y-106.75
X141.0Y-80.25
X141.25Y-114.5
X142.83Y-103.42
X144.25Y-80.25
X146.25Y-80.25
X146.75Y-121.0
X147.75Y-102.25
X148.5Y-106.75
T4
X65.75Y-68.25
X65.75Y-70.75
T5
X114.21Y-102.0
X116.75Y-102.0
X114.21Y-145.75
X116.75Y-145.75
T7
X134.21Y-87.59
X134.21Y-90.13
X134.21Y-92.67
X134.21Y-95.21
X134.21Y-97.75
X136.75Y-87.59
X136.75Y-90.13
X136.75Y-92.67
X136.75Y-95.21
X136.75Y-97.75
X55.09Y-144.0
X55.09Y-146.54
X57.63Y-144.0
X57.63Y-146.54
X60.17Y-144.0
X60.17Y-146.54
X62.71Y-144.0
X62.71Y-146.54
X65.25Y-144.0
X65.25Y-146.54
X118.75Y-55.34
X118.75Y-57.88
X118.75Y-60.42
X118.75Y-62.96
X118.75Y-65.5
X121.29Y-55.34
X121.29Y-57.88
X121.29Y-60.42
X121.29Y-62.96
X121.29Y-65.5
X99.0Y-55.34
X99.0Y-57.88
X99.0Y-60.42
X99.0Y-62.96
X99.0Y-65.5
X101.54Y-55.34
X101.54Y-57.88
X101.54Y-60.42
X101.54Y-62.96
X101.54Y-65.5
X74.84Y-53.46
X74.84Y-56.0
X77.38Y-53.46
X77.38Y-56.0
X79.92Y-53.46
X79.92Y-56.0
X82.46Y-53.46
X82.46Y-56.0
X85.0Y-53.46
X85.0Y-56.0
T8
X51.44Y-120.46
X51.44Y-125.54
X55.25Y-120.5
X55.25Y-125.5
X59.06Y-120.714
X59.06Y-125.286
X51.44Y-65.21
X51.44Y-70.29
X55.25Y-65.25
X55.25Y-70.25
X59.06Y-65.464
X59.06Y-70.036
T9
X52.1Y-134.15
X56.0Y-138.75
X58.9Y-131.65
X60.1Y-128.95
X63.3Y-138.25
X136.95Y-139.0
X140.15Y-148.3
X141.35Y-145.6
X144.25Y-138.5
X148.15Y-143.1
X146.25Y-67.25
X146.25Y-72.25
X146.25Y-77.25
X136.95Y-125.25
X140.15Y-134.55
X141.35Y-131.85
X144.25Y-124.75
X148.15Y-129.35
X52.1Y-56.65
X56.0Y-61.25
X58.9Y-54.15
X60.1Y-51.45
X63.3Y-60.75
X54.0Y-76.25
X54.0Y-81.25
X54.0Y-86.25
X59.0Y-76.25
X59.0Y-81.25
X59.0Y-86.25
X52.1Y-105.4
X56.0Y-110.0
X58.9Y-102.9
X60.1Y-100.2
X63.3Y-109.5
X136.95Y-52.5
X140.15Y-61.8
X141.35Y-59.1
X144.25Y-52.0
X148.15Y-56.6
T2
G00X95.08Y-126.3
M15
G01X95.08Y-124.7
M16
G05
G00X75.08Y-72.8
M15
G01X75.08Y-71.2
M16
G05
G00X119.2Y-76.58
M15
G01X120.8Y-76.58
M16
G05
G00X84.92Y-117.2
M15
G01X84.92Y-118.8
M16
G05
G00X119.2Y-90.58
M15
G01X120.8Y-90.58
M16
G05
G00X95.08Y-71.55
M15
G01X95.08Y-69.95
M16
G05
G00X95.055Y-81.05
M15
G01X95.055Y-79.45
M16
G05
G00X75.08Y-90.8
M15
G01X75.08Y-89.2
M16
G05
G00X95.08Y-114.8
M15
G01X95.08Y-113.2
M16
G05
G00X95.08Y-136.725
M15
G01X95.08Y-135.125
M16
G05
G00X75.08Y-81.8
M15
G01X75.08Y-80.2
M16
G05
G00X95.055Y-105.8
M15
G01X95.055Y-104.2
M16
G05
G00X75.08Y-127.8
M15
G01X75.08Y-126.2
M16
G05
G00X119.2Y-134.33
M15
G01X120.8Y-134.33
M16
G05
G00X75.08Y-145.8
M15
G01X75.08Y-144.2
M16
G05
G00X95.055Y-145.8
M15
G01X95.055Y-144.2
M16
G05
G00X75.08Y-99.8
M15
G01X75.08Y-98.2
M16
G05
G00X119.2Y-120.33
M15
G01X120.8Y-120.33
M16
G05
G00X75.08Y-136.8
M15
G01X75.08Y-135.2
M16
G05
G00X95.08Y-95.3
M15
G01X95.08Y-93.7
M16
G05
T3
G00X103.38Y-126.2
M15
G01X103.38Y-124.8
M16
G05
G00X106.48Y-125.9
M15
G01X106.48Y-125.1
M16
G05
G00X83.38Y-72.7
M15
G01X83.38Y-71.3
M16
G05
G00X86.48Y-72.4
M15
G01X86.48Y-71.6
M16
G05
G00X119.3Y-84.88
M15
G01X120.7Y-84.88
M16
G05
G00X119.6Y-87.98
M15
G01X120.4Y-87.98
M16
G05
G00X73.52Y-117.6
M15
G01X73.52Y-118.4
M16
G05
G00X76.62Y-117.3
M15
G01X76.62Y-118.7
M16
G05
G00X119.3Y-98.88
M15
G01X120.7Y-98.88
M16
G05
G00X119.6Y-101.98
M15
G01X120.4Y-101.98
M16
G05
G00X103.38Y-71.45
M15
G01X103.38Y-70.05
M16
G05
G00X106.48Y-71.15
M15
G01X106.48Y-70.35
M16
G05
G00X103.355Y-80.95
M15
G01X103.355Y-79.55
M16
G05
G00X106.455Y-80.65
M15
G01X106.455Y-79.85
M16
G05
G00X83.38Y-90.7
M15
G01X83.38Y-89.3
M16
G05
G00X86.48Y-90.4
M15
G01X86.48Y-89.6
M16
G05
G00X103.38Y-114.7
M15
G01X103.38Y-113.3
M16
G05
G00X106.48Y-114.4
M15
G01X106.48Y-113.6
M16
G05
G00X103.38Y-136.625
M15
G01X103.38Y-135.225
M16
G05
G00X106.48Y-136.325
M15
G01X106.48Y-135.525
M16
G05
G00X83.38Y-81.7
M15
G01X83.38Y-80.3
M16
G05
G00X86.48Y-81.4
M15
G01X86.48Y-80.6
M16
G05
G00X103.355Y-105.7
M15
G01X103.355Y-104.3
M16
G05
G00X106.455Y-105.4
M15
G01X106.455Y-104.6
M16
G05
G00X83.38Y-127.7
M15
G01X83.38Y-126.3
M16
G05
G00X86.48Y-127.4
M15
G01X86.48Y-126.6
M16
G05
G00X119.3Y-142.63
M15
G01X120.7Y-142.63
M16
G05
G00X119.6Y-145.73
M15
G01X120.4Y-145.73
M16
G05
G00X83.38Y-145.7
M15
G01X83.38Y-144.3
M16
G05
G00X86.48Y-145.4
M15
G01X86.48Y-144.6
M16
G05
G00X103.355Y-145.7
M15
G01X103.355Y-144.3
M16
G05
G00X106.455Y-145.4
M15
G01X106.455Y-144.6
M16
G05
G00X83.38Y-99.7
M15
G01X83.38Y-98.3
M16
G05
G00X86.48Y-99.4
M15
G01X86.48Y-98.6
M16
G05
G00X119.3Y-128.63
M15
G01X120.7Y-128.63
M16
G05
G00X119.6Y-131.73
M15
G01X120.4Y-131.73
M16
G05
G00X83.38Y-136.7
M15
G01X83.38Y-135.3
M16
G05
G00X86.48Y-136.4
M15
G01X86.48Y-135.6
M16
G05
G00X103.38Y-95.2
M15
G01X103.38Y-93.8
M16
G05
G00X106.48Y-94.9
M15
G01X106.48Y-94.1
M16
G05
T6
G00X75.3Y-109.65
M15
G01X75.3Y-108.35
M16
G05
G00X80.0Y-109.65
M15
G01X80.0Y-108.35
M16
G05
G00X84.7Y-109.65
M15
G01X84.7Y-108.35
M16
G05
G00X75.3Y-62.65
M15
G01X75.3Y-61.35
M16
G05
G00X80.0Y-62.65
M15
G01X80.0Y-61.35
M16
G05
G00X84.7Y-62.65
M15
G01X84.7Y-61.35
M16
G05
G00X64.85Y-74.0
M15
G01X66.15Y-74.0
M16
G05
G00X64.85Y-78.7
M15
G01X66.15Y-78.7
M16
G05
G00X64.85Y-83.4
M15
G01X66.15Y-83.4
M16
G05
T0
M30
