%TF.GenerationSoftware,KiCad,Pcbnew,(5.1.0)-1*%
%TF.CreationDate,2019-10-02T21:08:56+02:00*%
%TF.ProjectId,Kicad_LFO_1_2,4b696361-645f-44c4-964f-5f315f322e6b,Rev A*%
%TF.SameCoordinates,Original*%
%TF.FileFunction,Paste,Top*%
%TF.FilePolarity,Positive*%
%FSLAX46Y46*%
G04 Gerber Fmt 4.6, Leading zero omitted, Abs format (unit mm)*
G04 Created by KiCad (PCBNEW (5.1.0)-1) date 2019-10-02 21:08:56*
%MOMM*%
%LPD*%
G04 APERTURE LIST*
%ADD10C,1.000000*%
%ADD11C,0.050000*%
%ADD12C,0.150000*%
%ADD13C,1.425000*%
%ADD14C,1.150000*%
G04 APERTURE END LIST*
D10*
X111000000Y-60000000D02*
X111000000Y-140000000D01*
X110000000Y-140000000D02*
X111000000Y-140000000D01*
X110000000Y-60000000D02*
X111000000Y-60000000D01*
X110000000Y-140000000D02*
X110000000Y-60000000D01*
X129500000Y-140000000D02*
X130500000Y-140000000D01*
X130500000Y-60000000D02*
X130500000Y-140000000D01*
X129500000Y-60000000D02*
X130500000Y-60000000D01*
X129500000Y-140000000D02*
X129500000Y-60000000D01*
X90000000Y-60000000D02*
X90000000Y-140000000D01*
X89000000Y-60000000D02*
X90000000Y-60000000D01*
X89000000Y-140000000D02*
X90000000Y-140000000D01*
X89000000Y-140000000D02*
X89000000Y-60000000D01*
X69000000Y-60000000D02*
X70000000Y-60000000D01*
X69000000Y-140000000D02*
X69000000Y-60000000D01*
X69000000Y-140000000D02*
X70000000Y-140000000D01*
X70000000Y-60000000D02*
X70000000Y-140000000D01*
D11*
X150000000Y-50000000D02*
X50000000Y-50000000D01*
X150000000Y-150000000D02*
X150000000Y-50000000D01*
X50000000Y-150000000D02*
X150000000Y-150000000D01*
X50000000Y-50000000D02*
X50000000Y-150000000D01*
D12*
G36*
X77974504Y-57626204D02*
G01*
X77998773Y-57629804D01*
X78022571Y-57635765D01*
X78045671Y-57644030D01*
X78067849Y-57654520D01*
X78088893Y-57667133D01*
X78108598Y-57681747D01*
X78126777Y-57698223D01*
X78143253Y-57716402D01*
X78157867Y-57736107D01*
X78170480Y-57757151D01*
X78180970Y-57779329D01*
X78189235Y-57802429D01*
X78195196Y-57826227D01*
X78198796Y-57850496D01*
X78200000Y-57875000D01*
X78200000Y-59125000D01*
X78198796Y-59149504D01*
X78195196Y-59173773D01*
X78189235Y-59197571D01*
X78180970Y-59220671D01*
X78170480Y-59242849D01*
X78157867Y-59263893D01*
X78143253Y-59283598D01*
X78126777Y-59301777D01*
X78108598Y-59318253D01*
X78088893Y-59332867D01*
X78067849Y-59345480D01*
X78045671Y-59355970D01*
X78022571Y-59364235D01*
X77998773Y-59370196D01*
X77974504Y-59373796D01*
X77950000Y-59375000D01*
X77025000Y-59375000D01*
X77000496Y-59373796D01*
X76976227Y-59370196D01*
X76952429Y-59364235D01*
X76929329Y-59355970D01*
X76907151Y-59345480D01*
X76886107Y-59332867D01*
X76866402Y-59318253D01*
X76848223Y-59301777D01*
X76831747Y-59283598D01*
X76817133Y-59263893D01*
X76804520Y-59242849D01*
X76794030Y-59220671D01*
X76785765Y-59197571D01*
X76779804Y-59173773D01*
X76776204Y-59149504D01*
X76775000Y-59125000D01*
X76775000Y-57875000D01*
X76776204Y-57850496D01*
X76779804Y-57826227D01*
X76785765Y-57802429D01*
X76794030Y-57779329D01*
X76804520Y-57757151D01*
X76817133Y-57736107D01*
X76831747Y-57716402D01*
X76848223Y-57698223D01*
X76866402Y-57681747D01*
X76886107Y-57667133D01*
X76907151Y-57654520D01*
X76929329Y-57644030D01*
X76952429Y-57635765D01*
X76976227Y-57629804D01*
X77000496Y-57626204D01*
X77025000Y-57625000D01*
X77950000Y-57625000D01*
X77974504Y-57626204D01*
X77974504Y-57626204D01*
G37*
D13*
X77487500Y-58500000D03*
D12*
G36*
X74999504Y-57626204D02*
G01*
X75023773Y-57629804D01*
X75047571Y-57635765D01*
X75070671Y-57644030D01*
X75092849Y-57654520D01*
X75113893Y-57667133D01*
X75133598Y-57681747D01*
X75151777Y-57698223D01*
X75168253Y-57716402D01*
X75182867Y-57736107D01*
X75195480Y-57757151D01*
X75205970Y-57779329D01*
X75214235Y-57802429D01*
X75220196Y-57826227D01*
X75223796Y-57850496D01*
X75225000Y-57875000D01*
X75225000Y-59125000D01*
X75223796Y-59149504D01*
X75220196Y-59173773D01*
X75214235Y-59197571D01*
X75205970Y-59220671D01*
X75195480Y-59242849D01*
X75182867Y-59263893D01*
X75168253Y-59283598D01*
X75151777Y-59301777D01*
X75133598Y-59318253D01*
X75113893Y-59332867D01*
X75092849Y-59345480D01*
X75070671Y-59355970D01*
X75047571Y-59364235D01*
X75023773Y-59370196D01*
X74999504Y-59373796D01*
X74975000Y-59375000D01*
X74050000Y-59375000D01*
X74025496Y-59373796D01*
X74001227Y-59370196D01*
X73977429Y-59364235D01*
X73954329Y-59355970D01*
X73932151Y-59345480D01*
X73911107Y-59332867D01*
X73891402Y-59318253D01*
X73873223Y-59301777D01*
X73856747Y-59283598D01*
X73842133Y-59263893D01*
X73829520Y-59242849D01*
X73819030Y-59220671D01*
X73810765Y-59197571D01*
X73804804Y-59173773D01*
X73801204Y-59149504D01*
X73800000Y-59125000D01*
X73800000Y-57875000D01*
X73801204Y-57850496D01*
X73804804Y-57826227D01*
X73810765Y-57802429D01*
X73819030Y-57779329D01*
X73829520Y-57757151D01*
X73842133Y-57736107D01*
X73856747Y-57716402D01*
X73873223Y-57698223D01*
X73891402Y-57681747D01*
X73911107Y-57667133D01*
X73932151Y-57654520D01*
X73954329Y-57644030D01*
X73977429Y-57635765D01*
X74001227Y-57629804D01*
X74025496Y-57626204D01*
X74050000Y-57625000D01*
X74975000Y-57625000D01*
X74999504Y-57626204D01*
X74999504Y-57626204D01*
G37*
D13*
X74512500Y-58500000D03*
D12*
G36*
X82999504Y-57626204D02*
G01*
X83023773Y-57629804D01*
X83047571Y-57635765D01*
X83070671Y-57644030D01*
X83092849Y-57654520D01*
X83113893Y-57667133D01*
X83133598Y-57681747D01*
X83151777Y-57698223D01*
X83168253Y-57716402D01*
X83182867Y-57736107D01*
X83195480Y-57757151D01*
X83205970Y-57779329D01*
X83214235Y-57802429D01*
X83220196Y-57826227D01*
X83223796Y-57850496D01*
X83225000Y-57875000D01*
X83225000Y-59125000D01*
X83223796Y-59149504D01*
X83220196Y-59173773D01*
X83214235Y-59197571D01*
X83205970Y-59220671D01*
X83195480Y-59242849D01*
X83182867Y-59263893D01*
X83168253Y-59283598D01*
X83151777Y-59301777D01*
X83133598Y-59318253D01*
X83113893Y-59332867D01*
X83092849Y-59345480D01*
X83070671Y-59355970D01*
X83047571Y-59364235D01*
X83023773Y-59370196D01*
X82999504Y-59373796D01*
X82975000Y-59375000D01*
X82050000Y-59375000D01*
X82025496Y-59373796D01*
X82001227Y-59370196D01*
X81977429Y-59364235D01*
X81954329Y-59355970D01*
X81932151Y-59345480D01*
X81911107Y-59332867D01*
X81891402Y-59318253D01*
X81873223Y-59301777D01*
X81856747Y-59283598D01*
X81842133Y-59263893D01*
X81829520Y-59242849D01*
X81819030Y-59220671D01*
X81810765Y-59197571D01*
X81804804Y-59173773D01*
X81801204Y-59149504D01*
X81800000Y-59125000D01*
X81800000Y-57875000D01*
X81801204Y-57850496D01*
X81804804Y-57826227D01*
X81810765Y-57802429D01*
X81819030Y-57779329D01*
X81829520Y-57757151D01*
X81842133Y-57736107D01*
X81856747Y-57716402D01*
X81873223Y-57698223D01*
X81891402Y-57681747D01*
X81911107Y-57667133D01*
X81932151Y-57654520D01*
X81954329Y-57644030D01*
X81977429Y-57635765D01*
X82001227Y-57629804D01*
X82025496Y-57626204D01*
X82050000Y-57625000D01*
X82975000Y-57625000D01*
X82999504Y-57626204D01*
X82999504Y-57626204D01*
G37*
D13*
X82512500Y-58500000D03*
D12*
G36*
X85974504Y-57626204D02*
G01*
X85998773Y-57629804D01*
X86022571Y-57635765D01*
X86045671Y-57644030D01*
X86067849Y-57654520D01*
X86088893Y-57667133D01*
X86108598Y-57681747D01*
X86126777Y-57698223D01*
X86143253Y-57716402D01*
X86157867Y-57736107D01*
X86170480Y-57757151D01*
X86180970Y-57779329D01*
X86189235Y-57802429D01*
X86195196Y-57826227D01*
X86198796Y-57850496D01*
X86200000Y-57875000D01*
X86200000Y-59125000D01*
X86198796Y-59149504D01*
X86195196Y-59173773D01*
X86189235Y-59197571D01*
X86180970Y-59220671D01*
X86170480Y-59242849D01*
X86157867Y-59263893D01*
X86143253Y-59283598D01*
X86126777Y-59301777D01*
X86108598Y-59318253D01*
X86088893Y-59332867D01*
X86067849Y-59345480D01*
X86045671Y-59355970D01*
X86022571Y-59364235D01*
X85998773Y-59370196D01*
X85974504Y-59373796D01*
X85950000Y-59375000D01*
X85025000Y-59375000D01*
X85000496Y-59373796D01*
X84976227Y-59370196D01*
X84952429Y-59364235D01*
X84929329Y-59355970D01*
X84907151Y-59345480D01*
X84886107Y-59332867D01*
X84866402Y-59318253D01*
X84848223Y-59301777D01*
X84831747Y-59283598D01*
X84817133Y-59263893D01*
X84804520Y-59242849D01*
X84794030Y-59220671D01*
X84785765Y-59197571D01*
X84779804Y-59173773D01*
X84776204Y-59149504D01*
X84775000Y-59125000D01*
X84775000Y-57875000D01*
X84776204Y-57850496D01*
X84779804Y-57826227D01*
X84785765Y-57802429D01*
X84794030Y-57779329D01*
X84804520Y-57757151D01*
X84817133Y-57736107D01*
X84831747Y-57716402D01*
X84848223Y-57698223D01*
X84866402Y-57681747D01*
X84886107Y-57667133D01*
X84907151Y-57654520D01*
X84929329Y-57644030D01*
X84952429Y-57635765D01*
X84976227Y-57629804D01*
X85000496Y-57626204D01*
X85025000Y-57625000D01*
X85950000Y-57625000D01*
X85974504Y-57626204D01*
X85974504Y-57626204D01*
G37*
D13*
X85487500Y-58500000D03*
D12*
G36*
X66974505Y-137451204D02*
G01*
X66998773Y-137454804D01*
X67022572Y-137460765D01*
X67045671Y-137469030D01*
X67067850Y-137479520D01*
X67088893Y-137492132D01*
X67108599Y-137506747D01*
X67126777Y-137523223D01*
X67143253Y-137541401D01*
X67157868Y-137561107D01*
X67170480Y-137582150D01*
X67180970Y-137604329D01*
X67189235Y-137627428D01*
X67195196Y-137651227D01*
X67198796Y-137675495D01*
X67200000Y-137699999D01*
X67200000Y-138350001D01*
X67198796Y-138374505D01*
X67195196Y-138398773D01*
X67189235Y-138422572D01*
X67180970Y-138445671D01*
X67170480Y-138467850D01*
X67157868Y-138488893D01*
X67143253Y-138508599D01*
X67126777Y-138526777D01*
X67108599Y-138543253D01*
X67088893Y-138557868D01*
X67067850Y-138570480D01*
X67045671Y-138580970D01*
X67022572Y-138589235D01*
X66998773Y-138595196D01*
X66974505Y-138598796D01*
X66950001Y-138600000D01*
X66049999Y-138600000D01*
X66025495Y-138598796D01*
X66001227Y-138595196D01*
X65977428Y-138589235D01*
X65954329Y-138580970D01*
X65932150Y-138570480D01*
X65911107Y-138557868D01*
X65891401Y-138543253D01*
X65873223Y-138526777D01*
X65856747Y-138508599D01*
X65842132Y-138488893D01*
X65829520Y-138467850D01*
X65819030Y-138445671D01*
X65810765Y-138422572D01*
X65804804Y-138398773D01*
X65801204Y-138374505D01*
X65800000Y-138350001D01*
X65800000Y-137699999D01*
X65801204Y-137675495D01*
X65804804Y-137651227D01*
X65810765Y-137627428D01*
X65819030Y-137604329D01*
X65829520Y-137582150D01*
X65842132Y-137561107D01*
X65856747Y-137541401D01*
X65873223Y-137523223D01*
X65891401Y-137506747D01*
X65911107Y-137492132D01*
X65932150Y-137479520D01*
X65954329Y-137469030D01*
X65977428Y-137460765D01*
X66001227Y-137454804D01*
X66025495Y-137451204D01*
X66049999Y-137450000D01*
X66950001Y-137450000D01*
X66974505Y-137451204D01*
X66974505Y-137451204D01*
G37*
D14*
X66500000Y-138025000D03*
D12*
G36*
X66974505Y-135401204D02*
G01*
X66998773Y-135404804D01*
X67022572Y-135410765D01*
X67045671Y-135419030D01*
X67067850Y-135429520D01*
X67088893Y-135442132D01*
X67108599Y-135456747D01*
X67126777Y-135473223D01*
X67143253Y-135491401D01*
X67157868Y-135511107D01*
X67170480Y-135532150D01*
X67180970Y-135554329D01*
X67189235Y-135577428D01*
X67195196Y-135601227D01*
X67198796Y-135625495D01*
X67200000Y-135649999D01*
X67200000Y-136300001D01*
X67198796Y-136324505D01*
X67195196Y-136348773D01*
X67189235Y-136372572D01*
X67180970Y-136395671D01*
X67170480Y-136417850D01*
X67157868Y-136438893D01*
X67143253Y-136458599D01*
X67126777Y-136476777D01*
X67108599Y-136493253D01*
X67088893Y-136507868D01*
X67067850Y-136520480D01*
X67045671Y-136530970D01*
X67022572Y-136539235D01*
X66998773Y-136545196D01*
X66974505Y-136548796D01*
X66950001Y-136550000D01*
X66049999Y-136550000D01*
X66025495Y-136548796D01*
X66001227Y-136545196D01*
X65977428Y-136539235D01*
X65954329Y-136530970D01*
X65932150Y-136520480D01*
X65911107Y-136507868D01*
X65891401Y-136493253D01*
X65873223Y-136476777D01*
X65856747Y-136458599D01*
X65842132Y-136438893D01*
X65829520Y-136417850D01*
X65819030Y-136395671D01*
X65810765Y-136372572D01*
X65804804Y-136348773D01*
X65801204Y-136324505D01*
X65800000Y-136300001D01*
X65800000Y-135649999D01*
X65801204Y-135625495D01*
X65804804Y-135601227D01*
X65810765Y-135577428D01*
X65819030Y-135554329D01*
X65829520Y-135532150D01*
X65842132Y-135511107D01*
X65856747Y-135491401D01*
X65873223Y-135473223D01*
X65891401Y-135456747D01*
X65911107Y-135442132D01*
X65932150Y-135429520D01*
X65954329Y-135419030D01*
X65977428Y-135410765D01*
X66001227Y-135404804D01*
X66025495Y-135401204D01*
X66049999Y-135400000D01*
X66950001Y-135400000D01*
X66974505Y-135401204D01*
X66974505Y-135401204D01*
G37*
D14*
X66500000Y-135975000D03*
D12*
G36*
X82324505Y-50301204D02*
G01*
X82348773Y-50304804D01*
X82372572Y-50310765D01*
X82395671Y-50319030D01*
X82417850Y-50329520D01*
X82438893Y-50342132D01*
X82458599Y-50356747D01*
X82476777Y-50373223D01*
X82493253Y-50391401D01*
X82507868Y-50411107D01*
X82520480Y-50432150D01*
X82530970Y-50454329D01*
X82539235Y-50477428D01*
X82545196Y-50501227D01*
X82548796Y-50525495D01*
X82550000Y-50549999D01*
X82550000Y-51450001D01*
X82548796Y-51474505D01*
X82545196Y-51498773D01*
X82539235Y-51522572D01*
X82530970Y-51545671D01*
X82520480Y-51567850D01*
X82507868Y-51588893D01*
X82493253Y-51608599D01*
X82476777Y-51626777D01*
X82458599Y-51643253D01*
X82438893Y-51657868D01*
X82417850Y-51670480D01*
X82395671Y-51680970D01*
X82372572Y-51689235D01*
X82348773Y-51695196D01*
X82324505Y-51698796D01*
X82300001Y-51700000D01*
X81649999Y-51700000D01*
X81625495Y-51698796D01*
X81601227Y-51695196D01*
X81577428Y-51689235D01*
X81554329Y-51680970D01*
X81532150Y-51670480D01*
X81511107Y-51657868D01*
X81491401Y-51643253D01*
X81473223Y-51626777D01*
X81456747Y-51608599D01*
X81442132Y-51588893D01*
X81429520Y-51567850D01*
X81419030Y-51545671D01*
X81410765Y-51522572D01*
X81404804Y-51498773D01*
X81401204Y-51474505D01*
X81400000Y-51450001D01*
X81400000Y-50549999D01*
X81401204Y-50525495D01*
X81404804Y-50501227D01*
X81410765Y-50477428D01*
X81419030Y-50454329D01*
X81429520Y-50432150D01*
X81442132Y-50411107D01*
X81456747Y-50391401D01*
X81473223Y-50373223D01*
X81491401Y-50356747D01*
X81511107Y-50342132D01*
X81532150Y-50329520D01*
X81554329Y-50319030D01*
X81577428Y-50310765D01*
X81601227Y-50304804D01*
X81625495Y-50301204D01*
X81649999Y-50300000D01*
X82300001Y-50300000D01*
X82324505Y-50301204D01*
X82324505Y-50301204D01*
G37*
D14*
X81975000Y-51000000D03*
D12*
G36*
X84374505Y-50301204D02*
G01*
X84398773Y-50304804D01*
X84422572Y-50310765D01*
X84445671Y-50319030D01*
X84467850Y-50329520D01*
X84488893Y-50342132D01*
X84508599Y-50356747D01*
X84526777Y-50373223D01*
X84543253Y-50391401D01*
X84557868Y-50411107D01*
X84570480Y-50432150D01*
X84580970Y-50454329D01*
X84589235Y-50477428D01*
X84595196Y-50501227D01*
X84598796Y-50525495D01*
X84600000Y-50549999D01*
X84600000Y-51450001D01*
X84598796Y-51474505D01*
X84595196Y-51498773D01*
X84589235Y-51522572D01*
X84580970Y-51545671D01*
X84570480Y-51567850D01*
X84557868Y-51588893D01*
X84543253Y-51608599D01*
X84526777Y-51626777D01*
X84508599Y-51643253D01*
X84488893Y-51657868D01*
X84467850Y-51670480D01*
X84445671Y-51680970D01*
X84422572Y-51689235D01*
X84398773Y-51695196D01*
X84374505Y-51698796D01*
X84350001Y-51700000D01*
X83699999Y-51700000D01*
X83675495Y-51698796D01*
X83651227Y-51695196D01*
X83627428Y-51689235D01*
X83604329Y-51680970D01*
X83582150Y-51670480D01*
X83561107Y-51657868D01*
X83541401Y-51643253D01*
X83523223Y-51626777D01*
X83506747Y-51608599D01*
X83492132Y-51588893D01*
X83479520Y-51567850D01*
X83469030Y-51545671D01*
X83460765Y-51522572D01*
X83454804Y-51498773D01*
X83451204Y-51474505D01*
X83450000Y-51450001D01*
X83450000Y-50549999D01*
X83451204Y-50525495D01*
X83454804Y-50501227D01*
X83460765Y-50477428D01*
X83469030Y-50454329D01*
X83479520Y-50432150D01*
X83492132Y-50411107D01*
X83506747Y-50391401D01*
X83523223Y-50373223D01*
X83541401Y-50356747D01*
X83561107Y-50342132D01*
X83582150Y-50329520D01*
X83604329Y-50319030D01*
X83627428Y-50310765D01*
X83651227Y-50304804D01*
X83675495Y-50301204D01*
X83699999Y-50300000D01*
X84350001Y-50300000D01*
X84374505Y-50301204D01*
X84374505Y-50301204D01*
G37*
D14*
X84025000Y-51000000D03*
D12*
G36*
X66974505Y-128401204D02*
G01*
X66998773Y-128404804D01*
X67022572Y-128410765D01*
X67045671Y-128419030D01*
X67067850Y-128429520D01*
X67088893Y-128442132D01*
X67108599Y-128456747D01*
X67126777Y-128473223D01*
X67143253Y-128491401D01*
X67157868Y-128511107D01*
X67170480Y-128532150D01*
X67180970Y-128554329D01*
X67189235Y-128577428D01*
X67195196Y-128601227D01*
X67198796Y-128625495D01*
X67200000Y-128649999D01*
X67200000Y-129300001D01*
X67198796Y-129324505D01*
X67195196Y-129348773D01*
X67189235Y-129372572D01*
X67180970Y-129395671D01*
X67170480Y-129417850D01*
X67157868Y-129438893D01*
X67143253Y-129458599D01*
X67126777Y-129476777D01*
X67108599Y-129493253D01*
X67088893Y-129507868D01*
X67067850Y-129520480D01*
X67045671Y-129530970D01*
X67022572Y-129539235D01*
X66998773Y-129545196D01*
X66974505Y-129548796D01*
X66950001Y-129550000D01*
X66049999Y-129550000D01*
X66025495Y-129548796D01*
X66001227Y-129545196D01*
X65977428Y-129539235D01*
X65954329Y-129530970D01*
X65932150Y-129520480D01*
X65911107Y-129507868D01*
X65891401Y-129493253D01*
X65873223Y-129476777D01*
X65856747Y-129458599D01*
X65842132Y-129438893D01*
X65829520Y-129417850D01*
X65819030Y-129395671D01*
X65810765Y-129372572D01*
X65804804Y-129348773D01*
X65801204Y-129324505D01*
X65800000Y-129300001D01*
X65800000Y-128649999D01*
X65801204Y-128625495D01*
X65804804Y-128601227D01*
X65810765Y-128577428D01*
X65819030Y-128554329D01*
X65829520Y-128532150D01*
X65842132Y-128511107D01*
X65856747Y-128491401D01*
X65873223Y-128473223D01*
X65891401Y-128456747D01*
X65911107Y-128442132D01*
X65932150Y-128429520D01*
X65954329Y-128419030D01*
X65977428Y-128410765D01*
X66001227Y-128404804D01*
X66025495Y-128401204D01*
X66049999Y-128400000D01*
X66950001Y-128400000D01*
X66974505Y-128401204D01*
X66974505Y-128401204D01*
G37*
D14*
X66500000Y-128975000D03*
D12*
G36*
X66974505Y-130451204D02*
G01*
X66998773Y-130454804D01*
X67022572Y-130460765D01*
X67045671Y-130469030D01*
X67067850Y-130479520D01*
X67088893Y-130492132D01*
X67108599Y-130506747D01*
X67126777Y-130523223D01*
X67143253Y-130541401D01*
X67157868Y-130561107D01*
X67170480Y-130582150D01*
X67180970Y-130604329D01*
X67189235Y-130627428D01*
X67195196Y-130651227D01*
X67198796Y-130675495D01*
X67200000Y-130699999D01*
X67200000Y-131350001D01*
X67198796Y-131374505D01*
X67195196Y-131398773D01*
X67189235Y-131422572D01*
X67180970Y-131445671D01*
X67170480Y-131467850D01*
X67157868Y-131488893D01*
X67143253Y-131508599D01*
X67126777Y-131526777D01*
X67108599Y-131543253D01*
X67088893Y-131557868D01*
X67067850Y-131570480D01*
X67045671Y-131580970D01*
X67022572Y-131589235D01*
X66998773Y-131595196D01*
X66974505Y-131598796D01*
X66950001Y-131600000D01*
X66049999Y-131600000D01*
X66025495Y-131598796D01*
X66001227Y-131595196D01*
X65977428Y-131589235D01*
X65954329Y-131580970D01*
X65932150Y-131570480D01*
X65911107Y-131557868D01*
X65891401Y-131543253D01*
X65873223Y-131526777D01*
X65856747Y-131508599D01*
X65842132Y-131488893D01*
X65829520Y-131467850D01*
X65819030Y-131445671D01*
X65810765Y-131422572D01*
X65804804Y-131398773D01*
X65801204Y-131374505D01*
X65800000Y-131350001D01*
X65800000Y-130699999D01*
X65801204Y-130675495D01*
X65804804Y-130651227D01*
X65810765Y-130627428D01*
X65819030Y-130604329D01*
X65829520Y-130582150D01*
X65842132Y-130561107D01*
X65856747Y-130541401D01*
X65873223Y-130523223D01*
X65891401Y-130506747D01*
X65911107Y-130492132D01*
X65932150Y-130479520D01*
X65954329Y-130469030D01*
X65977428Y-130460765D01*
X66001227Y-130454804D01*
X66025495Y-130451204D01*
X66049999Y-130450000D01*
X66950001Y-130450000D01*
X66974505Y-130451204D01*
X66974505Y-130451204D01*
G37*
D14*
X66500000Y-131025000D03*
D12*
G36*
X80374505Y-50301204D02*
G01*
X80398773Y-50304804D01*
X80422572Y-50310765D01*
X80445671Y-50319030D01*
X80467850Y-50329520D01*
X80488893Y-50342132D01*
X80508599Y-50356747D01*
X80526777Y-50373223D01*
X80543253Y-50391401D01*
X80557868Y-50411107D01*
X80570480Y-50432150D01*
X80580970Y-50454329D01*
X80589235Y-50477428D01*
X80595196Y-50501227D01*
X80598796Y-50525495D01*
X80600000Y-50549999D01*
X80600000Y-51450001D01*
X80598796Y-51474505D01*
X80595196Y-51498773D01*
X80589235Y-51522572D01*
X80580970Y-51545671D01*
X80570480Y-51567850D01*
X80557868Y-51588893D01*
X80543253Y-51608599D01*
X80526777Y-51626777D01*
X80508599Y-51643253D01*
X80488893Y-51657868D01*
X80467850Y-51670480D01*
X80445671Y-51680970D01*
X80422572Y-51689235D01*
X80398773Y-51695196D01*
X80374505Y-51698796D01*
X80350001Y-51700000D01*
X79699999Y-51700000D01*
X79675495Y-51698796D01*
X79651227Y-51695196D01*
X79627428Y-51689235D01*
X79604329Y-51680970D01*
X79582150Y-51670480D01*
X79561107Y-51657868D01*
X79541401Y-51643253D01*
X79523223Y-51626777D01*
X79506747Y-51608599D01*
X79492132Y-51588893D01*
X79479520Y-51567850D01*
X79469030Y-51545671D01*
X79460765Y-51522572D01*
X79454804Y-51498773D01*
X79451204Y-51474505D01*
X79450000Y-51450001D01*
X79450000Y-50549999D01*
X79451204Y-50525495D01*
X79454804Y-50501227D01*
X79460765Y-50477428D01*
X79469030Y-50454329D01*
X79479520Y-50432150D01*
X79492132Y-50411107D01*
X79506747Y-50391401D01*
X79523223Y-50373223D01*
X79541401Y-50356747D01*
X79561107Y-50342132D01*
X79582150Y-50329520D01*
X79604329Y-50319030D01*
X79627428Y-50310765D01*
X79651227Y-50304804D01*
X79675495Y-50301204D01*
X79699999Y-50300000D01*
X80350001Y-50300000D01*
X80374505Y-50301204D01*
X80374505Y-50301204D01*
G37*
D14*
X80025000Y-51000000D03*
D12*
G36*
X78324505Y-50301204D02*
G01*
X78348773Y-50304804D01*
X78372572Y-50310765D01*
X78395671Y-50319030D01*
X78417850Y-50329520D01*
X78438893Y-50342132D01*
X78458599Y-50356747D01*
X78476777Y-50373223D01*
X78493253Y-50391401D01*
X78507868Y-50411107D01*
X78520480Y-50432150D01*
X78530970Y-50454329D01*
X78539235Y-50477428D01*
X78545196Y-50501227D01*
X78548796Y-50525495D01*
X78550000Y-50549999D01*
X78550000Y-51450001D01*
X78548796Y-51474505D01*
X78545196Y-51498773D01*
X78539235Y-51522572D01*
X78530970Y-51545671D01*
X78520480Y-51567850D01*
X78507868Y-51588893D01*
X78493253Y-51608599D01*
X78476777Y-51626777D01*
X78458599Y-51643253D01*
X78438893Y-51657868D01*
X78417850Y-51670480D01*
X78395671Y-51680970D01*
X78372572Y-51689235D01*
X78348773Y-51695196D01*
X78324505Y-51698796D01*
X78300001Y-51700000D01*
X77649999Y-51700000D01*
X77625495Y-51698796D01*
X77601227Y-51695196D01*
X77577428Y-51689235D01*
X77554329Y-51680970D01*
X77532150Y-51670480D01*
X77511107Y-51657868D01*
X77491401Y-51643253D01*
X77473223Y-51626777D01*
X77456747Y-51608599D01*
X77442132Y-51588893D01*
X77429520Y-51567850D01*
X77419030Y-51545671D01*
X77410765Y-51522572D01*
X77404804Y-51498773D01*
X77401204Y-51474505D01*
X77400000Y-51450001D01*
X77400000Y-50549999D01*
X77401204Y-50525495D01*
X77404804Y-50501227D01*
X77410765Y-50477428D01*
X77419030Y-50454329D01*
X77429520Y-50432150D01*
X77442132Y-50411107D01*
X77456747Y-50391401D01*
X77473223Y-50373223D01*
X77491401Y-50356747D01*
X77511107Y-50342132D01*
X77532150Y-50329520D01*
X77554329Y-50319030D01*
X77577428Y-50310765D01*
X77601227Y-50304804D01*
X77625495Y-50301204D01*
X77649999Y-50300000D01*
X78300001Y-50300000D01*
X78324505Y-50301204D01*
X78324505Y-50301204D01*
G37*
D14*
X77975000Y-51000000D03*
M02*
