%TF.GenerationSoftware,KiCad,Pcbnew,(5.1.0)-1*%
%TF.CreationDate,2019-10-02T21:08:56+02:00*%
%TF.ProjectId,Kicad_LFO_1_2,4b696361-645f-44c4-964f-5f315f322e6b,Rev A*%
%TF.SameCoordinates,Original*%
%TF.FileFunction,Profile,NP*%
%FSLAX46Y46*%
G04 Gerber Fmt 4.6, Leading zero omitted, Abs format (unit mm)*
G04 Created by KiCad (PCBNEW (5.1.0)-1) date 2019-10-02 21:08:56*
%MOMM*%
%LPD*%
G04 APERTURE LIST*
%ADD10C,1.000000*%
%ADD11C,0.050000*%
G04 APERTURE END LIST*
D10*
X111000000Y-60000000D02*
X111000000Y-140000000D01*
X110000000Y-140000000D02*
X111000000Y-140000000D01*
X110000000Y-60000000D02*
X111000000Y-60000000D01*
X110000000Y-140000000D02*
X110000000Y-60000000D01*
X129500000Y-140000000D02*
X130500000Y-140000000D01*
X130500000Y-60000000D02*
X130500000Y-140000000D01*
X129500000Y-60000000D02*
X130500000Y-60000000D01*
X129500000Y-140000000D02*
X129500000Y-60000000D01*
X90000000Y-60000000D02*
X90000000Y-140000000D01*
X89000000Y-60000000D02*
X90000000Y-60000000D01*
X89000000Y-140000000D02*
X90000000Y-140000000D01*
X89000000Y-140000000D02*
X89000000Y-60000000D01*
X69000000Y-60000000D02*
X70000000Y-60000000D01*
X69000000Y-140000000D02*
X69000000Y-60000000D01*
X69000000Y-140000000D02*
X70000000Y-140000000D01*
X70000000Y-60000000D02*
X70000000Y-140000000D01*
D11*
X150000000Y-50000000D02*
X50000000Y-50000000D01*
X150000000Y-150000000D02*
X150000000Y-50000000D01*
X50000000Y-150000000D02*
X150000000Y-150000000D01*
X50000000Y-50000000D02*
X50000000Y-150000000D01*
M02*
