M48
; DRILL file {KiCad (5.1.0)-1} date 22/04/2019 15:03:36
; FORMAT={-:-/ absolute / metric / decimal}
; #@! TF.CreationDate,2019-04-22T15:03:36+02:00
; #@! TF.GenerationSoftware,Kicad,Pcbnew,(5.1.0)-1
; #@! TF.FileFunction,Plated,1,2,PTH
FMAT,2
METRIC
T1C0.400
T2C0.500
T3C0.600
T4C0.800
T5C0.900
T6C1.000
T7C1.016
T8C1.200
T9C1.300
%
G90
G05
T1
X51.812Y-86.812
X52.723Y-87.953
X53.0Y-139.0
X53.263Y-130.737
X55.0Y-139.725
X55.679Y-136.775
X61.567Y-72.567
X61.567Y-74.467
X65.0Y-72.5
X65.0Y-74.0
X77.719Y-66.206
X78.65Y-94.0
X79.5Y-97.5
X81.35Y-94.0
X82.255Y-97.245
X100.5Y-120.5
X102.05Y-120.5
X123.5Y-127.7
X125.25Y-127.6
X136.5Y-76.375
X136.75Y-71.55
X138.5Y-91.8
X138.5Y-94.0
X147.267Y-77.265
X147.319Y-75.815
X148.5Y-95.0
X149.375Y-85.875
X149.375Y-101.5
X149.375Y-106.0
T2
X51.68Y-132.078
X52.0Y-141.0
X60.0Y-60.68
X60.0Y-65.0
X61.0Y-126.0
X62.38Y-140.0
X65.0Y-119.5
X66.864Y-125.5
X67.0Y-72.0
X67.576Y-127.576
X72.0Y-108.0
X75.5Y-92.5
X87.0Y-60.25
X87.8Y-106.0
X92.0Y-111.0
X94.075Y-111.0
X95.0Y-83.0
X124.425Y-115.25
X125.0Y-107.25
X132.25Y-57.75
X132.5Y-108.75
X132.5Y-110.25
X132.8Y-86.0
X133.0Y-52.0
X134.25Y-81.5
X134.25Y-90.4
X134.679Y-85.321
X135.596Y-83.904
X141.5Y-94.5
X142.0Y-103.0
X145.5Y-90.5
X147.5Y-109.5
X147.655Y-93.704
X148.276Y-85.577
T4
X65.0Y-89.0
X65.0Y-91.5
T5
X114.21Y-145.75
X116.75Y-145.75
X114.21Y-102.0
X116.75Y-102.0
T7
X118.75Y-55.34
X118.75Y-57.88
X118.75Y-60.42
X118.75Y-62.96
X118.75Y-65.5
X121.29Y-55.34
X121.29Y-57.88
X121.29Y-60.42
X121.29Y-62.96
X121.29Y-65.5
X99.0Y-55.34
X99.0Y-57.88
X99.0Y-60.42
X99.0Y-62.96
X99.0Y-65.5
X101.54Y-55.34
X101.54Y-57.88
X101.54Y-60.42
X101.54Y-62.96
X101.54Y-65.5
X133.96Y-92.84
X133.96Y-95.38
X133.96Y-97.92
X133.96Y-100.46
X133.96Y-103.0
X136.5Y-92.84
X136.5Y-95.38
X136.5Y-97.92
X136.5Y-100.46
X136.5Y-103.0
X63.96Y-107.34
X63.96Y-109.88
X63.96Y-112.42
X63.96Y-114.96
X63.96Y-117.5
X66.5Y-107.34
X66.5Y-109.88
X66.5Y-112.42
X66.5Y-114.96
X66.5Y-117.5
X74.84Y-53.46
X74.84Y-56.0
X77.38Y-53.46
X77.38Y-56.0
X79.92Y-53.46
X79.92Y-56.0
X82.46Y-53.46
X82.46Y-56.0
X85.0Y-53.46
X85.0Y-56.0
T8
X141.19Y-71.714
X141.19Y-76.286
X148.81Y-71.46
X148.81Y-76.54
X51.19Y-52.46
X51.19Y-57.54
X58.81Y-52.714
X58.81Y-57.286
X51.19Y-143.46
X51.19Y-148.54
X58.81Y-143.714
X58.81Y-148.286
X141.19Y-112.714
X141.19Y-117.286
X148.81Y-112.46
X148.81Y-117.54
X51.19Y-116.46
X51.19Y-121.54
X58.81Y-116.714
X58.81Y-121.286
X51.19Y-79.46
X51.19Y-84.54
X58.81Y-79.714
X58.81Y-84.286
X51.19Y-88.46
X51.19Y-93.54
X58.81Y-88.714
X58.81Y-93.286
X141.19Y-142.214
X141.19Y-146.786
X148.81Y-141.96
X148.81Y-147.04
T9
X146.0Y-125.5
X146.0Y-130.5
X146.0Y-135.5
X146.0Y-54.5
X146.0Y-59.5
X146.0Y-64.5
X52.0Y-63.0
X52.0Y-68.0
X52.0Y-73.0
X59.5Y-63.0
X59.5Y-68.0
X59.5Y-73.0
X54.0Y-127.5
X54.0Y-132.5
X54.0Y-137.5
T2
G00X95.08Y-114.8
M15
G01X95.08Y-113.2
M16
G05
G00X75.08Y-90.8
M15
G01X75.08Y-89.2
M16
G05
G00X75.08Y-127.8
M15
G01X75.08Y-126.2
M16
G05
G00X119.2Y-90.58
M15
G01X120.8Y-90.58
M16
G05
G00X95.08Y-136.725
M15
G01X95.08Y-135.125
M16
G05
G00X119.2Y-120.33
M15
G01X120.8Y-120.33
M16
G05
G00X75.08Y-145.8
M15
G01X75.08Y-144.2
M16
G05
G00X75.08Y-72.8
M15
G01X75.08Y-71.2
M16
G05
G00X75.08Y-99.8
M15
G01X75.08Y-98.2
M16
G05
G00X95.08Y-95.3
M15
G01X95.08Y-93.7
M16
G05
G00X75.08Y-136.8
M15
G01X75.08Y-135.2
M16
G05
G00X119.2Y-134.33
M15
G01X120.8Y-134.33
M16
G05
G00X119.2Y-76.58
M15
G01X120.8Y-76.58
M16
G05
G00X95.055Y-105.8
M15
G01X95.055Y-104.2
M16
G05
G00X95.055Y-145.8
M15
G01X95.055Y-144.2
M16
G05
G00X75.08Y-81.8
M15
G01X75.08Y-80.2
M16
G05
G00X84.92Y-117.2
M15
G01X84.92Y-118.8
M16
G05
G00X95.08Y-126.3
M15
G01X95.08Y-124.7
M16
G05
G00X95.055Y-81.05
M15
G01X95.055Y-79.45
M16
G05
G00X95.08Y-71.55
M15
G01X95.08Y-69.95
M16
G05
T3
G00X103.38Y-114.7
M15
G01X103.38Y-113.3
M16
G05
G00X106.48Y-114.4
M15
G01X106.48Y-113.6
M16
G05
G00X83.38Y-90.7
M15
G01X83.38Y-89.3
M16
G05
G00X86.48Y-90.4
M15
G01X86.48Y-89.6
M16
G05
G00X83.38Y-127.7
M15
G01X83.38Y-126.3
M16
G05
G00X86.48Y-127.4
M15
G01X86.48Y-126.6
M16
G05
G00X119.3Y-98.88
M15
G01X120.7Y-98.88
M16
G05
G00X119.6Y-101.98
M15
G01X120.4Y-101.98
M16
G05
G00X103.38Y-136.625
M15
G01X103.38Y-135.225
M16
G05
G00X106.48Y-136.325
M15
G01X106.48Y-135.525
M16
G05
G00X119.3Y-128.63
M15
G01X120.7Y-128.63
M16
G05
G00X119.6Y-131.73
M15
G01X120.4Y-131.73
M16
G05
G00X83.38Y-145.7
M15
G01X83.38Y-144.3
M16
G05
G00X86.48Y-145.4
M15
G01X86.48Y-144.6
M16
G05
G00X83.38Y-72.7
M15
G01X83.38Y-71.3
M16
G05
G00X86.48Y-72.4
M15
G01X86.48Y-71.6
M16
G05
G00X83.38Y-99.7
M15
G01X83.38Y-98.3
M16
G05
G00X86.48Y-99.4
M15
G01X86.48Y-98.6
M16
G05
G00X103.38Y-95.2
M15
G01X103.38Y-93.8
M16
G05
G00X106.48Y-94.9
M15
G01X106.48Y-94.1
M16
G05
G00X83.38Y-136.7
M15
G01X83.38Y-135.3
M16
G05
G00X86.48Y-136.4
M15
G01X86.48Y-135.6
M16
G05
G00X119.3Y-142.63
M15
G01X120.7Y-142.63
M16
G05
G00X119.6Y-145.73
M15
G01X120.4Y-145.73
M16
G05
G00X119.3Y-84.88
M15
G01X120.7Y-84.88
M16
G05
G00X119.6Y-87.98
M15
G01X120.4Y-87.98
M16
G05
G00X103.355Y-105.7
M15
G01X103.355Y-104.3
M16
G05
G00X106.455Y-105.4
M15
G01X106.455Y-104.6
M16
G05
G00X103.355Y-145.7
M15
G01X103.355Y-144.3
M16
G05
G00X106.455Y-145.4
M15
G01X106.455Y-144.6
M16
G05
G00X83.38Y-81.7
M15
G01X83.38Y-80.3
M16
G05
G00X86.48Y-81.4
M15
G01X86.48Y-80.6
M16
G05
G00X73.52Y-117.6
M15
G01X73.52Y-118.4
M16
G05
G00X76.62Y-117.3
M15
G01X76.62Y-118.7
M16
G05
G00X103.38Y-126.2
M15
G01X103.38Y-124.8
M16
G05
G00X106.48Y-125.9
M15
G01X106.48Y-125.1
M16
G05
G00X103.355Y-80.95
M15
G01X103.355Y-79.55
M16
G05
G00X106.455Y-80.65
M15
G01X106.455Y-79.85
M16
G05
G00X103.38Y-71.45
M15
G01X103.38Y-70.05
M16
G05
G00X106.48Y-71.15
M15
G01X106.48Y-70.35
M16
G05
T6
G00X75.3Y-109.65
M15
G01X75.3Y-108.35
M16
G05
G00X80.0Y-109.65
M15
G01X80.0Y-108.35
M16
G05
G00X84.7Y-109.65
M15
G01X84.7Y-108.35
M16
G05
G00X52.3Y-98.35
M15
G01X52.3Y-99.65
M16
G05
G00X57.0Y-98.35
M15
G01X57.0Y-99.65
M16
G05
G00X61.7Y-98.35
M15
G01X61.7Y-99.65
M16
G05
G00X75.3Y-62.65
M15
G01X75.3Y-61.35
M16
G05
G00X80.0Y-62.65
M15
G01X80.0Y-61.35
M16
G05
G00X84.7Y-62.65
M15
G01X84.7Y-61.35
M16
G05
T0
M30
