%TF.GenerationSoftware,KiCad,Pcbnew,(5.1.0)-1*%
%TF.CreationDate,2019-04-16T22:19:31+02:00*%
%TF.ProjectId,Kicad_LFO_1,4b696361-645f-44c4-964f-5f312e6b6963,Rev A*%
%TF.SameCoordinates,Original*%
%TF.FileFunction,Soldermask,Top*%
%TF.FilePolarity,Negative*%
%FSLAX46Y46*%
G04 Gerber Fmt 4.6, Leading zero omitted, Abs format (unit mm)*
G04 Created by KiCad (PCBNEW (5.1.0)-1) date 2019-04-16 22:19:31*
%MOMM*%
%LPD*%
G04 APERTURE LIST*
%ADD10C,1.000000*%
%ADD11C,0.050000*%
%ADD12C,0.150000*%
G04 APERTURE END LIST*
D10*
X111000000Y-60000000D02*
X111000000Y-140000000D01*
X110000000Y-140000000D02*
X111000000Y-140000000D01*
X110000000Y-60000000D02*
X111000000Y-60000000D01*
X110000000Y-140000000D02*
X110000000Y-60000000D01*
X129500000Y-140000000D02*
X130500000Y-140000000D01*
X130500000Y-60000000D02*
X130500000Y-140000000D01*
X129500000Y-60000000D02*
X130500000Y-60000000D01*
X129500000Y-140000000D02*
X129500000Y-60000000D01*
X90000000Y-60000000D02*
X90000000Y-140000000D01*
X89000000Y-60000000D02*
X90000000Y-60000000D01*
X89000000Y-140000000D02*
X90000000Y-140000000D01*
X89000000Y-140000000D02*
X89000000Y-60000000D01*
X69000000Y-60000000D02*
X70000000Y-60000000D01*
X69000000Y-140000000D02*
X69000000Y-60000000D01*
X69000000Y-140000000D02*
X70000000Y-140000000D01*
X70000000Y-60000000D02*
X70000000Y-140000000D01*
D11*
X150000000Y-50000000D02*
X50000000Y-50000000D01*
X150000000Y-150000000D02*
X150000000Y-50000000D01*
X50000000Y-150000000D02*
X150000000Y-150000000D01*
X50000000Y-50000000D02*
X50000000Y-150000000D01*
D12*
G36*
X51496564Y-147529389D02*
G01*
X51672744Y-147602365D01*
X51687835Y-147608616D01*
X51859973Y-147723635D01*
X52006365Y-147870027D01*
X52074090Y-147971384D01*
X52121385Y-148042167D01*
X52200611Y-148233436D01*
X52241000Y-148436484D01*
X52241000Y-148643516D01*
X52200611Y-148846564D01*
X52155292Y-148955973D01*
X52121384Y-149037835D01*
X52006365Y-149209973D01*
X51859973Y-149356365D01*
X51687835Y-149471384D01*
X51687834Y-149471385D01*
X51687833Y-149471385D01*
X51496564Y-149550611D01*
X51293516Y-149591000D01*
X51086484Y-149591000D01*
X50883436Y-149550611D01*
X50692167Y-149471385D01*
X50692166Y-149471385D01*
X50692165Y-149471384D01*
X50520027Y-149356365D01*
X50373635Y-149209973D01*
X50258616Y-149037835D01*
X50224708Y-148955973D01*
X50179389Y-148846564D01*
X50139000Y-148643516D01*
X50139000Y-148436484D01*
X50179389Y-148233436D01*
X50258615Y-148042167D01*
X50305911Y-147971384D01*
X50373635Y-147870027D01*
X50520027Y-147723635D01*
X50692165Y-147608616D01*
X50707256Y-147602365D01*
X50883436Y-147529389D01*
X51086484Y-147489000D01*
X51293516Y-147489000D01*
X51496564Y-147529389D01*
X51496564Y-147529389D01*
G37*
G36*
X59116564Y-147275389D02*
G01*
X59307833Y-147354615D01*
X59307835Y-147354616D01*
X59479973Y-147469635D01*
X59626365Y-147616027D01*
X59694090Y-147717384D01*
X59741385Y-147788167D01*
X59820611Y-147979436D01*
X59861000Y-148182484D01*
X59861000Y-148389516D01*
X59820611Y-148592564D01*
X59799506Y-148643516D01*
X59741384Y-148783835D01*
X59626365Y-148955973D01*
X59479973Y-149102365D01*
X59307835Y-149217384D01*
X59307834Y-149217385D01*
X59307833Y-149217385D01*
X59116564Y-149296611D01*
X58913516Y-149337000D01*
X58706484Y-149337000D01*
X58503436Y-149296611D01*
X58312167Y-149217385D01*
X58312166Y-149217385D01*
X58312165Y-149217384D01*
X58140027Y-149102365D01*
X57993635Y-148955973D01*
X57878616Y-148783835D01*
X57820494Y-148643516D01*
X57799389Y-148592564D01*
X57759000Y-148389516D01*
X57759000Y-148182484D01*
X57799389Y-147979436D01*
X57878615Y-147788167D01*
X57925911Y-147717384D01*
X57993635Y-147616027D01*
X58140027Y-147469635D01*
X58312165Y-147354616D01*
X58312167Y-147354615D01*
X58503436Y-147275389D01*
X58706484Y-147235000D01*
X58913516Y-147235000D01*
X59116564Y-147275389D01*
X59116564Y-147275389D01*
G37*
G36*
X149116564Y-146029389D02*
G01*
X149280190Y-146097165D01*
X149307835Y-146108616D01*
X149479973Y-146223635D01*
X149626365Y-146370027D01*
X149726591Y-146520025D01*
X149741385Y-146542167D01*
X149820611Y-146733436D01*
X149861000Y-146936484D01*
X149861000Y-147143516D01*
X149820611Y-147346564D01*
X149744882Y-147529390D01*
X149741384Y-147537835D01*
X149626365Y-147709973D01*
X149479973Y-147856365D01*
X149307835Y-147971384D01*
X149307834Y-147971385D01*
X149307833Y-147971385D01*
X149116564Y-148050611D01*
X148913516Y-148091000D01*
X148706484Y-148091000D01*
X148503436Y-148050611D01*
X148312167Y-147971385D01*
X148312166Y-147971385D01*
X148312165Y-147971384D01*
X148140027Y-147856365D01*
X147993635Y-147709973D01*
X147878616Y-147537835D01*
X147875118Y-147529390D01*
X147799389Y-147346564D01*
X147759000Y-147143516D01*
X147759000Y-146936484D01*
X147799389Y-146733436D01*
X147878615Y-146542167D01*
X147893410Y-146520025D01*
X147993635Y-146370027D01*
X148140027Y-146223635D01*
X148312165Y-146108616D01*
X148339810Y-146097165D01*
X148503436Y-146029389D01*
X148706484Y-145989000D01*
X148913516Y-145989000D01*
X149116564Y-146029389D01*
X149116564Y-146029389D01*
G37*
G36*
X141496564Y-145775389D02*
G01*
X141661397Y-145843665D01*
X141687835Y-145854616D01*
X141859973Y-145969635D01*
X142006365Y-146116027D01*
X142065866Y-146205076D01*
X142121385Y-146288167D01*
X142200611Y-146479436D01*
X142241000Y-146682484D01*
X142241000Y-146889516D01*
X142200611Y-147092564D01*
X142124882Y-147275390D01*
X142121384Y-147283835D01*
X142006365Y-147455973D01*
X141859973Y-147602365D01*
X141687835Y-147717384D01*
X141687834Y-147717385D01*
X141687833Y-147717385D01*
X141496564Y-147796611D01*
X141293516Y-147837000D01*
X141086484Y-147837000D01*
X140883436Y-147796611D01*
X140692167Y-147717385D01*
X140692166Y-147717385D01*
X140692165Y-147717384D01*
X140520027Y-147602365D01*
X140373635Y-147455973D01*
X140258616Y-147283835D01*
X140255118Y-147275390D01*
X140179389Y-147092564D01*
X140139000Y-146889516D01*
X140139000Y-146682484D01*
X140179389Y-146479436D01*
X140258615Y-146288167D01*
X140314135Y-146205076D01*
X140373635Y-146116027D01*
X140520027Y-145969635D01*
X140692165Y-145854616D01*
X140718603Y-145843665D01*
X140883436Y-145775389D01*
X141086484Y-145735000D01*
X141293516Y-145735000D01*
X141496564Y-145775389D01*
X141496564Y-145775389D01*
G37*
G36*
X117701000Y-146701000D02*
G01*
X115799000Y-146701000D01*
X115799000Y-144799000D01*
X117701000Y-144799000D01*
X117701000Y-146701000D01*
X117701000Y-146701000D01*
G37*
G36*
X114487395Y-144835546D02*
G01*
X114660466Y-144907234D01*
X114660467Y-144907235D01*
X114816227Y-145011310D01*
X114948690Y-145143773D01*
X114948691Y-145143775D01*
X115052766Y-145299534D01*
X115124454Y-145472605D01*
X115161000Y-145656333D01*
X115161000Y-145843667D01*
X115124454Y-146027395D01*
X115052766Y-146200466D01*
X115016249Y-146255117D01*
X114948690Y-146356227D01*
X114816227Y-146488690D01*
X114737818Y-146541081D01*
X114660466Y-146592766D01*
X114487395Y-146664454D01*
X114303667Y-146701000D01*
X114116333Y-146701000D01*
X113932605Y-146664454D01*
X113759534Y-146592766D01*
X113682182Y-146541081D01*
X113603773Y-146488690D01*
X113471310Y-146356227D01*
X113403751Y-146255117D01*
X113367234Y-146200466D01*
X113295546Y-146027395D01*
X113259000Y-145843667D01*
X113259000Y-145656333D01*
X113295546Y-145472605D01*
X113367234Y-145299534D01*
X113471309Y-145143775D01*
X113471310Y-145143773D01*
X113603773Y-145011310D01*
X113759533Y-144907235D01*
X113759534Y-144907234D01*
X113932605Y-144835546D01*
X114116333Y-144799000D01*
X114303667Y-144799000D01*
X114487395Y-144835546D01*
X114487395Y-144835546D01*
G37*
G36*
X120566823Y-144891313D02*
G01*
X120727242Y-144939976D01*
X120859906Y-145010886D01*
X120875078Y-145018996D01*
X121004659Y-145125341D01*
X121111004Y-145254922D01*
X121111005Y-145254924D01*
X121190024Y-145402758D01*
X121238687Y-145563177D01*
X121255117Y-145730000D01*
X121238687Y-145896823D01*
X121190024Y-146057242D01*
X121119114Y-146189906D01*
X121111004Y-146205078D01*
X121004659Y-146334659D01*
X120875078Y-146441004D01*
X120875076Y-146441005D01*
X120727242Y-146520024D01*
X120566823Y-146568687D01*
X120441804Y-146581000D01*
X119558196Y-146581000D01*
X119433177Y-146568687D01*
X119272758Y-146520024D01*
X119124924Y-146441005D01*
X119124922Y-146441004D01*
X118995341Y-146334659D01*
X118888996Y-146205078D01*
X118880886Y-146189906D01*
X118809976Y-146057242D01*
X118761313Y-145896823D01*
X118744883Y-145730000D01*
X118761313Y-145563177D01*
X118809976Y-145402758D01*
X118888995Y-145254924D01*
X118888996Y-145254922D01*
X118995341Y-145125341D01*
X119124922Y-145018996D01*
X119140094Y-145010886D01*
X119272758Y-144939976D01*
X119433177Y-144891313D01*
X119558196Y-144879000D01*
X120441804Y-144879000D01*
X120566823Y-144891313D01*
X120566823Y-144891313D01*
G37*
G36*
X103521823Y-143561313D02*
G01*
X103682242Y-143609976D01*
X103830078Y-143688995D01*
X103942025Y-143780868D01*
X103959660Y-143795341D01*
X104066005Y-143924922D01*
X104066006Y-143924924D01*
X104145025Y-144072758D01*
X104193688Y-144233177D01*
X104206001Y-144358196D01*
X104206001Y-145641804D01*
X104193688Y-145766823D01*
X104145025Y-145927242D01*
X104090426Y-146029389D01*
X104066005Y-146075078D01*
X103959660Y-146204659D01*
X103830079Y-146311004D01*
X103830077Y-146311005D01*
X103682243Y-146390024D01*
X103521824Y-146438687D01*
X103355001Y-146455117D01*
X103188179Y-146438687D01*
X103027760Y-146390024D01*
X102879926Y-146311005D01*
X102879924Y-146311004D01*
X102750343Y-146204659D01*
X102643998Y-146075078D01*
X102619577Y-146029389D01*
X102564978Y-145927242D01*
X102516315Y-145766823D01*
X102504002Y-145641804D01*
X102504001Y-144358197D01*
X102516314Y-144233178D01*
X102564977Y-144072759D01*
X102643996Y-143924923D01*
X102750342Y-143795341D01*
X102767979Y-143780867D01*
X102879923Y-143688996D01*
X102895311Y-143680771D01*
X103027759Y-143609976D01*
X103188178Y-143561313D01*
X103355001Y-143544883D01*
X103521823Y-143561313D01*
X103521823Y-143561313D01*
G37*
G36*
X83546822Y-143561313D02*
G01*
X83707241Y-143609976D01*
X83855077Y-143688995D01*
X83967024Y-143780868D01*
X83984659Y-143795341D01*
X84091004Y-143924922D01*
X84091005Y-143924924D01*
X84170024Y-144072758D01*
X84218687Y-144233177D01*
X84231000Y-144358196D01*
X84231000Y-145641804D01*
X84218687Y-145766823D01*
X84170024Y-145927242D01*
X84115425Y-146029389D01*
X84091004Y-146075078D01*
X83984659Y-146204659D01*
X83855078Y-146311004D01*
X83855076Y-146311005D01*
X83707242Y-146390024D01*
X83546823Y-146438687D01*
X83380000Y-146455117D01*
X83213178Y-146438687D01*
X83052759Y-146390024D01*
X82904925Y-146311005D01*
X82904923Y-146311004D01*
X82775342Y-146204659D01*
X82668997Y-146075078D01*
X82644576Y-146029389D01*
X82589977Y-145927242D01*
X82541314Y-145766823D01*
X82529001Y-145641804D01*
X82529000Y-144358197D01*
X82541313Y-144233178D01*
X82589976Y-144072759D01*
X82668995Y-143924923D01*
X82775341Y-143795341D01*
X82792978Y-143780867D01*
X82904922Y-143688996D01*
X82920310Y-143680771D01*
X83052758Y-143609976D01*
X83213177Y-143561313D01*
X83380000Y-143544883D01*
X83546822Y-143561313D01*
X83546822Y-143561313D01*
G37*
G36*
X95212023Y-143560590D02*
G01*
X95312682Y-143591125D01*
X95363013Y-143606392D01*
X95502165Y-143680771D01*
X95624134Y-143780867D01*
X95712872Y-143888995D01*
X95724230Y-143902835D01*
X95798609Y-144041987D01*
X95807943Y-144072758D01*
X95844411Y-144192977D01*
X95856001Y-144310655D01*
X95856001Y-145689345D01*
X95844411Y-145807023D01*
X95833295Y-145843667D01*
X95798609Y-145958013D01*
X95724230Y-146097165D01*
X95624134Y-146219133D01*
X95502166Y-146319229D01*
X95363014Y-146393608D01*
X95312683Y-146408875D01*
X95212024Y-146439410D01*
X95055001Y-146454875D01*
X94897979Y-146439410D01*
X94797320Y-146408875D01*
X94746989Y-146393608D01*
X94607837Y-146319229D01*
X94485869Y-146219133D01*
X94385773Y-146097165D01*
X94311394Y-145958013D01*
X94276708Y-145843667D01*
X94265592Y-145807023D01*
X94254002Y-145689345D01*
X94254001Y-144310656D01*
X94265591Y-144192978D01*
X94311393Y-144041989D01*
X94311393Y-144041988D01*
X94385772Y-143902836D01*
X94397131Y-143888995D01*
X94485868Y-143780867D01*
X94607836Y-143680771D01*
X94746988Y-143606392D01*
X94797319Y-143591125D01*
X94897978Y-143560590D01*
X95055001Y-143545125D01*
X95212023Y-143560590D01*
X95212023Y-143560590D01*
G37*
G36*
X75237022Y-143560590D02*
G01*
X75337681Y-143591125D01*
X75388012Y-143606392D01*
X75527164Y-143680771D01*
X75649133Y-143780867D01*
X75737871Y-143888995D01*
X75749229Y-143902835D01*
X75823608Y-144041987D01*
X75832942Y-144072758D01*
X75869410Y-144192977D01*
X75881000Y-144310655D01*
X75881000Y-145689345D01*
X75869410Y-145807023D01*
X75858294Y-145843667D01*
X75823608Y-145958013D01*
X75749229Y-146097165D01*
X75649133Y-146219133D01*
X75527165Y-146319229D01*
X75388013Y-146393608D01*
X75337682Y-146408875D01*
X75237023Y-146439410D01*
X75080000Y-146454875D01*
X74922978Y-146439410D01*
X74822319Y-146408875D01*
X74771988Y-146393608D01*
X74632836Y-146319229D01*
X74510868Y-146219133D01*
X74410772Y-146097165D01*
X74336393Y-145958013D01*
X74301707Y-145843667D01*
X74290591Y-145807023D01*
X74279001Y-145689345D01*
X74279000Y-144310656D01*
X74290590Y-144192978D01*
X74336392Y-144041989D01*
X74336392Y-144041988D01*
X74410771Y-143902836D01*
X74422130Y-143888995D01*
X74510867Y-143780867D01*
X74632835Y-143680771D01*
X74771987Y-143606392D01*
X74822318Y-143591125D01*
X74922977Y-143560590D01*
X75080000Y-143545125D01*
X75237022Y-143560590D01*
X75237022Y-143560590D01*
G37*
G36*
X86646822Y-143761313D02*
G01*
X86807241Y-143809976D01*
X86955077Y-143888995D01*
X87038958Y-143957835D01*
X87084659Y-143995341D01*
X87191004Y-144124922D01*
X87191005Y-144124924D01*
X87270024Y-144272758D01*
X87318687Y-144433177D01*
X87331000Y-144558196D01*
X87331000Y-145441803D01*
X87318687Y-145566822D01*
X87270024Y-145727242D01*
X87207793Y-145843667D01*
X87191004Y-145875078D01*
X87084659Y-146004659D01*
X86955078Y-146111004D01*
X86955076Y-146111005D01*
X86807242Y-146190024D01*
X86646823Y-146238687D01*
X86480000Y-146255117D01*
X86313178Y-146238687D01*
X86152759Y-146190024D01*
X86004925Y-146111005D01*
X86004923Y-146111004D01*
X85875342Y-146004659D01*
X85768997Y-145875078D01*
X85752208Y-145843667D01*
X85689977Y-145727242D01*
X85641314Y-145566823D01*
X85629000Y-145441803D01*
X85629000Y-144558197D01*
X85641313Y-144433178D01*
X85689976Y-144272759D01*
X85768995Y-144124923D01*
X85875341Y-143995341D01*
X85921042Y-143957835D01*
X86004922Y-143888996D01*
X86020094Y-143880886D01*
X86152758Y-143809976D01*
X86313177Y-143761313D01*
X86480000Y-143744883D01*
X86646822Y-143761313D01*
X86646822Y-143761313D01*
G37*
G36*
X106621823Y-143761313D02*
G01*
X106782242Y-143809976D01*
X106930078Y-143888995D01*
X107013959Y-143957835D01*
X107059660Y-143995341D01*
X107166005Y-144124922D01*
X107166006Y-144124924D01*
X107245025Y-144272758D01*
X107293688Y-144433177D01*
X107306001Y-144558196D01*
X107306001Y-145441803D01*
X107293688Y-145566822D01*
X107245025Y-145727242D01*
X107182794Y-145843667D01*
X107166005Y-145875078D01*
X107059660Y-146004659D01*
X106930079Y-146111004D01*
X106930077Y-146111005D01*
X106782243Y-146190024D01*
X106621824Y-146238687D01*
X106455001Y-146255117D01*
X106288179Y-146238687D01*
X106127760Y-146190024D01*
X105979926Y-146111005D01*
X105979924Y-146111004D01*
X105850343Y-146004659D01*
X105743998Y-145875078D01*
X105727209Y-145843667D01*
X105664978Y-145727242D01*
X105616315Y-145566823D01*
X105604001Y-145441803D01*
X105604001Y-144558197D01*
X105616314Y-144433178D01*
X105664977Y-144272759D01*
X105743996Y-144124923D01*
X105850342Y-143995341D01*
X105896043Y-143957835D01*
X105979923Y-143888996D01*
X105995095Y-143880886D01*
X106127759Y-143809976D01*
X106288178Y-143761313D01*
X106455001Y-143744883D01*
X106621823Y-143761313D01*
X106621823Y-143761313D01*
G37*
G36*
X59116564Y-142703389D02*
G01*
X59292744Y-142776365D01*
X59307835Y-142782616D01*
X59479973Y-142897635D01*
X59626365Y-143044027D01*
X59694090Y-143145384D01*
X59741385Y-143216167D01*
X59820611Y-143407436D01*
X59861000Y-143610484D01*
X59861000Y-143817516D01*
X59820611Y-144020564D01*
X59749194Y-144192980D01*
X59741384Y-144211835D01*
X59626365Y-144383973D01*
X59479973Y-144530365D01*
X59307835Y-144645384D01*
X59307834Y-144645385D01*
X59307833Y-144645385D01*
X59116564Y-144724611D01*
X58913516Y-144765000D01*
X58706484Y-144765000D01*
X58503436Y-144724611D01*
X58312167Y-144645385D01*
X58312166Y-144645385D01*
X58312165Y-144645384D01*
X58140027Y-144530365D01*
X57993635Y-144383973D01*
X57878616Y-144211835D01*
X57870806Y-144192980D01*
X57799389Y-144020564D01*
X57759000Y-143817516D01*
X57759000Y-143610484D01*
X57799389Y-143407436D01*
X57878615Y-143216167D01*
X57925911Y-143145384D01*
X57993635Y-143044027D01*
X58140027Y-142897635D01*
X58312165Y-142782616D01*
X58327256Y-142776365D01*
X58503436Y-142703389D01*
X58706484Y-142663000D01*
X58913516Y-142663000D01*
X59116564Y-142703389D01*
X59116564Y-142703389D01*
G37*
G36*
X51496564Y-142449389D02*
G01*
X51687833Y-142528615D01*
X51687835Y-142528616D01*
X51859973Y-142643635D01*
X52006365Y-142790027D01*
X52118095Y-142957242D01*
X52121385Y-142962167D01*
X52200611Y-143153436D01*
X52241000Y-143356484D01*
X52241000Y-143563516D01*
X52200611Y-143766564D01*
X52135016Y-143924924D01*
X52121384Y-143957835D01*
X52006365Y-144129973D01*
X51859973Y-144276365D01*
X51687835Y-144391384D01*
X51687834Y-144391385D01*
X51687833Y-144391385D01*
X51496564Y-144470611D01*
X51293516Y-144511000D01*
X51086484Y-144511000D01*
X50883436Y-144470611D01*
X50692167Y-144391385D01*
X50692166Y-144391385D01*
X50692165Y-144391384D01*
X50520027Y-144276365D01*
X50373635Y-144129973D01*
X50258616Y-143957835D01*
X50244984Y-143924924D01*
X50179389Y-143766564D01*
X50139000Y-143563516D01*
X50139000Y-143356484D01*
X50179389Y-143153436D01*
X50258615Y-142962167D01*
X50261906Y-142957242D01*
X50373635Y-142790027D01*
X50520027Y-142643635D01*
X50692165Y-142528616D01*
X50692167Y-142528615D01*
X50883436Y-142449389D01*
X51086484Y-142409000D01*
X51293516Y-142409000D01*
X51496564Y-142449389D01*
X51496564Y-142449389D01*
G37*
G36*
X120766823Y-141791313D02*
G01*
X120927242Y-141839976D01*
X121053449Y-141907435D01*
X121075078Y-141918996D01*
X121204659Y-142025341D01*
X121311004Y-142154922D01*
X121311005Y-142154924D01*
X121390024Y-142302758D01*
X121438687Y-142463177D01*
X121455117Y-142630000D01*
X121438687Y-142796823D01*
X121390024Y-142957242D01*
X121350939Y-143030365D01*
X121311004Y-143105078D01*
X121204659Y-143234659D01*
X121075078Y-143341004D01*
X121075076Y-143341005D01*
X120927242Y-143420024D01*
X120766823Y-143468687D01*
X120641804Y-143481000D01*
X119358196Y-143481000D01*
X119233177Y-143468687D01*
X119072758Y-143420024D01*
X118924924Y-143341005D01*
X118924922Y-143341004D01*
X118795341Y-143234659D01*
X118688996Y-143105078D01*
X118649061Y-143030365D01*
X118609976Y-142957242D01*
X118561313Y-142796823D01*
X118544883Y-142630000D01*
X118561313Y-142463177D01*
X118609976Y-142302758D01*
X118688995Y-142154924D01*
X118688996Y-142154922D01*
X118795341Y-142025341D01*
X118924922Y-141918996D01*
X118946551Y-141907435D01*
X119072758Y-141839976D01*
X119233177Y-141791313D01*
X119358196Y-141779000D01*
X120641804Y-141779000D01*
X120766823Y-141791313D01*
X120766823Y-141791313D01*
G37*
G36*
X141496564Y-141203389D02*
G01*
X141687833Y-141282615D01*
X141687835Y-141282616D01*
X141698926Y-141290027D01*
X141859973Y-141397635D01*
X142006365Y-141544027D01*
X142121385Y-141716167D01*
X142200611Y-141907436D01*
X142241000Y-142110484D01*
X142241000Y-142317516D01*
X142200611Y-142520564D01*
X142124882Y-142703390D01*
X142121384Y-142711835D01*
X142006365Y-142883973D01*
X141859973Y-143030365D01*
X141687835Y-143145384D01*
X141687834Y-143145385D01*
X141687833Y-143145385D01*
X141496564Y-143224611D01*
X141293516Y-143265000D01*
X141086484Y-143265000D01*
X140883436Y-143224611D01*
X140692167Y-143145385D01*
X140692166Y-143145385D01*
X140692165Y-143145384D01*
X140520027Y-143030365D01*
X140373635Y-142883973D01*
X140258616Y-142711835D01*
X140255118Y-142703390D01*
X140179389Y-142520564D01*
X140139000Y-142317516D01*
X140139000Y-142110484D01*
X140179389Y-141907436D01*
X140258615Y-141716167D01*
X140373635Y-141544027D01*
X140520027Y-141397635D01*
X140681074Y-141290027D01*
X140692165Y-141282616D01*
X140692167Y-141282615D01*
X140883436Y-141203389D01*
X141086484Y-141163000D01*
X141293516Y-141163000D01*
X141496564Y-141203389D01*
X141496564Y-141203389D01*
G37*
G36*
X149116564Y-140949389D02*
G01*
X149307833Y-141028615D01*
X149307835Y-141028616D01*
X149479973Y-141143635D01*
X149626365Y-141290027D01*
X149741385Y-141462167D01*
X149820611Y-141653436D01*
X149861000Y-141856484D01*
X149861000Y-142063516D01*
X149820611Y-142266564D01*
X149744882Y-142449390D01*
X149741384Y-142457835D01*
X149626365Y-142629973D01*
X149479973Y-142776365D01*
X149307835Y-142891384D01*
X149307834Y-142891385D01*
X149307833Y-142891385D01*
X149116564Y-142970611D01*
X148913516Y-143011000D01*
X148706484Y-143011000D01*
X148503436Y-142970611D01*
X148312167Y-142891385D01*
X148312166Y-142891385D01*
X148312165Y-142891384D01*
X148140027Y-142776365D01*
X147993635Y-142629973D01*
X147878616Y-142457835D01*
X147875118Y-142449390D01*
X147799389Y-142266564D01*
X147759000Y-142063516D01*
X147759000Y-141856484D01*
X147799389Y-141653436D01*
X147878615Y-141462167D01*
X147993635Y-141290027D01*
X148140027Y-141143635D01*
X148312165Y-141028616D01*
X148312167Y-141028615D01*
X148503436Y-140949389D01*
X148706484Y-140909000D01*
X148913516Y-140909000D01*
X149116564Y-140949389D01*
X149116564Y-140949389D01*
G37*
G36*
X54238205Y-136302461D02*
G01*
X54356153Y-136325922D01*
X54448194Y-136364047D01*
X54578359Y-136417963D01*
X54778342Y-136551587D01*
X54948413Y-136721658D01*
X55082037Y-136921641D01*
X55114525Y-137000075D01*
X55174078Y-137143847D01*
X55178024Y-137163685D01*
X55221000Y-137379741D01*
X55221000Y-137620259D01*
X55174078Y-137856152D01*
X55082037Y-138078359D01*
X54948413Y-138278342D01*
X54778342Y-138448413D01*
X54578359Y-138582037D01*
X54448194Y-138635953D01*
X54356153Y-138674078D01*
X54120259Y-138721000D01*
X53879741Y-138721000D01*
X53643847Y-138674078D01*
X53551806Y-138635953D01*
X53421641Y-138582037D01*
X53221658Y-138448413D01*
X53051587Y-138278342D01*
X52917963Y-138078359D01*
X52825922Y-137856152D01*
X52779000Y-137620259D01*
X52779000Y-137379741D01*
X52821976Y-137163685D01*
X52825922Y-137143847D01*
X52885475Y-137000075D01*
X52917963Y-136921641D01*
X53051587Y-136721658D01*
X53221658Y-136551587D01*
X53421641Y-136417963D01*
X53551806Y-136364047D01*
X53643847Y-136325922D01*
X53761795Y-136302461D01*
X53879741Y-136279000D01*
X54120259Y-136279000D01*
X54238205Y-136302461D01*
X54238205Y-136302461D01*
G37*
G36*
X83546822Y-134561313D02*
G01*
X83707241Y-134609976D01*
X83855077Y-134688995D01*
X83967024Y-134780868D01*
X83984659Y-134795341D01*
X84091004Y-134924922D01*
X84091005Y-134924924D01*
X84170024Y-135072758D01*
X84218687Y-135233177D01*
X84231000Y-135358196D01*
X84231000Y-136641804D01*
X84218687Y-136766823D01*
X84170024Y-136927242D01*
X84119287Y-137022164D01*
X84091004Y-137075078D01*
X83984659Y-137204659D01*
X83855078Y-137311004D01*
X83855076Y-137311005D01*
X83707242Y-137390024D01*
X83546823Y-137438687D01*
X83380000Y-137455117D01*
X83213178Y-137438687D01*
X83052759Y-137390024D01*
X82904925Y-137311005D01*
X82904923Y-137311004D01*
X82775342Y-137204659D01*
X82668997Y-137075078D01*
X82640714Y-137022164D01*
X82589977Y-136927242D01*
X82541314Y-136766823D01*
X82529001Y-136641804D01*
X82529000Y-135358197D01*
X82541313Y-135233178D01*
X82589976Y-135072759D01*
X82668995Y-134924923D01*
X82775341Y-134795341D01*
X82792978Y-134780867D01*
X82904922Y-134688996D01*
X83000305Y-134638013D01*
X83052758Y-134609976D01*
X83213177Y-134561313D01*
X83380000Y-134544883D01*
X83546822Y-134561313D01*
X83546822Y-134561313D01*
G37*
G36*
X75237022Y-134560590D02*
G01*
X75337681Y-134591125D01*
X75388012Y-134606392D01*
X75447168Y-134638012D01*
X75527164Y-134680771D01*
X75649133Y-134780867D01*
X75705805Y-134849923D01*
X75749229Y-134902835D01*
X75823608Y-135041987D01*
X75826015Y-135049922D01*
X75869410Y-135192977D01*
X75869410Y-135192979D01*
X75878296Y-135283195D01*
X75881000Y-135310655D01*
X75881000Y-136689345D01*
X75869410Y-136807023D01*
X75855694Y-136852238D01*
X75823608Y-136958013D01*
X75749229Y-137097165D01*
X75649133Y-137219133D01*
X75527165Y-137319229D01*
X75388013Y-137393608D01*
X75337682Y-137408875D01*
X75237023Y-137439410D01*
X75080000Y-137454875D01*
X74922978Y-137439410D01*
X74822319Y-137408875D01*
X74771988Y-137393608D01*
X74632836Y-137319229D01*
X74510868Y-137219133D01*
X74410772Y-137097165D01*
X74336393Y-136958013D01*
X74304307Y-136852238D01*
X74290591Y-136807023D01*
X74279001Y-136689345D01*
X74279000Y-135310656D01*
X74281705Y-135283196D01*
X74290119Y-135197758D01*
X74290590Y-135192978D01*
X74333985Y-135049923D01*
X74336392Y-135041988D01*
X74410771Y-134902836D01*
X74454197Y-134849921D01*
X74510867Y-134780867D01*
X74632835Y-134680771D01*
X74712831Y-134638012D01*
X74771987Y-134606392D01*
X74822318Y-134591125D01*
X74922977Y-134560590D01*
X75080000Y-134545125D01*
X75237022Y-134560590D01*
X75237022Y-134560590D01*
G37*
G36*
X103546822Y-134486312D02*
G01*
X103707241Y-134534975D01*
X103855077Y-134613994D01*
X103967024Y-134705867D01*
X103984659Y-134720340D01*
X104091004Y-134849921D01*
X104091005Y-134849923D01*
X104170024Y-134997757D01*
X104218687Y-135158176D01*
X104231000Y-135283195D01*
X104231000Y-136566803D01*
X104218687Y-136691822D01*
X104170024Y-136852241D01*
X104113488Y-136958012D01*
X104091004Y-137000077D01*
X103984659Y-137129658D01*
X103855078Y-137236003D01*
X103839906Y-137244113D01*
X103707242Y-137315023D01*
X103546823Y-137363686D01*
X103380000Y-137380116D01*
X103213178Y-137363686D01*
X103052759Y-137315023D01*
X102920095Y-137244113D01*
X102904923Y-137236003D01*
X102775342Y-137129658D01*
X102668997Y-137000077D01*
X102646513Y-136958012D01*
X102589977Y-136852241D01*
X102541314Y-136691822D01*
X102529001Y-136566803D01*
X102529000Y-135283196D01*
X102541313Y-135158177D01*
X102589976Y-134997758D01*
X102668995Y-134849922D01*
X102775341Y-134720340D01*
X102836824Y-134669882D01*
X102904922Y-134613995D01*
X102920310Y-134605770D01*
X103052758Y-134534975D01*
X103213177Y-134486312D01*
X103380000Y-134469882D01*
X103546822Y-134486312D01*
X103546822Y-134486312D01*
G37*
G36*
X95237022Y-134485589D02*
G01*
X95337681Y-134516124D01*
X95388012Y-134531391D01*
X95443993Y-134561314D01*
X95527164Y-134605770D01*
X95649133Y-134705866D01*
X95734573Y-134809976D01*
X95749229Y-134827834D01*
X95823608Y-134966986D01*
X95832209Y-134995341D01*
X95869410Y-135117976D01*
X95869410Y-135117978D01*
X95881000Y-135235653D01*
X95881000Y-136614345D01*
X95877268Y-136652238D01*
X95869410Y-136732022D01*
X95848766Y-136800075D01*
X95823608Y-136883012D01*
X95749229Y-137022164D01*
X95649133Y-137144132D01*
X95527165Y-137244228D01*
X95388013Y-137318607D01*
X95385962Y-137319229D01*
X95237023Y-137364409D01*
X95080000Y-137379874D01*
X94922978Y-137364409D01*
X94774039Y-137319229D01*
X94771988Y-137318607D01*
X94632836Y-137244228D01*
X94510868Y-137144132D01*
X94410772Y-137022164D01*
X94336393Y-136883012D01*
X94311235Y-136800075D01*
X94290591Y-136732022D01*
X94282733Y-136652238D01*
X94279001Y-136614345D01*
X94279000Y-135235654D01*
X94288042Y-135143847D01*
X94290590Y-135117977D01*
X94336392Y-134966988D01*
X94336392Y-134966987D01*
X94410771Y-134827835D01*
X94437438Y-134795341D01*
X94510867Y-134705866D01*
X94632835Y-134605770D01*
X94716006Y-134561314D01*
X94771987Y-134531391D01*
X94822318Y-134516124D01*
X94922977Y-134485589D01*
X95080000Y-134470124D01*
X95237022Y-134485589D01*
X95237022Y-134485589D01*
G37*
G36*
X86646822Y-134761313D02*
G01*
X86807241Y-134809976D01*
X86955077Y-134888995D01*
X87050111Y-134966988D01*
X87084659Y-134995341D01*
X87191004Y-135124922D01*
X87191005Y-135124924D01*
X87270024Y-135272758D01*
X87318687Y-135433177D01*
X87331000Y-135558196D01*
X87331000Y-136441803D01*
X87318687Y-136566822D01*
X87304271Y-136614344D01*
X87271918Y-136721000D01*
X87270024Y-136727242D01*
X87248867Y-136766823D01*
X87191004Y-136875078D01*
X87084659Y-137004659D01*
X86955078Y-137111004D01*
X86955076Y-137111005D01*
X86807242Y-137190024D01*
X86646823Y-137238687D01*
X86480000Y-137255117D01*
X86313178Y-137238687D01*
X86152759Y-137190024D01*
X86004925Y-137111005D01*
X86004923Y-137111004D01*
X85875342Y-137004659D01*
X85768997Y-136875078D01*
X85711134Y-136766823D01*
X85689977Y-136727242D01*
X85641314Y-136566823D01*
X85629000Y-136441803D01*
X85629000Y-135558197D01*
X85641313Y-135433178D01*
X85689976Y-135272759D01*
X85768995Y-135124923D01*
X85875341Y-134995341D01*
X85909890Y-134966987D01*
X86004922Y-134888996D01*
X86020094Y-134880886D01*
X86152758Y-134809976D01*
X86313177Y-134761313D01*
X86480000Y-134744883D01*
X86646822Y-134761313D01*
X86646822Y-134761313D01*
G37*
G36*
X106646822Y-134686312D02*
G01*
X106807241Y-134734975D01*
X106955077Y-134813994D01*
X107058818Y-134899133D01*
X107084659Y-134920340D01*
X107191004Y-135049921D01*
X107191005Y-135049923D01*
X107270024Y-135197757D01*
X107318687Y-135358176D01*
X107331000Y-135483195D01*
X107331000Y-136366802D01*
X107318687Y-136491821D01*
X107270024Y-136652241D01*
X107199114Y-136784905D01*
X107191004Y-136800077D01*
X107084659Y-136929658D01*
X106955078Y-137036003D01*
X106955076Y-137036004D01*
X106807242Y-137115023D01*
X106646823Y-137163686D01*
X106480000Y-137180116D01*
X106313178Y-137163686D01*
X106152759Y-137115023D01*
X106004925Y-137036004D01*
X106004923Y-137036003D01*
X105875342Y-136929658D01*
X105768997Y-136800077D01*
X105760887Y-136784905D01*
X105689977Y-136652241D01*
X105641314Y-136491822D01*
X105629000Y-136366802D01*
X105629000Y-135483196D01*
X105641313Y-135358177D01*
X105689976Y-135197758D01*
X105768995Y-135049922D01*
X105875341Y-134920340D01*
X105961144Y-134849923D01*
X106004922Y-134813995D01*
X106039821Y-134795341D01*
X106152758Y-134734975D01*
X106313177Y-134686312D01*
X106480000Y-134669882D01*
X106646822Y-134686312D01*
X106646822Y-134686312D01*
G37*
G36*
X146238205Y-134302461D02*
G01*
X146356153Y-134325922D01*
X146448194Y-134364047D01*
X146578359Y-134417963D01*
X146778342Y-134551587D01*
X146948413Y-134721658D01*
X147082037Y-134921641D01*
X147113566Y-134997760D01*
X147168757Y-135131000D01*
X147174078Y-135143848D01*
X147221000Y-135379741D01*
X147221000Y-135620259D01*
X147174078Y-135856152D01*
X147082037Y-136078359D01*
X146948413Y-136278342D01*
X146778342Y-136448413D01*
X146578359Y-136582037D01*
X146500360Y-136614345D01*
X146356153Y-136674078D01*
X146279400Y-136689345D01*
X146120259Y-136721000D01*
X145879741Y-136721000D01*
X145720600Y-136689345D01*
X145643847Y-136674078D01*
X145499640Y-136614345D01*
X145421641Y-136582037D01*
X145221658Y-136448413D01*
X145051587Y-136278342D01*
X144917963Y-136078359D01*
X144825922Y-135856152D01*
X144779000Y-135620259D01*
X144779000Y-135379741D01*
X144825922Y-135143848D01*
X144831244Y-135131000D01*
X144886434Y-134997760D01*
X144917963Y-134921641D01*
X145051587Y-134721658D01*
X145221658Y-134551587D01*
X145421641Y-134417963D01*
X145551806Y-134364047D01*
X145643847Y-134325922D01*
X145761795Y-134302461D01*
X145879741Y-134279000D01*
X146120259Y-134279000D01*
X146238205Y-134302461D01*
X146238205Y-134302461D01*
G37*
G36*
X120728571Y-133532863D02*
G01*
X120807023Y-133540590D01*
X120907682Y-133571125D01*
X120958013Y-133586392D01*
X121097165Y-133660771D01*
X121219133Y-133760867D01*
X121319229Y-133882835D01*
X121393608Y-134021987D01*
X121393608Y-134021988D01*
X121439410Y-134172977D01*
X121454875Y-134330000D01*
X121439410Y-134487023D01*
X121425951Y-134531391D01*
X121393608Y-134638013D01*
X121319229Y-134777165D01*
X121219133Y-134899133D01*
X121097165Y-134999229D01*
X120958013Y-135073608D01*
X120907682Y-135088875D01*
X120807023Y-135119410D01*
X120751057Y-135124922D01*
X120689346Y-135131000D01*
X119310654Y-135131000D01*
X119248943Y-135124922D01*
X119192977Y-135119410D01*
X119092318Y-135088875D01*
X119041987Y-135073608D01*
X118902835Y-134999229D01*
X118780867Y-134899133D01*
X118680771Y-134777165D01*
X118606392Y-134638013D01*
X118574049Y-134531391D01*
X118560590Y-134487023D01*
X118545125Y-134330000D01*
X118560590Y-134172977D01*
X118606392Y-134021988D01*
X118606392Y-134021987D01*
X118680771Y-133882835D01*
X118780867Y-133760867D01*
X118902835Y-133660771D01*
X119041987Y-133586392D01*
X119092318Y-133571125D01*
X119192977Y-133540590D01*
X119271429Y-133532863D01*
X119310654Y-133529000D01*
X120689346Y-133529000D01*
X120728571Y-133532863D01*
X120728571Y-133532863D01*
G37*
G36*
X54238205Y-131302461D02*
G01*
X54356153Y-131325922D01*
X54448194Y-131364047D01*
X54578359Y-131417963D01*
X54778342Y-131551587D01*
X54948413Y-131721658D01*
X55082037Y-131921641D01*
X55174078Y-132143848D01*
X55221000Y-132379741D01*
X55221000Y-132620259D01*
X55174078Y-132856152D01*
X55082037Y-133078359D01*
X54948413Y-133278342D01*
X54778342Y-133448413D01*
X54578359Y-133582037D01*
X54448194Y-133635953D01*
X54356153Y-133674078D01*
X54238205Y-133697539D01*
X54120259Y-133721000D01*
X53879741Y-133721000D01*
X53761795Y-133697539D01*
X53643847Y-133674078D01*
X53551806Y-133635953D01*
X53421641Y-133582037D01*
X53221658Y-133448413D01*
X53051587Y-133278342D01*
X52917963Y-133078359D01*
X52825922Y-132856152D01*
X52779000Y-132620259D01*
X52779000Y-132379741D01*
X52825922Y-132143848D01*
X52917963Y-131921641D01*
X53051587Y-131721658D01*
X53221658Y-131551587D01*
X53421641Y-131417963D01*
X53551806Y-131364047D01*
X53643847Y-131325922D01*
X53761795Y-131302461D01*
X53879741Y-131279000D01*
X54120259Y-131279000D01*
X54238205Y-131302461D01*
X54238205Y-131302461D01*
G37*
G36*
X120566823Y-130891313D02*
G01*
X120727242Y-130939976D01*
X120859906Y-131010886D01*
X120875078Y-131018996D01*
X121004659Y-131125341D01*
X121111004Y-131254922D01*
X121111005Y-131254924D01*
X121190024Y-131402758D01*
X121238687Y-131563177D01*
X121255117Y-131730000D01*
X121238687Y-131896823D01*
X121190024Y-132057242D01*
X121143732Y-132143848D01*
X121111004Y-132205078D01*
X121004659Y-132334659D01*
X120875078Y-132441004D01*
X120875076Y-132441005D01*
X120727242Y-132520024D01*
X120566823Y-132568687D01*
X120441804Y-132581000D01*
X119558196Y-132581000D01*
X119433177Y-132568687D01*
X119272758Y-132520024D01*
X119124924Y-132441005D01*
X119124922Y-132441004D01*
X118995341Y-132334659D01*
X118888996Y-132205078D01*
X118856268Y-132143848D01*
X118809976Y-132057242D01*
X118761313Y-131896823D01*
X118744883Y-131730000D01*
X118761313Y-131563177D01*
X118809976Y-131402758D01*
X118888995Y-131254924D01*
X118888996Y-131254922D01*
X118995341Y-131125341D01*
X119124922Y-131018996D01*
X119140094Y-131010886D01*
X119272758Y-130939976D01*
X119433177Y-130891313D01*
X119558196Y-130879000D01*
X120441804Y-130879000D01*
X120566823Y-130891313D01*
X120566823Y-130891313D01*
G37*
G36*
X146238205Y-129302461D02*
G01*
X146356153Y-129325922D01*
X146392566Y-129341005D01*
X146578359Y-129417963D01*
X146778342Y-129551587D01*
X146948413Y-129721658D01*
X147082037Y-129921641D01*
X147135953Y-130051806D01*
X147174078Y-130143847D01*
X147221000Y-130379742D01*
X147221000Y-130620258D01*
X147174078Y-130856153D01*
X147139357Y-130939975D01*
X147082037Y-131078359D01*
X146948413Y-131278342D01*
X146778342Y-131448413D01*
X146578359Y-131582037D01*
X146448194Y-131635953D01*
X146356153Y-131674078D01*
X146120259Y-131721000D01*
X145879741Y-131721000D01*
X145643847Y-131674078D01*
X145551806Y-131635953D01*
X145421641Y-131582037D01*
X145221658Y-131448413D01*
X145051587Y-131278342D01*
X144917963Y-131078359D01*
X144860643Y-130939975D01*
X144825922Y-130856153D01*
X144779000Y-130620258D01*
X144779000Y-130379742D01*
X144825922Y-130143847D01*
X144864047Y-130051806D01*
X144917963Y-129921641D01*
X145051587Y-129721658D01*
X145221658Y-129551587D01*
X145421641Y-129417963D01*
X145607434Y-129341005D01*
X145643847Y-129325922D01*
X145761795Y-129302461D01*
X145879741Y-129279000D01*
X146120259Y-129279000D01*
X146238205Y-129302461D01*
X146238205Y-129302461D01*
G37*
G36*
X120766823Y-127791313D02*
G01*
X120927242Y-127839976D01*
X120992909Y-127875076D01*
X121075078Y-127918996D01*
X121204659Y-128025341D01*
X121311004Y-128154922D01*
X121311005Y-128154924D01*
X121390024Y-128302758D01*
X121390025Y-128302761D01*
X121399083Y-128332620D01*
X121438687Y-128463177D01*
X121455117Y-128630000D01*
X121438687Y-128796823D01*
X121390024Y-128957242D01*
X121319114Y-129089906D01*
X121311004Y-129105078D01*
X121204659Y-129234659D01*
X121075078Y-129341004D01*
X121075076Y-129341005D01*
X120927242Y-129420024D01*
X120766823Y-129468687D01*
X120641804Y-129481000D01*
X119358196Y-129481000D01*
X119233177Y-129468687D01*
X119072758Y-129420024D01*
X118924924Y-129341005D01*
X118924922Y-129341004D01*
X118795341Y-129234659D01*
X118688996Y-129105078D01*
X118680886Y-129089906D01*
X118609976Y-128957242D01*
X118561313Y-128796823D01*
X118544883Y-128630000D01*
X118561313Y-128463177D01*
X118600917Y-128332620D01*
X118609975Y-128302761D01*
X118609976Y-128302758D01*
X118688995Y-128154924D01*
X118688996Y-128154922D01*
X118795341Y-128025341D01*
X118924922Y-127918996D01*
X119007091Y-127875076D01*
X119072758Y-127839976D01*
X119233177Y-127791313D01*
X119358196Y-127779000D01*
X120641804Y-127779000D01*
X120766823Y-127791313D01*
X120766823Y-127791313D01*
G37*
G36*
X54238205Y-126302461D02*
G01*
X54356153Y-126325922D01*
X54434071Y-126358197D01*
X54578359Y-126417963D01*
X54778342Y-126551587D01*
X54948413Y-126721658D01*
X55082037Y-126921641D01*
X55089397Y-126939410D01*
X55174078Y-127143847D01*
X55221000Y-127379742D01*
X55221000Y-127620258D01*
X55174078Y-127856153D01*
X55166239Y-127875078D01*
X55082037Y-128078359D01*
X54948413Y-128278342D01*
X54778342Y-128448413D01*
X54578359Y-128582037D01*
X54462566Y-128630000D01*
X54356153Y-128674078D01*
X54120259Y-128721000D01*
X53879741Y-128721000D01*
X53643847Y-128674078D01*
X53537434Y-128630000D01*
X53421641Y-128582037D01*
X53221658Y-128448413D01*
X53051587Y-128278342D01*
X52917963Y-128078359D01*
X52833761Y-127875078D01*
X52825922Y-127856153D01*
X52779000Y-127620258D01*
X52779000Y-127379742D01*
X52825922Y-127143847D01*
X52910603Y-126939410D01*
X52917963Y-126921641D01*
X53051587Y-126721658D01*
X53221658Y-126551587D01*
X53421641Y-126417963D01*
X53565929Y-126358197D01*
X53643847Y-126325922D01*
X53761795Y-126302461D01*
X53879741Y-126279000D01*
X54120259Y-126279000D01*
X54238205Y-126302461D01*
X54238205Y-126302461D01*
G37*
G36*
X83546822Y-125561313D02*
G01*
X83707241Y-125609976D01*
X83855077Y-125688995D01*
X83967024Y-125780868D01*
X83984659Y-125795341D01*
X84091004Y-125924922D01*
X84091005Y-125924924D01*
X84170024Y-126072758D01*
X84218687Y-126233177D01*
X84231000Y-126358196D01*
X84231000Y-127641804D01*
X84218687Y-127766823D01*
X84170024Y-127927242D01*
X84117589Y-128025341D01*
X84091004Y-128075078D01*
X83984659Y-128204659D01*
X83855078Y-128311004D01*
X83855076Y-128311005D01*
X83707242Y-128390024D01*
X83546823Y-128438687D01*
X83380000Y-128455117D01*
X83213178Y-128438687D01*
X83052759Y-128390024D01*
X82904925Y-128311005D01*
X82904923Y-128311004D01*
X82775342Y-128204659D01*
X82668997Y-128075078D01*
X82642412Y-128025341D01*
X82589977Y-127927242D01*
X82541314Y-127766823D01*
X82529001Y-127641804D01*
X82529000Y-126358197D01*
X82541313Y-126233178D01*
X82589976Y-126072759D01*
X82668995Y-125924923D01*
X82775341Y-125795341D01*
X82836824Y-125744883D01*
X82904922Y-125688996D01*
X82920310Y-125680771D01*
X83052758Y-125609976D01*
X83213177Y-125561313D01*
X83380000Y-125544883D01*
X83546822Y-125561313D01*
X83546822Y-125561313D01*
G37*
G36*
X75237022Y-125560590D02*
G01*
X75337681Y-125591125D01*
X75388012Y-125606392D01*
X75527164Y-125680771D01*
X75649133Y-125780867D01*
X75710917Y-125856152D01*
X75749229Y-125902835D01*
X75823608Y-126041987D01*
X75831141Y-126066822D01*
X75869410Y-126192977D01*
X75881000Y-126310655D01*
X75881000Y-127689345D01*
X75869410Y-127807023D01*
X75848766Y-127875076D01*
X75823608Y-127958013D01*
X75749229Y-128097165D01*
X75649133Y-128219133D01*
X75527165Y-128319229D01*
X75388013Y-128393608D01*
X75337682Y-128408875D01*
X75237023Y-128439410D01*
X75080000Y-128454875D01*
X74922978Y-128439410D01*
X74822319Y-128408875D01*
X74771988Y-128393608D01*
X74632836Y-128319229D01*
X74510868Y-128219133D01*
X74410772Y-128097165D01*
X74336393Y-127958013D01*
X74311235Y-127875076D01*
X74290591Y-127807023D01*
X74279001Y-127689345D01*
X74279000Y-126310656D01*
X74290590Y-126192978D01*
X74336392Y-126041989D01*
X74336392Y-126041988D01*
X74410771Y-125902836D01*
X74422130Y-125888995D01*
X74510867Y-125780867D01*
X74632835Y-125680771D01*
X74771987Y-125606392D01*
X74822318Y-125591125D01*
X74922977Y-125560590D01*
X75080000Y-125545125D01*
X75237022Y-125560590D01*
X75237022Y-125560590D01*
G37*
G36*
X86646822Y-125761313D02*
G01*
X86807241Y-125809976D01*
X86955077Y-125888995D01*
X87019423Y-125941803D01*
X87084659Y-125995341D01*
X87191004Y-126124922D01*
X87191005Y-126124924D01*
X87270024Y-126272758D01*
X87318687Y-126433177D01*
X87331000Y-126558196D01*
X87331000Y-127441803D01*
X87318687Y-127566822D01*
X87270024Y-127727242D01*
X87227381Y-127807021D01*
X87191004Y-127875078D01*
X87084659Y-128004659D01*
X86955078Y-128111004D01*
X86955076Y-128111005D01*
X86807242Y-128190024D01*
X86646823Y-128238687D01*
X86480000Y-128255117D01*
X86313178Y-128238687D01*
X86152759Y-128190024D01*
X86004925Y-128111005D01*
X86004923Y-128111004D01*
X85875342Y-128004659D01*
X85768997Y-127875078D01*
X85732620Y-127807021D01*
X85689977Y-127727242D01*
X85641314Y-127566823D01*
X85629000Y-127441803D01*
X85629000Y-126558197D01*
X85641313Y-126433178D01*
X85689976Y-126272759D01*
X85768995Y-126124923D01*
X85875341Y-125995341D01*
X85961144Y-125924924D01*
X86004922Y-125888996D01*
X86066369Y-125856152D01*
X86152758Y-125809976D01*
X86313177Y-125761313D01*
X86480000Y-125744883D01*
X86646822Y-125761313D01*
X86646822Y-125761313D01*
G37*
G36*
X103546822Y-124061313D02*
G01*
X103707241Y-124109976D01*
X103855077Y-124188995D01*
X103967024Y-124280868D01*
X103984659Y-124295341D01*
X104091004Y-124424922D01*
X104091005Y-124424924D01*
X104170024Y-124572758D01*
X104218687Y-124733177D01*
X104231000Y-124858196D01*
X104231000Y-126141804D01*
X104218687Y-126266823D01*
X104185848Y-126375078D01*
X104172839Y-126417964D01*
X104170024Y-126427242D01*
X104103560Y-126551587D01*
X104091004Y-126575078D01*
X103984659Y-126704659D01*
X103855078Y-126811004D01*
X103855076Y-126811005D01*
X103707242Y-126890024D01*
X103546823Y-126938687D01*
X103380000Y-126955117D01*
X103213178Y-126938687D01*
X103052759Y-126890024D01*
X102904925Y-126811005D01*
X102904923Y-126811004D01*
X102775342Y-126704659D01*
X102668997Y-126575078D01*
X102656441Y-126551587D01*
X102589977Y-126427242D01*
X102587163Y-126417964D01*
X102574153Y-126375078D01*
X102541314Y-126266823D01*
X102529001Y-126141804D01*
X102529000Y-124858197D01*
X102541313Y-124733178D01*
X102589976Y-124572759D01*
X102668995Y-124424923D01*
X102775341Y-124295341D01*
X102792978Y-124280867D01*
X102904922Y-124188996D01*
X102920310Y-124180771D01*
X103052758Y-124109976D01*
X103213177Y-124061313D01*
X103380000Y-124044883D01*
X103546822Y-124061313D01*
X103546822Y-124061313D01*
G37*
G36*
X95237022Y-124060590D02*
G01*
X95337681Y-124091125D01*
X95388012Y-124106392D01*
X95527164Y-124180771D01*
X95649133Y-124280867D01*
X95686108Y-124325922D01*
X95749229Y-124402835D01*
X95823608Y-124541987D01*
X95826520Y-124551587D01*
X95869410Y-124692977D01*
X95881000Y-124810655D01*
X95881000Y-126189345D01*
X95869410Y-126307023D01*
X95853885Y-126358201D01*
X95823608Y-126458013D01*
X95749229Y-126597165D01*
X95649133Y-126719133D01*
X95527165Y-126819229D01*
X95388013Y-126893608D01*
X95337682Y-126908875D01*
X95237023Y-126939410D01*
X95080000Y-126954875D01*
X94922978Y-126939410D01*
X94822319Y-126908875D01*
X94771988Y-126893608D01*
X94632836Y-126819229D01*
X94510868Y-126719133D01*
X94410772Y-126597165D01*
X94336393Y-126458013D01*
X94306116Y-126358201D01*
X94290591Y-126307023D01*
X94279001Y-126189345D01*
X94279000Y-124810656D01*
X94290590Y-124692978D01*
X94336392Y-124541989D01*
X94336392Y-124541988D01*
X94410771Y-124402836D01*
X94473892Y-124325922D01*
X94510867Y-124280867D01*
X94632835Y-124180771D01*
X94771987Y-124106392D01*
X94822318Y-124091125D01*
X94922977Y-124060590D01*
X95080000Y-124045125D01*
X95237022Y-124060590D01*
X95237022Y-124060590D01*
G37*
G36*
X106646822Y-124261313D02*
G01*
X106807241Y-124309976D01*
X106955077Y-124388995D01*
X107084659Y-124495341D01*
X107191004Y-124624922D01*
X107191005Y-124624924D01*
X107270024Y-124772758D01*
X107318687Y-124933177D01*
X107331000Y-125058196D01*
X107331000Y-125941803D01*
X107318687Y-126066822D01*
X107270024Y-126227242D01*
X107227381Y-126307021D01*
X107191004Y-126375078D01*
X107084659Y-126504659D01*
X106955078Y-126611004D01*
X106955076Y-126611005D01*
X106807242Y-126690024D01*
X106646823Y-126738687D01*
X106480000Y-126755117D01*
X106313178Y-126738687D01*
X106152759Y-126690024D01*
X106004925Y-126611005D01*
X106004923Y-126611004D01*
X105875342Y-126504659D01*
X105768997Y-126375078D01*
X105732620Y-126307021D01*
X105689977Y-126227242D01*
X105641314Y-126066823D01*
X105629000Y-125941803D01*
X105629000Y-125058197D01*
X105641313Y-124933178D01*
X105689976Y-124772759D01*
X105768995Y-124624923D01*
X105875341Y-124495341D01*
X105961144Y-124424924D01*
X106004922Y-124388996D01*
X106020094Y-124380886D01*
X106152758Y-124309976D01*
X106313177Y-124261313D01*
X106480000Y-124244883D01*
X106646822Y-124261313D01*
X106646822Y-124261313D01*
G37*
G36*
X146202411Y-124295341D02*
G01*
X146356153Y-124325922D01*
X146448194Y-124364047D01*
X146578359Y-124417963D01*
X146778342Y-124551587D01*
X146948413Y-124721658D01*
X147082037Y-124921641D01*
X147135953Y-125051806D01*
X147138602Y-125058200D01*
X147174078Y-125143848D01*
X147221000Y-125379741D01*
X147221000Y-125620259D01*
X147207327Y-125688996D01*
X147174078Y-125856153D01*
X147138600Y-125941803D01*
X147082037Y-126078359D01*
X146948413Y-126278342D01*
X146778342Y-126448413D01*
X146578359Y-126582037D01*
X146448194Y-126635953D01*
X146356153Y-126674078D01*
X146275986Y-126690024D01*
X146120259Y-126721000D01*
X145879741Y-126721000D01*
X145724014Y-126690024D01*
X145643847Y-126674078D01*
X145551806Y-126635953D01*
X145421641Y-126582037D01*
X145221658Y-126448413D01*
X145051587Y-126278342D01*
X144917963Y-126078359D01*
X144861400Y-125941803D01*
X144825922Y-125856153D01*
X144792673Y-125688996D01*
X144779000Y-125620259D01*
X144779000Y-125379741D01*
X144825922Y-125143848D01*
X144861399Y-125058200D01*
X144864047Y-125051806D01*
X144917963Y-124921641D01*
X145051587Y-124721658D01*
X145221658Y-124551587D01*
X145421641Y-124417963D01*
X145551806Y-124364047D01*
X145643847Y-124325922D01*
X145797589Y-124295341D01*
X145879741Y-124279000D01*
X146120259Y-124279000D01*
X146202411Y-124295341D01*
X146202411Y-124295341D01*
G37*
G36*
X51496564Y-120529389D02*
G01*
X51687833Y-120608615D01*
X51687835Y-120608616D01*
X51859973Y-120723635D01*
X52006365Y-120870027D01*
X52121385Y-121042167D01*
X52200611Y-121233436D01*
X52241000Y-121436484D01*
X52241000Y-121643516D01*
X52200611Y-121846564D01*
X52155292Y-121955973D01*
X52121384Y-122037835D01*
X52006365Y-122209973D01*
X51859973Y-122356365D01*
X51687835Y-122471384D01*
X51687834Y-122471385D01*
X51687833Y-122471385D01*
X51496564Y-122550611D01*
X51293516Y-122591000D01*
X51086484Y-122591000D01*
X50883436Y-122550611D01*
X50692167Y-122471385D01*
X50692166Y-122471385D01*
X50692165Y-122471384D01*
X50520027Y-122356365D01*
X50373635Y-122209973D01*
X50258616Y-122037835D01*
X50224708Y-121955973D01*
X50179389Y-121846564D01*
X50139000Y-121643516D01*
X50139000Y-121436484D01*
X50179389Y-121233436D01*
X50258615Y-121042167D01*
X50373635Y-120870027D01*
X50520027Y-120723635D01*
X50692165Y-120608616D01*
X50692167Y-120608615D01*
X50883436Y-120529389D01*
X51086484Y-120489000D01*
X51293516Y-120489000D01*
X51496564Y-120529389D01*
X51496564Y-120529389D01*
G37*
G36*
X59116564Y-120275389D02*
G01*
X59307833Y-120354615D01*
X59307835Y-120354616D01*
X59479973Y-120469635D01*
X59626365Y-120616027D01*
X59741385Y-120788167D01*
X59820611Y-120979436D01*
X59861000Y-121182484D01*
X59861000Y-121389516D01*
X59820611Y-121592564D01*
X59799506Y-121643516D01*
X59741384Y-121783835D01*
X59626365Y-121955973D01*
X59479973Y-122102365D01*
X59307835Y-122217384D01*
X59307834Y-122217385D01*
X59307833Y-122217385D01*
X59116564Y-122296611D01*
X58913516Y-122337000D01*
X58706484Y-122337000D01*
X58503436Y-122296611D01*
X58312167Y-122217385D01*
X58312166Y-122217385D01*
X58312165Y-122217384D01*
X58140027Y-122102365D01*
X57993635Y-121955973D01*
X57878616Y-121783835D01*
X57820494Y-121643516D01*
X57799389Y-121592564D01*
X57759000Y-121389516D01*
X57759000Y-121182484D01*
X57799389Y-120979436D01*
X57878615Y-120788167D01*
X57993635Y-120616027D01*
X58140027Y-120469635D01*
X58312165Y-120354616D01*
X58312167Y-120354615D01*
X58503436Y-120275389D01*
X58706484Y-120235000D01*
X58913516Y-120235000D01*
X59116564Y-120275389D01*
X59116564Y-120275389D01*
G37*
G36*
X120728571Y-119532863D02*
G01*
X120807023Y-119540590D01*
X120907682Y-119571125D01*
X120958013Y-119586392D01*
X121097165Y-119660771D01*
X121219133Y-119760867D01*
X121319229Y-119882835D01*
X121393608Y-120021987D01*
X121393608Y-120021988D01*
X121439410Y-120172977D01*
X121454875Y-120330000D01*
X121439410Y-120487023D01*
X121438810Y-120489000D01*
X121393608Y-120638013D01*
X121319229Y-120777165D01*
X121219133Y-120899133D01*
X121097165Y-120999229D01*
X120958013Y-121073608D01*
X120907682Y-121088875D01*
X120807023Y-121119410D01*
X120728571Y-121127137D01*
X120689346Y-121131000D01*
X119310654Y-121131000D01*
X119271429Y-121127137D01*
X119192977Y-121119410D01*
X119092318Y-121088875D01*
X119041987Y-121073608D01*
X118902835Y-120999229D01*
X118780867Y-120899133D01*
X118680771Y-120777165D01*
X118606392Y-120638013D01*
X118561190Y-120489000D01*
X118560590Y-120487023D01*
X118545125Y-120330000D01*
X118560590Y-120172977D01*
X118606392Y-120021988D01*
X118606392Y-120021987D01*
X118680771Y-119882835D01*
X118780867Y-119760867D01*
X118902835Y-119660771D01*
X119041987Y-119586392D01*
X119092318Y-119571125D01*
X119192977Y-119540590D01*
X119271429Y-119532863D01*
X119310654Y-119529000D01*
X120689346Y-119529000D01*
X120728571Y-119532863D01*
X120728571Y-119532863D01*
G37*
G36*
X76786823Y-116561313D02*
G01*
X76866226Y-116585400D01*
X76942756Y-116608615D01*
X76947242Y-116609976D01*
X77023863Y-116650931D01*
X77095078Y-116688996D01*
X77224659Y-116795341D01*
X77331004Y-116924922D01*
X77331005Y-116924924D01*
X77410024Y-117072758D01*
X77458687Y-117233177D01*
X77471000Y-117358196D01*
X77471000Y-118641804D01*
X77458687Y-118766823D01*
X77410024Y-118927242D01*
X77339114Y-119059906D01*
X77331004Y-119075078D01*
X77301520Y-119111004D01*
X77224659Y-119204659D01*
X77095077Y-119311005D01*
X76947241Y-119390024D01*
X76786822Y-119438687D01*
X76620000Y-119455117D01*
X76453177Y-119438687D01*
X76292758Y-119390024D01*
X76144924Y-119311005D01*
X76144922Y-119311004D01*
X76015341Y-119204659D01*
X75938480Y-119111004D01*
X75908995Y-119075077D01*
X75829976Y-118927241D01*
X75781313Y-118766822D01*
X75769000Y-118641803D01*
X75769001Y-117358196D01*
X75781314Y-117233177D01*
X75829977Y-117072758D01*
X75908996Y-116924924D01*
X75908997Y-116924922D01*
X76015342Y-116795341D01*
X76144923Y-116688996D01*
X76216138Y-116650931D01*
X76292759Y-116609976D01*
X76297246Y-116608615D01*
X76373775Y-116585400D01*
X76453178Y-116561313D01*
X76620000Y-116544883D01*
X76786823Y-116561313D01*
X76786823Y-116561313D01*
G37*
G36*
X85077023Y-116560590D02*
G01*
X85177682Y-116591125D01*
X85228013Y-116606392D01*
X85367165Y-116680771D01*
X85489133Y-116780867D01*
X85589229Y-116902835D01*
X85663608Y-117041987D01*
X85672942Y-117072758D01*
X85709410Y-117192977D01*
X85721000Y-117310655D01*
X85721000Y-118689345D01*
X85709410Y-118807023D01*
X85688766Y-118875076D01*
X85663608Y-118958013D01*
X85638675Y-119004659D01*
X85589229Y-119097165D01*
X85489133Y-119219133D01*
X85377186Y-119311004D01*
X85367164Y-119319229D01*
X85228012Y-119393608D01*
X85177681Y-119408875D01*
X85077022Y-119439410D01*
X84920000Y-119454875D01*
X84762977Y-119439410D01*
X84662318Y-119408875D01*
X84611987Y-119393608D01*
X84472835Y-119319229D01*
X84462813Y-119311004D01*
X84350867Y-119219133D01*
X84250771Y-119097164D01*
X84176393Y-118958013D01*
X84176392Y-118958012D01*
X84151234Y-118875076D01*
X84130590Y-118807022D01*
X84119000Y-118689344D01*
X84119001Y-117310655D01*
X84130591Y-117192977D01*
X84167059Y-117072758D01*
X84176393Y-117041987D01*
X84250772Y-116902835D01*
X84350868Y-116780867D01*
X84472836Y-116680771D01*
X84611988Y-116606392D01*
X84662319Y-116591125D01*
X84762978Y-116560590D01*
X84920000Y-116545125D01*
X85077023Y-116560590D01*
X85077023Y-116560590D01*
G37*
G36*
X73686823Y-116761313D02*
G01*
X73847242Y-116809976D01*
X73922404Y-116850151D01*
X73995078Y-116888996D01*
X74124659Y-116995341D01*
X74231004Y-117124922D01*
X74231005Y-117124924D01*
X74310024Y-117272758D01*
X74358687Y-117433178D01*
X74371000Y-117558197D01*
X74371000Y-118441804D01*
X74358687Y-118566823D01*
X74310024Y-118727242D01*
X74267380Y-118807023D01*
X74231004Y-118875078D01*
X74124659Y-119004659D01*
X73995077Y-119111005D01*
X73847241Y-119190024D01*
X73686822Y-119238687D01*
X73520000Y-119255117D01*
X73353177Y-119238687D01*
X73192758Y-119190024D01*
X73044924Y-119111005D01*
X73044922Y-119111004D01*
X72915341Y-119004659D01*
X72808995Y-118875077D01*
X72729976Y-118727241D01*
X72681313Y-118566822D01*
X72669000Y-118441803D01*
X72669000Y-117558197D01*
X72681314Y-117433177D01*
X72729977Y-117272758D01*
X72808996Y-117124924D01*
X72808997Y-117124922D01*
X72915342Y-116995341D01*
X73044923Y-116888996D01*
X73117597Y-116850151D01*
X73192759Y-116809976D01*
X73353178Y-116761313D01*
X73520000Y-116744883D01*
X73686823Y-116761313D01*
X73686823Y-116761313D01*
G37*
G36*
X149116564Y-116529389D02*
G01*
X149302466Y-116606392D01*
X149307835Y-116608616D01*
X149479973Y-116723635D01*
X149626365Y-116870027D01*
X149741266Y-117041988D01*
X149741385Y-117042167D01*
X149820611Y-117233436D01*
X149861000Y-117436484D01*
X149861000Y-117643516D01*
X149820611Y-117846564D01*
X149818485Y-117851696D01*
X149741384Y-118037835D01*
X149626365Y-118209973D01*
X149479973Y-118356365D01*
X149307835Y-118471384D01*
X149307834Y-118471385D01*
X149307833Y-118471385D01*
X149116564Y-118550611D01*
X148913516Y-118591000D01*
X148706484Y-118591000D01*
X148503436Y-118550611D01*
X148312167Y-118471385D01*
X148312166Y-118471385D01*
X148312165Y-118471384D01*
X148140027Y-118356365D01*
X147993635Y-118209973D01*
X147878616Y-118037835D01*
X147801515Y-117851696D01*
X147799389Y-117846564D01*
X147759000Y-117643516D01*
X147759000Y-117436484D01*
X147799389Y-117233436D01*
X147878615Y-117042167D01*
X147878735Y-117041988D01*
X147993635Y-116870027D01*
X148140027Y-116723635D01*
X148312165Y-116608616D01*
X148317534Y-116606392D01*
X148503436Y-116529389D01*
X148706484Y-116489000D01*
X148913516Y-116489000D01*
X149116564Y-116529389D01*
X149116564Y-116529389D01*
G37*
G36*
X67414600Y-118414600D02*
G01*
X65585400Y-118414600D01*
X65585400Y-116585400D01*
X67414600Y-116585400D01*
X67414600Y-118414600D01*
X67414600Y-118414600D01*
G37*
G36*
X64139294Y-116598633D02*
G01*
X64311695Y-116650931D01*
X64470583Y-116735858D01*
X64609849Y-116850151D01*
X64724142Y-116989417D01*
X64809069Y-117148305D01*
X64861367Y-117320706D01*
X64879025Y-117500000D01*
X64861367Y-117679294D01*
X64809069Y-117851695D01*
X64724142Y-118010583D01*
X64609849Y-118149849D01*
X64470583Y-118264142D01*
X64311695Y-118349069D01*
X64139294Y-118401367D01*
X64004931Y-118414600D01*
X63915069Y-118414600D01*
X63780706Y-118401367D01*
X63608305Y-118349069D01*
X63449417Y-118264142D01*
X63310151Y-118149849D01*
X63195858Y-118010583D01*
X63110931Y-117851695D01*
X63058633Y-117679294D01*
X63040975Y-117500000D01*
X63058633Y-117320706D01*
X63110931Y-117148305D01*
X63195858Y-116989417D01*
X63310151Y-116850151D01*
X63449417Y-116735858D01*
X63608305Y-116650931D01*
X63780706Y-116598633D01*
X63915069Y-116585400D01*
X64004931Y-116585400D01*
X64139294Y-116598633D01*
X64139294Y-116598633D01*
G37*
G36*
X141496564Y-116275389D02*
G01*
X141687833Y-116354615D01*
X141687835Y-116354616D01*
X141859973Y-116469635D01*
X142006365Y-116616027D01*
X142116508Y-116780867D01*
X142121385Y-116788167D01*
X142200611Y-116979436D01*
X142241000Y-117182484D01*
X142241000Y-117389516D01*
X142200611Y-117592564D01*
X142164686Y-117679294D01*
X142121384Y-117783835D01*
X142006365Y-117955973D01*
X141859973Y-118102365D01*
X141687835Y-118217384D01*
X141687834Y-118217385D01*
X141687833Y-118217385D01*
X141496564Y-118296611D01*
X141293516Y-118337000D01*
X141086484Y-118337000D01*
X140883436Y-118296611D01*
X140692167Y-118217385D01*
X140692166Y-118217385D01*
X140692165Y-118217384D01*
X140520027Y-118102365D01*
X140373635Y-117955973D01*
X140258616Y-117783835D01*
X140215314Y-117679294D01*
X140179389Y-117592564D01*
X140139000Y-117389516D01*
X140139000Y-117182484D01*
X140179389Y-116979436D01*
X140258615Y-116788167D01*
X140263493Y-116780867D01*
X140373635Y-116616027D01*
X140520027Y-116469635D01*
X140692165Y-116354616D01*
X140692167Y-116354615D01*
X140883436Y-116275389D01*
X141086484Y-116235000D01*
X141293516Y-116235000D01*
X141496564Y-116275389D01*
X141496564Y-116275389D01*
G37*
G36*
X59116564Y-115703389D02*
G01*
X59307833Y-115782615D01*
X59307835Y-115782616D01*
X59425694Y-115861367D01*
X59479973Y-115897635D01*
X59626365Y-116044027D01*
X59741385Y-116216167D01*
X59820611Y-116407436D01*
X59861000Y-116610484D01*
X59861000Y-116817516D01*
X59820611Y-117020564D01*
X59741385Y-117211833D01*
X59741384Y-117211835D01*
X59626365Y-117383973D01*
X59479973Y-117530365D01*
X59307835Y-117645384D01*
X59307834Y-117645385D01*
X59307833Y-117645385D01*
X59116564Y-117724611D01*
X58913516Y-117765000D01*
X58706484Y-117765000D01*
X58503436Y-117724611D01*
X58312167Y-117645385D01*
X58312166Y-117645385D01*
X58312165Y-117645384D01*
X58140027Y-117530365D01*
X57993635Y-117383973D01*
X57878616Y-117211835D01*
X57878615Y-117211833D01*
X57799389Y-117020564D01*
X57759000Y-116817516D01*
X57759000Y-116610484D01*
X57799389Y-116407436D01*
X57878615Y-116216167D01*
X57993635Y-116044027D01*
X58140027Y-115897635D01*
X58194306Y-115861367D01*
X58312165Y-115782616D01*
X58312167Y-115782615D01*
X58503436Y-115703389D01*
X58706484Y-115663000D01*
X58913516Y-115663000D01*
X59116564Y-115703389D01*
X59116564Y-115703389D01*
G37*
G36*
X51496564Y-115449389D02*
G01*
X51687833Y-115528615D01*
X51687835Y-115528616D01*
X51809409Y-115609849D01*
X51859973Y-115643635D01*
X52006365Y-115790027D01*
X52121385Y-115962167D01*
X52200611Y-116153436D01*
X52241000Y-116356484D01*
X52241000Y-116563516D01*
X52200611Y-116766564D01*
X52149898Y-116888996D01*
X52121384Y-116957835D01*
X52006365Y-117129973D01*
X51859973Y-117276365D01*
X51687835Y-117391384D01*
X51687834Y-117391385D01*
X51687833Y-117391385D01*
X51496564Y-117470611D01*
X51293516Y-117511000D01*
X51086484Y-117511000D01*
X50883436Y-117470611D01*
X50692167Y-117391385D01*
X50692166Y-117391385D01*
X50692165Y-117391384D01*
X50520027Y-117276365D01*
X50373635Y-117129973D01*
X50258616Y-116957835D01*
X50230102Y-116888996D01*
X50179389Y-116766564D01*
X50139000Y-116563516D01*
X50139000Y-116356484D01*
X50179389Y-116153436D01*
X50258615Y-115962167D01*
X50373635Y-115790027D01*
X50520027Y-115643635D01*
X50570591Y-115609849D01*
X50692165Y-115528616D01*
X50692167Y-115528615D01*
X50883436Y-115449389D01*
X51086484Y-115409000D01*
X51293516Y-115409000D01*
X51496564Y-115449389D01*
X51496564Y-115449389D01*
G37*
G36*
X64139294Y-114058633D02*
G01*
X64311695Y-114110931D01*
X64470583Y-114195858D01*
X64609849Y-114310151D01*
X64724142Y-114449417D01*
X64809069Y-114608305D01*
X64861367Y-114780706D01*
X64879025Y-114960000D01*
X64861367Y-115139294D01*
X64809069Y-115311695D01*
X64724142Y-115470583D01*
X64609849Y-115609849D01*
X64470583Y-115724142D01*
X64311695Y-115809069D01*
X64139294Y-115861367D01*
X64004931Y-115874600D01*
X63915069Y-115874600D01*
X63780706Y-115861367D01*
X63608305Y-115809069D01*
X63449417Y-115724142D01*
X63310151Y-115609849D01*
X63195858Y-115470583D01*
X63110931Y-115311695D01*
X63058633Y-115139294D01*
X63040975Y-114960000D01*
X63058633Y-114780706D01*
X63110931Y-114608305D01*
X63195858Y-114449417D01*
X63310151Y-114310151D01*
X63449417Y-114195858D01*
X63608305Y-114110931D01*
X63780706Y-114058633D01*
X63915069Y-114045400D01*
X64004931Y-114045400D01*
X64139294Y-114058633D01*
X64139294Y-114058633D01*
G37*
G36*
X66679294Y-114058633D02*
G01*
X66851695Y-114110931D01*
X67010583Y-114195858D01*
X67149849Y-114310151D01*
X67264142Y-114449417D01*
X67349069Y-114608305D01*
X67401367Y-114780706D01*
X67419025Y-114960000D01*
X67401367Y-115139294D01*
X67349069Y-115311695D01*
X67264142Y-115470583D01*
X67149849Y-115609849D01*
X67010583Y-115724142D01*
X66851695Y-115809069D01*
X66679294Y-115861367D01*
X66544931Y-115874600D01*
X66455069Y-115874600D01*
X66320706Y-115861367D01*
X66148305Y-115809069D01*
X65989417Y-115724142D01*
X65850151Y-115609849D01*
X65735858Y-115470583D01*
X65650931Y-115311695D01*
X65598633Y-115139294D01*
X65580975Y-114960000D01*
X65598633Y-114780706D01*
X65650931Y-114608305D01*
X65735858Y-114449417D01*
X65850151Y-114310151D01*
X65989417Y-114195858D01*
X66148305Y-114110931D01*
X66320706Y-114058633D01*
X66455069Y-114045400D01*
X66544931Y-114045400D01*
X66679294Y-114058633D01*
X66679294Y-114058633D01*
G37*
G36*
X103546822Y-112561313D02*
G01*
X103707241Y-112609976D01*
X103855077Y-112688995D01*
X103967024Y-112780868D01*
X103984659Y-112795341D01*
X104091004Y-112924922D01*
X104091005Y-112924924D01*
X104170024Y-113072758D01*
X104218687Y-113233177D01*
X104231000Y-113358196D01*
X104231000Y-114641804D01*
X104218687Y-114766823D01*
X104170024Y-114927242D01*
X104099114Y-115059906D01*
X104091004Y-115075078D01*
X103984659Y-115204659D01*
X103855078Y-115311004D01*
X103855076Y-115311005D01*
X103707242Y-115390024D01*
X103546823Y-115438687D01*
X103380000Y-115455117D01*
X103213178Y-115438687D01*
X103052759Y-115390024D01*
X102904925Y-115311005D01*
X102904923Y-115311004D01*
X102775342Y-115204659D01*
X102668997Y-115075078D01*
X102660887Y-115059906D01*
X102589977Y-114927242D01*
X102541314Y-114766823D01*
X102529001Y-114641804D01*
X102529000Y-113358197D01*
X102541313Y-113233178D01*
X102589976Y-113072759D01*
X102668995Y-112924923D01*
X102775341Y-112795341D01*
X102792978Y-112780867D01*
X102904922Y-112688996D01*
X102920310Y-112680771D01*
X103052758Y-112609976D01*
X103213177Y-112561313D01*
X103380000Y-112544883D01*
X103546822Y-112561313D01*
X103546822Y-112561313D01*
G37*
G36*
X95237022Y-112560590D02*
G01*
X95317824Y-112585101D01*
X95388012Y-112606392D01*
X95527164Y-112680771D01*
X95649133Y-112780867D01*
X95737871Y-112888995D01*
X95749229Y-112902835D01*
X95823608Y-113041987D01*
X95832060Y-113069849D01*
X95869410Y-113192977D01*
X95881000Y-113310655D01*
X95881000Y-114689345D01*
X95869410Y-114807023D01*
X95848766Y-114875076D01*
X95823608Y-114958013D01*
X95749229Y-115097165D01*
X95649133Y-115219133D01*
X95527165Y-115319229D01*
X95388013Y-115393608D01*
X95337682Y-115408875D01*
X95237023Y-115439410D01*
X95080000Y-115454875D01*
X94922978Y-115439410D01*
X94822319Y-115408875D01*
X94771988Y-115393608D01*
X94632836Y-115319229D01*
X94510868Y-115219133D01*
X94410772Y-115097165D01*
X94336393Y-114958013D01*
X94311235Y-114875076D01*
X94290591Y-114807023D01*
X94279001Y-114689345D01*
X94279000Y-113310656D01*
X94290590Y-113192978D01*
X94336392Y-113041989D01*
X94336392Y-113041988D01*
X94410771Y-112902836D01*
X94422130Y-112888995D01*
X94510867Y-112780867D01*
X94632835Y-112680771D01*
X94771987Y-112606392D01*
X94842175Y-112585101D01*
X94922977Y-112560590D01*
X95080000Y-112545125D01*
X95237022Y-112560590D01*
X95237022Y-112560590D01*
G37*
G36*
X106646822Y-112761313D02*
G01*
X106807241Y-112809976D01*
X106955077Y-112888995D01*
X107038958Y-112957835D01*
X107084659Y-112995341D01*
X107191004Y-113124922D01*
X107191005Y-113124924D01*
X107270024Y-113272758D01*
X107318687Y-113433177D01*
X107331000Y-113558196D01*
X107331000Y-114441803D01*
X107318687Y-114566822D01*
X107270024Y-114727242D01*
X107248867Y-114766823D01*
X107191004Y-114875078D01*
X107084659Y-115004659D01*
X106955078Y-115111004D01*
X106955076Y-115111005D01*
X106807242Y-115190024D01*
X106646823Y-115238687D01*
X106480000Y-115255117D01*
X106313178Y-115238687D01*
X106152759Y-115190024D01*
X106004925Y-115111005D01*
X106004923Y-115111004D01*
X105875342Y-115004659D01*
X105768997Y-114875078D01*
X105711134Y-114766823D01*
X105689977Y-114727242D01*
X105641314Y-114566823D01*
X105629000Y-114441803D01*
X105629000Y-113558197D01*
X105641313Y-113433178D01*
X105689976Y-113272759D01*
X105768995Y-113124923D01*
X105875341Y-112995341D01*
X105921042Y-112957835D01*
X106004922Y-112888996D01*
X106020094Y-112880886D01*
X106152758Y-112809976D01*
X106313177Y-112761313D01*
X106480000Y-112744883D01*
X106646822Y-112761313D01*
X106646822Y-112761313D01*
G37*
G36*
X58588674Y-113403465D02*
G01*
X58626367Y-113414899D01*
X58661103Y-113433466D01*
X58691548Y-113458452D01*
X58716534Y-113488897D01*
X58735101Y-113523633D01*
X58746535Y-113561326D01*
X58751000Y-113606661D01*
X58751000Y-114443339D01*
X58746535Y-114488674D01*
X58735101Y-114526367D01*
X58716534Y-114561103D01*
X58691548Y-114591548D01*
X58661103Y-114616534D01*
X58626367Y-114635101D01*
X58588674Y-114646535D01*
X58543339Y-114651000D01*
X57456661Y-114651000D01*
X57411326Y-114646535D01*
X57373633Y-114635101D01*
X57338897Y-114616534D01*
X57308452Y-114591548D01*
X57283466Y-114561103D01*
X57264899Y-114526367D01*
X57253465Y-114488674D01*
X57249000Y-114443339D01*
X57249000Y-113606661D01*
X57253465Y-113561326D01*
X57264899Y-113523633D01*
X57283466Y-113488897D01*
X57308452Y-113458452D01*
X57338897Y-113433466D01*
X57373633Y-113414899D01*
X57411326Y-113403465D01*
X57456661Y-113399000D01*
X58543339Y-113399000D01*
X58588674Y-113403465D01*
X58588674Y-113403465D01*
G37*
G36*
X60588674Y-113403465D02*
G01*
X60626367Y-113414899D01*
X60661103Y-113433466D01*
X60691548Y-113458452D01*
X60716534Y-113488897D01*
X60735101Y-113523633D01*
X60746535Y-113561326D01*
X60751000Y-113606661D01*
X60751000Y-114443339D01*
X60746535Y-114488674D01*
X60735101Y-114526367D01*
X60716534Y-114561103D01*
X60691548Y-114591548D01*
X60661103Y-114616534D01*
X60626367Y-114635101D01*
X60588674Y-114646535D01*
X60543339Y-114651000D01*
X59456661Y-114651000D01*
X59411326Y-114646535D01*
X59373633Y-114635101D01*
X59338897Y-114616534D01*
X59308452Y-114591548D01*
X59283466Y-114561103D01*
X59264899Y-114526367D01*
X59253465Y-114488674D01*
X59249000Y-114443339D01*
X59249000Y-113606661D01*
X59253465Y-113561326D01*
X59264899Y-113523633D01*
X59283466Y-113488897D01*
X59308452Y-113458452D01*
X59338897Y-113433466D01*
X59373633Y-113414899D01*
X59411326Y-113403465D01*
X59456661Y-113399000D01*
X60543339Y-113399000D01*
X60588674Y-113403465D01*
X60588674Y-113403465D01*
G37*
G36*
X141496564Y-111703389D02*
G01*
X141657742Y-111770151D01*
X141687835Y-111782616D01*
X141698926Y-111790027D01*
X141859973Y-111897635D01*
X142006365Y-112044027D01*
X142121385Y-112216167D01*
X142200611Y-112407436D01*
X142241000Y-112610484D01*
X142241000Y-112817516D01*
X142200611Y-113020564D01*
X142129194Y-113192980D01*
X142121384Y-113211835D01*
X142006365Y-113383973D01*
X141859973Y-113530365D01*
X141687835Y-113645384D01*
X141687834Y-113645385D01*
X141687833Y-113645385D01*
X141496564Y-113724611D01*
X141293516Y-113765000D01*
X141086484Y-113765000D01*
X140883436Y-113724611D01*
X140692167Y-113645385D01*
X140692166Y-113645385D01*
X140692165Y-113645384D01*
X140520027Y-113530365D01*
X140373635Y-113383973D01*
X140258616Y-113211835D01*
X140250806Y-113192980D01*
X140179389Y-113020564D01*
X140139000Y-112817516D01*
X140139000Y-112610484D01*
X140179389Y-112407436D01*
X140258615Y-112216167D01*
X140373635Y-112044027D01*
X140520027Y-111897635D01*
X140681074Y-111790027D01*
X140692165Y-111782616D01*
X140722258Y-111770151D01*
X140883436Y-111703389D01*
X141086484Y-111663000D01*
X141293516Y-111663000D01*
X141496564Y-111703389D01*
X141496564Y-111703389D01*
G37*
G36*
X149116564Y-111449389D02*
G01*
X149307833Y-111528615D01*
X149307835Y-111528616D01*
X149371164Y-111570931D01*
X149479973Y-111643635D01*
X149626365Y-111790027D01*
X149741385Y-111962167D01*
X149820611Y-112153436D01*
X149861000Y-112356484D01*
X149861000Y-112563516D01*
X149820611Y-112766564D01*
X149755016Y-112924924D01*
X149741384Y-112957835D01*
X149626365Y-113129973D01*
X149479973Y-113276365D01*
X149307835Y-113391384D01*
X149307834Y-113391385D01*
X149307833Y-113391385D01*
X149116564Y-113470611D01*
X148913516Y-113511000D01*
X148706484Y-113511000D01*
X148503436Y-113470611D01*
X148312167Y-113391385D01*
X148312166Y-113391385D01*
X148312165Y-113391384D01*
X148140027Y-113276365D01*
X147993635Y-113129973D01*
X147878616Y-112957835D01*
X147864984Y-112924924D01*
X147799389Y-112766564D01*
X147759000Y-112563516D01*
X147759000Y-112356484D01*
X147799389Y-112153436D01*
X147878615Y-111962167D01*
X147993635Y-111790027D01*
X148140027Y-111643635D01*
X148248836Y-111570931D01*
X148312165Y-111528616D01*
X148312167Y-111528615D01*
X148503436Y-111449389D01*
X148706484Y-111409000D01*
X148913516Y-111409000D01*
X149116564Y-111449389D01*
X149116564Y-111449389D01*
G37*
G36*
X64139294Y-111518633D02*
G01*
X64311695Y-111570931D01*
X64470583Y-111655858D01*
X64609849Y-111770151D01*
X64724142Y-111909417D01*
X64809069Y-112068305D01*
X64861367Y-112240706D01*
X64879025Y-112420000D01*
X64861367Y-112599294D01*
X64809069Y-112771695D01*
X64724142Y-112930583D01*
X64609849Y-113069849D01*
X64470583Y-113184142D01*
X64311695Y-113269069D01*
X64139294Y-113321367D01*
X64004931Y-113334600D01*
X63915069Y-113334600D01*
X63780706Y-113321367D01*
X63608305Y-113269069D01*
X63449417Y-113184142D01*
X63310151Y-113069849D01*
X63195858Y-112930583D01*
X63110931Y-112771695D01*
X63058633Y-112599294D01*
X63040975Y-112420000D01*
X63058633Y-112240706D01*
X63110931Y-112068305D01*
X63195858Y-111909417D01*
X63310151Y-111770151D01*
X63449417Y-111655858D01*
X63608305Y-111570931D01*
X63780706Y-111518633D01*
X63915069Y-111505400D01*
X64004931Y-111505400D01*
X64139294Y-111518633D01*
X64139294Y-111518633D01*
G37*
G36*
X66679294Y-111518633D02*
G01*
X66851695Y-111570931D01*
X67010583Y-111655858D01*
X67149849Y-111770151D01*
X67264142Y-111909417D01*
X67349069Y-112068305D01*
X67401367Y-112240706D01*
X67419025Y-112420000D01*
X67401367Y-112599294D01*
X67349069Y-112771695D01*
X67264142Y-112930583D01*
X67149849Y-113069849D01*
X67010583Y-113184142D01*
X66851695Y-113269069D01*
X66679294Y-113321367D01*
X66544931Y-113334600D01*
X66455069Y-113334600D01*
X66320706Y-113321367D01*
X66148305Y-113269069D01*
X65989417Y-113184142D01*
X65850151Y-113069849D01*
X65735858Y-112930583D01*
X65650931Y-112771695D01*
X65598633Y-112599294D01*
X65580975Y-112420000D01*
X65598633Y-112240706D01*
X65650931Y-112068305D01*
X65735858Y-111909417D01*
X65850151Y-111770151D01*
X65989417Y-111655858D01*
X66148305Y-111570931D01*
X66320706Y-111518633D01*
X66455069Y-111505400D01*
X66544931Y-111505400D01*
X66679294Y-111518633D01*
X66679294Y-111518633D01*
G37*
G36*
X60588674Y-111353465D02*
G01*
X60626367Y-111364899D01*
X60661103Y-111383466D01*
X60691548Y-111408452D01*
X60716534Y-111438897D01*
X60735101Y-111473633D01*
X60746535Y-111511326D01*
X60751000Y-111556661D01*
X60751000Y-112393339D01*
X60746535Y-112438674D01*
X60735101Y-112476367D01*
X60716534Y-112511103D01*
X60691548Y-112541548D01*
X60661103Y-112566534D01*
X60626367Y-112585101D01*
X60588674Y-112596535D01*
X60543339Y-112601000D01*
X59456661Y-112601000D01*
X59411326Y-112596535D01*
X59373633Y-112585101D01*
X59338897Y-112566534D01*
X59308452Y-112541548D01*
X59283466Y-112511103D01*
X59264899Y-112476367D01*
X59253465Y-112438674D01*
X59249000Y-112393339D01*
X59249000Y-111556661D01*
X59253465Y-111511326D01*
X59264899Y-111473633D01*
X59283466Y-111438897D01*
X59308452Y-111408452D01*
X59338897Y-111383466D01*
X59373633Y-111364899D01*
X59411326Y-111353465D01*
X59456661Y-111349000D01*
X60543339Y-111349000D01*
X60588674Y-111353465D01*
X60588674Y-111353465D01*
G37*
G36*
X58588674Y-111353465D02*
G01*
X58626367Y-111364899D01*
X58661103Y-111383466D01*
X58691548Y-111408452D01*
X58716534Y-111438897D01*
X58735101Y-111473633D01*
X58746535Y-111511326D01*
X58751000Y-111556661D01*
X58751000Y-112393339D01*
X58746535Y-112438674D01*
X58735101Y-112476367D01*
X58716534Y-112511103D01*
X58691548Y-112541548D01*
X58661103Y-112566534D01*
X58626367Y-112585101D01*
X58588674Y-112596535D01*
X58543339Y-112601000D01*
X57456661Y-112601000D01*
X57411326Y-112596535D01*
X57373633Y-112585101D01*
X57338897Y-112566534D01*
X57308452Y-112541548D01*
X57283466Y-112511103D01*
X57264899Y-112476367D01*
X57253465Y-112438674D01*
X57249000Y-112393339D01*
X57249000Y-111556661D01*
X57253465Y-111511326D01*
X57264899Y-111473633D01*
X57283466Y-111438897D01*
X57308452Y-111408452D01*
X57338897Y-111383466D01*
X57373633Y-111364899D01*
X57411326Y-111353465D01*
X57456661Y-111349000D01*
X58543339Y-111349000D01*
X58588674Y-111353465D01*
X58588674Y-111353465D01*
G37*
G36*
X75509167Y-107186439D02*
G01*
X75710298Y-107247451D01*
X75895661Y-107346530D01*
X76058133Y-107479867D01*
X76118236Y-107553102D01*
X76191471Y-107642339D01*
X76244682Y-107741890D01*
X76290549Y-107827701D01*
X76351561Y-108028832D01*
X76367000Y-108185589D01*
X76367000Y-109814411D01*
X76351561Y-109971168D01*
X76290549Y-110172299D01*
X76258801Y-110231695D01*
X76191471Y-110357661D01*
X76058133Y-110520133D01*
X75895661Y-110653471D01*
X75796110Y-110706682D01*
X75710299Y-110752549D01*
X75509168Y-110813561D01*
X75300000Y-110834162D01*
X75090833Y-110813561D01*
X74889702Y-110752549D01*
X74803891Y-110706682D01*
X74704340Y-110653471D01*
X74541868Y-110520133D01*
X74408530Y-110357661D01*
X74341200Y-110231695D01*
X74309452Y-110172299D01*
X74275172Y-110059294D01*
X74248439Y-109971170D01*
X74233000Y-109814413D01*
X74233000Y-108185588D01*
X74248439Y-108028836D01*
X74248439Y-108028833D01*
X74309451Y-107827702D01*
X74408530Y-107642339D01*
X74541867Y-107479867D01*
X74615102Y-107419764D01*
X74704339Y-107346529D01*
X74803890Y-107293318D01*
X74889701Y-107247451D01*
X75090832Y-107186439D01*
X75300000Y-107165838D01*
X75509167Y-107186439D01*
X75509167Y-107186439D01*
G37*
G36*
X80209167Y-107186439D02*
G01*
X80410298Y-107247451D01*
X80595661Y-107346530D01*
X80758133Y-107479867D01*
X80818236Y-107553102D01*
X80891471Y-107642339D01*
X80944682Y-107741890D01*
X80990549Y-107827701D01*
X81051561Y-108028832D01*
X81067000Y-108185589D01*
X81067000Y-109814411D01*
X81051561Y-109971168D01*
X80990549Y-110172299D01*
X80958801Y-110231695D01*
X80891471Y-110357661D01*
X80758133Y-110520133D01*
X80595661Y-110653471D01*
X80496110Y-110706682D01*
X80410299Y-110752549D01*
X80209168Y-110813561D01*
X80000000Y-110834162D01*
X79790833Y-110813561D01*
X79589702Y-110752549D01*
X79503891Y-110706682D01*
X79404340Y-110653471D01*
X79241868Y-110520133D01*
X79108530Y-110357661D01*
X79041200Y-110231695D01*
X79009452Y-110172299D01*
X78975172Y-110059294D01*
X78948439Y-109971170D01*
X78933000Y-109814413D01*
X78933000Y-108185588D01*
X78948439Y-108028836D01*
X78948439Y-108028833D01*
X79009451Y-107827702D01*
X79108530Y-107642339D01*
X79241867Y-107479867D01*
X79315102Y-107419764D01*
X79404339Y-107346529D01*
X79503890Y-107293318D01*
X79589701Y-107247451D01*
X79790832Y-107186439D01*
X80000000Y-107165838D01*
X80209167Y-107186439D01*
X80209167Y-107186439D01*
G37*
G36*
X84909167Y-107186439D02*
G01*
X85110298Y-107247451D01*
X85295661Y-107346530D01*
X85458133Y-107479867D01*
X85518236Y-107553102D01*
X85591471Y-107642339D01*
X85644682Y-107741890D01*
X85690549Y-107827701D01*
X85751561Y-108028832D01*
X85767000Y-108185589D01*
X85767000Y-109814411D01*
X85751561Y-109971168D01*
X85690549Y-110172299D01*
X85658801Y-110231695D01*
X85591471Y-110357661D01*
X85458133Y-110520133D01*
X85295661Y-110653471D01*
X85196110Y-110706682D01*
X85110299Y-110752549D01*
X84909168Y-110813561D01*
X84700000Y-110834162D01*
X84490833Y-110813561D01*
X84289702Y-110752549D01*
X84203891Y-110706682D01*
X84104340Y-110653471D01*
X83941868Y-110520133D01*
X83808530Y-110357661D01*
X83741200Y-110231695D01*
X83709452Y-110172299D01*
X83675172Y-110059294D01*
X83648439Y-109971170D01*
X83633000Y-109814413D01*
X83633000Y-108185588D01*
X83648439Y-108028836D01*
X83648439Y-108028833D01*
X83709451Y-107827702D01*
X83808530Y-107642339D01*
X83941867Y-107479867D01*
X84015102Y-107419764D01*
X84104339Y-107346529D01*
X84203890Y-107293318D01*
X84289701Y-107247451D01*
X84490832Y-107186439D01*
X84700000Y-107165838D01*
X84909167Y-107186439D01*
X84909167Y-107186439D01*
G37*
G36*
X66679294Y-108978633D02*
G01*
X66851695Y-109030931D01*
X67010583Y-109115858D01*
X67149849Y-109230151D01*
X67264142Y-109369417D01*
X67349069Y-109528305D01*
X67401367Y-109700706D01*
X67419025Y-109880000D01*
X67401367Y-110059294D01*
X67349069Y-110231695D01*
X67264142Y-110390583D01*
X67149849Y-110529849D01*
X67010583Y-110644142D01*
X66851695Y-110729069D01*
X66679294Y-110781367D01*
X66544931Y-110794600D01*
X66455069Y-110794600D01*
X66320706Y-110781367D01*
X66148305Y-110729069D01*
X65989417Y-110644142D01*
X65850151Y-110529849D01*
X65735858Y-110390583D01*
X65650931Y-110231695D01*
X65598633Y-110059294D01*
X65580975Y-109880000D01*
X65598633Y-109700706D01*
X65650931Y-109528305D01*
X65735858Y-109369417D01*
X65850151Y-109230151D01*
X65989417Y-109115858D01*
X66148305Y-109030931D01*
X66320706Y-108978633D01*
X66455069Y-108965400D01*
X66544931Y-108965400D01*
X66679294Y-108978633D01*
X66679294Y-108978633D01*
G37*
G36*
X64139294Y-108978633D02*
G01*
X64311695Y-109030931D01*
X64470583Y-109115858D01*
X64609849Y-109230151D01*
X64724142Y-109369417D01*
X64809069Y-109528305D01*
X64861367Y-109700706D01*
X64879025Y-109880000D01*
X64861367Y-110059294D01*
X64809069Y-110231695D01*
X64724142Y-110390583D01*
X64609849Y-110529849D01*
X64470583Y-110644142D01*
X64311695Y-110729069D01*
X64139294Y-110781367D01*
X64004931Y-110794600D01*
X63915069Y-110794600D01*
X63780706Y-110781367D01*
X63608305Y-110729069D01*
X63449417Y-110644142D01*
X63310151Y-110529849D01*
X63195858Y-110390583D01*
X63110931Y-110231695D01*
X63058633Y-110059294D01*
X63040975Y-109880000D01*
X63058633Y-109700706D01*
X63110931Y-109528305D01*
X63195858Y-109369417D01*
X63310151Y-109230151D01*
X63449417Y-109115858D01*
X63608305Y-109030931D01*
X63780706Y-108978633D01*
X63915069Y-108965400D01*
X64004931Y-108965400D01*
X64139294Y-108978633D01*
X64139294Y-108978633D01*
G37*
G36*
X64139294Y-106438633D02*
G01*
X64311695Y-106490931D01*
X64470583Y-106575858D01*
X64609849Y-106690151D01*
X64724142Y-106829417D01*
X64809069Y-106988305D01*
X64861367Y-107160706D01*
X64879025Y-107340000D01*
X64861367Y-107519294D01*
X64809069Y-107691695D01*
X64724142Y-107850583D01*
X64609849Y-107989849D01*
X64470583Y-108104142D01*
X64311695Y-108189069D01*
X64139294Y-108241367D01*
X64004931Y-108254600D01*
X63915069Y-108254600D01*
X63780706Y-108241367D01*
X63608305Y-108189069D01*
X63449417Y-108104142D01*
X63310151Y-107989849D01*
X63195858Y-107850583D01*
X63110931Y-107691695D01*
X63058633Y-107519294D01*
X63040975Y-107340000D01*
X63058633Y-107160706D01*
X63110931Y-106988305D01*
X63195858Y-106829417D01*
X63310151Y-106690151D01*
X63449417Y-106575858D01*
X63608305Y-106490931D01*
X63780706Y-106438633D01*
X63915069Y-106425400D01*
X64004931Y-106425400D01*
X64139294Y-106438633D01*
X64139294Y-106438633D01*
G37*
G36*
X66679294Y-106438633D02*
G01*
X66851695Y-106490931D01*
X67010583Y-106575858D01*
X67149849Y-106690151D01*
X67264142Y-106829417D01*
X67349069Y-106988305D01*
X67401367Y-107160706D01*
X67419025Y-107340000D01*
X67401367Y-107519294D01*
X67349069Y-107691695D01*
X67264142Y-107850583D01*
X67149849Y-107989849D01*
X67010583Y-108104142D01*
X66851695Y-108189069D01*
X66679294Y-108241367D01*
X66544931Y-108254600D01*
X66455069Y-108254600D01*
X66320706Y-108241367D01*
X66148305Y-108189069D01*
X65989417Y-108104142D01*
X65850151Y-107989849D01*
X65735858Y-107850583D01*
X65650931Y-107691695D01*
X65598633Y-107519294D01*
X65580975Y-107340000D01*
X65598633Y-107160706D01*
X65650931Y-106988305D01*
X65735858Y-106829417D01*
X65850151Y-106690151D01*
X65989417Y-106575858D01*
X66148305Y-106490931D01*
X66320706Y-106438633D01*
X66455069Y-106425400D01*
X66544931Y-106425400D01*
X66679294Y-106438633D01*
X66679294Y-106438633D01*
G37*
G36*
X103521823Y-103561313D02*
G01*
X103682242Y-103609976D01*
X103830078Y-103688995D01*
X103942025Y-103780868D01*
X103959660Y-103795341D01*
X104066005Y-103924922D01*
X104066006Y-103924924D01*
X104145025Y-104072758D01*
X104193688Y-104233177D01*
X104206001Y-104358196D01*
X104206001Y-105641804D01*
X104193688Y-105766823D01*
X104145025Y-105927242D01*
X104074115Y-106059906D01*
X104066005Y-106075078D01*
X103959660Y-106204659D01*
X103830079Y-106311004D01*
X103830077Y-106311005D01*
X103682243Y-106390024D01*
X103521824Y-106438687D01*
X103355001Y-106455117D01*
X103188179Y-106438687D01*
X103027760Y-106390024D01*
X102879926Y-106311005D01*
X102879924Y-106311004D01*
X102750343Y-106204659D01*
X102643998Y-106075078D01*
X102635888Y-106059906D01*
X102564978Y-105927242D01*
X102516315Y-105766823D01*
X102504002Y-105641804D01*
X102504001Y-104358197D01*
X102516314Y-104233178D01*
X102564977Y-104072759D01*
X102643996Y-103924923D01*
X102750342Y-103795341D01*
X102811825Y-103744883D01*
X102879923Y-103688996D01*
X102953162Y-103649849D01*
X103027759Y-103609976D01*
X103188178Y-103561313D01*
X103355001Y-103544883D01*
X103521823Y-103561313D01*
X103521823Y-103561313D01*
G37*
G36*
X95212023Y-103560590D02*
G01*
X95312682Y-103591125D01*
X95363013Y-103606392D01*
X95502165Y-103680771D01*
X95624134Y-103780867D01*
X95712872Y-103888995D01*
X95724230Y-103902835D01*
X95798609Y-104041987D01*
X95807943Y-104072758D01*
X95844411Y-104192977D01*
X95856001Y-104310655D01*
X95856001Y-105689345D01*
X95844411Y-105807023D01*
X95823767Y-105875076D01*
X95798609Y-105958013D01*
X95724230Y-106097165D01*
X95624134Y-106219133D01*
X95502166Y-106319229D01*
X95363014Y-106393608D01*
X95312683Y-106408875D01*
X95212024Y-106439410D01*
X95055001Y-106454875D01*
X94897979Y-106439410D01*
X94797320Y-106408875D01*
X94746989Y-106393608D01*
X94607837Y-106319229D01*
X94485869Y-106219133D01*
X94385773Y-106097165D01*
X94311394Y-105958013D01*
X94286236Y-105875076D01*
X94265592Y-105807023D01*
X94254002Y-105689345D01*
X94254001Y-104310656D01*
X94265591Y-104192978D01*
X94311393Y-104041989D01*
X94311393Y-104041988D01*
X94385772Y-103902836D01*
X94429898Y-103849068D01*
X94485868Y-103780867D01*
X94607836Y-103680771D01*
X94746988Y-103606392D01*
X94797319Y-103591125D01*
X94897978Y-103560590D01*
X95055001Y-103545125D01*
X95212023Y-103560590D01*
X95212023Y-103560590D01*
G37*
G36*
X106621823Y-103761313D02*
G01*
X106782242Y-103809976D01*
X106930078Y-103888995D01*
X107059660Y-103995341D01*
X107166005Y-104124922D01*
X107166006Y-104124924D01*
X107245025Y-104272758D01*
X107293688Y-104433177D01*
X107306001Y-104558196D01*
X107306001Y-105441803D01*
X107293688Y-105566822D01*
X107245025Y-105727242D01*
X107223868Y-105766823D01*
X107166005Y-105875078D01*
X107059660Y-106004659D01*
X106930079Y-106111004D01*
X106930077Y-106111005D01*
X106782243Y-106190024D01*
X106621824Y-106238687D01*
X106455001Y-106255117D01*
X106288179Y-106238687D01*
X106127760Y-106190024D01*
X105979926Y-106111005D01*
X105979924Y-106111004D01*
X105850343Y-106004659D01*
X105743998Y-105875078D01*
X105686135Y-105766823D01*
X105664978Y-105727242D01*
X105616315Y-105566823D01*
X105604001Y-105441803D01*
X105604001Y-104558197D01*
X105616314Y-104433178D01*
X105664977Y-104272759D01*
X105743996Y-104124923D01*
X105850342Y-103995341D01*
X105936145Y-103924924D01*
X105979923Y-103888996D01*
X105995095Y-103880886D01*
X106127759Y-103809976D01*
X106288178Y-103761313D01*
X106455001Y-103744883D01*
X106621823Y-103761313D01*
X106621823Y-103761313D01*
G37*
G36*
X137414600Y-103914600D02*
G01*
X135585400Y-103914600D01*
X135585400Y-102085400D01*
X137414600Y-102085400D01*
X137414600Y-103914600D01*
X137414600Y-103914600D01*
G37*
G36*
X134139294Y-102098633D02*
G01*
X134311695Y-102150931D01*
X134470583Y-102235858D01*
X134609849Y-102350151D01*
X134724142Y-102489417D01*
X134809069Y-102648305D01*
X134861367Y-102820706D01*
X134879025Y-103000000D01*
X134861367Y-103179294D01*
X134809069Y-103351695D01*
X134724142Y-103510583D01*
X134609849Y-103649849D01*
X134470583Y-103764142D01*
X134311695Y-103849069D01*
X134139294Y-103901367D01*
X134004931Y-103914600D01*
X133915069Y-103914600D01*
X133780706Y-103901367D01*
X133608305Y-103849069D01*
X133449417Y-103764142D01*
X133310151Y-103649849D01*
X133195858Y-103510583D01*
X133110931Y-103351695D01*
X133058633Y-103179294D01*
X133040975Y-103000000D01*
X133058633Y-102820706D01*
X133110931Y-102648305D01*
X133195858Y-102489417D01*
X133310151Y-102350151D01*
X133449417Y-102235858D01*
X133608305Y-102150931D01*
X133780706Y-102098633D01*
X133915069Y-102085400D01*
X134004931Y-102085400D01*
X134139294Y-102098633D01*
X134139294Y-102098633D01*
G37*
G36*
X117701000Y-102951000D02*
G01*
X115799000Y-102951000D01*
X115799000Y-101049000D01*
X117701000Y-101049000D01*
X117701000Y-102951000D01*
X117701000Y-102951000D01*
G37*
G36*
X114487395Y-101085546D02*
G01*
X114660466Y-101157234D01*
X114660467Y-101157235D01*
X114816227Y-101261310D01*
X114948690Y-101393773D01*
X114948691Y-101393775D01*
X115052766Y-101549534D01*
X115124454Y-101722605D01*
X115161000Y-101906333D01*
X115161000Y-102093667D01*
X115124454Y-102277395D01*
X115052766Y-102450466D01*
X115049684Y-102455078D01*
X114948690Y-102606227D01*
X114816227Y-102738690D01*
X114737818Y-102791081D01*
X114660466Y-102842766D01*
X114487395Y-102914454D01*
X114303667Y-102951000D01*
X114116333Y-102951000D01*
X113932605Y-102914454D01*
X113759534Y-102842766D01*
X113682182Y-102791081D01*
X113603773Y-102738690D01*
X113471310Y-102606227D01*
X113370316Y-102455078D01*
X113367234Y-102450466D01*
X113295546Y-102277395D01*
X113259000Y-102093667D01*
X113259000Y-101906333D01*
X113295546Y-101722605D01*
X113367234Y-101549534D01*
X113471309Y-101393775D01*
X113471310Y-101393773D01*
X113603773Y-101261310D01*
X113759533Y-101157235D01*
X113759534Y-101157234D01*
X113932605Y-101085546D01*
X114116333Y-101049000D01*
X114303667Y-101049000D01*
X114487395Y-101085546D01*
X114487395Y-101085546D01*
G37*
G36*
X120566823Y-101141313D02*
G01*
X120727242Y-101189976D01*
X120859906Y-101260886D01*
X120875078Y-101268996D01*
X121004659Y-101375341D01*
X121111004Y-101504922D01*
X121111005Y-101504924D01*
X121190024Y-101652758D01*
X121238687Y-101813177D01*
X121255117Y-101980000D01*
X121238687Y-102146823D01*
X121190024Y-102307242D01*
X121119114Y-102439906D01*
X121111004Y-102455078D01*
X121004659Y-102584659D01*
X120875078Y-102691004D01*
X120875076Y-102691005D01*
X120727242Y-102770024D01*
X120566823Y-102818687D01*
X120441804Y-102831000D01*
X119558196Y-102831000D01*
X119433177Y-102818687D01*
X119272758Y-102770024D01*
X119124924Y-102691005D01*
X119124922Y-102691004D01*
X118995341Y-102584659D01*
X118888996Y-102455078D01*
X118880886Y-102439906D01*
X118809976Y-102307242D01*
X118761313Y-102146823D01*
X118744883Y-101980000D01*
X118761313Y-101813177D01*
X118809976Y-101652758D01*
X118888995Y-101504924D01*
X118888996Y-101504922D01*
X118995341Y-101375341D01*
X119124922Y-101268996D01*
X119140094Y-101260886D01*
X119272758Y-101189976D01*
X119433177Y-101141313D01*
X119558196Y-101129000D01*
X120441804Y-101129000D01*
X120566823Y-101141313D01*
X120566823Y-101141313D01*
G37*
G36*
X136679294Y-99558633D02*
G01*
X136851695Y-99610931D01*
X137010583Y-99695858D01*
X137149849Y-99810151D01*
X137264142Y-99949417D01*
X137349069Y-100108305D01*
X137401367Y-100280706D01*
X137419025Y-100460000D01*
X137401367Y-100639294D01*
X137349069Y-100811695D01*
X137264142Y-100970583D01*
X137149849Y-101109849D01*
X137010583Y-101224142D01*
X136851695Y-101309069D01*
X136679294Y-101361367D01*
X136544931Y-101374600D01*
X136455069Y-101374600D01*
X136320706Y-101361367D01*
X136148305Y-101309069D01*
X135989417Y-101224142D01*
X135850151Y-101109849D01*
X135735858Y-100970583D01*
X135650931Y-100811695D01*
X135598633Y-100639294D01*
X135580975Y-100460000D01*
X135598633Y-100280706D01*
X135650931Y-100108305D01*
X135735858Y-99949417D01*
X135850151Y-99810151D01*
X135989417Y-99695858D01*
X136148305Y-99610931D01*
X136320706Y-99558633D01*
X136455069Y-99545400D01*
X136544931Y-99545400D01*
X136679294Y-99558633D01*
X136679294Y-99558633D01*
G37*
G36*
X134139294Y-99558633D02*
G01*
X134311695Y-99610931D01*
X134470583Y-99695858D01*
X134609849Y-99810151D01*
X134724142Y-99949417D01*
X134809069Y-100108305D01*
X134861367Y-100280706D01*
X134879025Y-100460000D01*
X134861367Y-100639294D01*
X134809069Y-100811695D01*
X134724142Y-100970583D01*
X134609849Y-101109849D01*
X134470583Y-101224142D01*
X134311695Y-101309069D01*
X134139294Y-101361367D01*
X134004931Y-101374600D01*
X133915069Y-101374600D01*
X133780706Y-101361367D01*
X133608305Y-101309069D01*
X133449417Y-101224142D01*
X133310151Y-101109849D01*
X133195858Y-100970583D01*
X133110931Y-100811695D01*
X133058633Y-100639294D01*
X133040975Y-100460000D01*
X133058633Y-100280706D01*
X133110931Y-100108305D01*
X133195858Y-99949417D01*
X133310151Y-99810151D01*
X133449417Y-99695858D01*
X133608305Y-99610931D01*
X133780706Y-99558633D01*
X133915069Y-99545400D01*
X134004931Y-99545400D01*
X134139294Y-99558633D01*
X134139294Y-99558633D01*
G37*
G36*
X61909168Y-97186439D02*
G01*
X62110299Y-97247451D01*
X62196110Y-97293318D01*
X62295661Y-97346529D01*
X62458133Y-97479867D01*
X62591471Y-97642339D01*
X62616409Y-97688996D01*
X62690549Y-97827701D01*
X62751561Y-98028832D01*
X62767000Y-98185589D01*
X62767000Y-99814411D01*
X62751561Y-99971168D01*
X62690549Y-100172299D01*
X62646281Y-100255117D01*
X62591471Y-100357661D01*
X62518236Y-100446898D01*
X62458133Y-100520133D01*
X62295661Y-100653470D01*
X62110298Y-100752549D01*
X61909167Y-100813561D01*
X61700000Y-100834162D01*
X61490832Y-100813561D01*
X61289701Y-100752549D01*
X61203890Y-100706682D01*
X61104339Y-100653471D01*
X61015102Y-100580236D01*
X60941867Y-100520133D01*
X60808530Y-100357661D01*
X60709451Y-100172298D01*
X60648439Y-99971167D01*
X60633000Y-99814410D01*
X60633000Y-98185589D01*
X60644112Y-98072761D01*
X60648439Y-98028830D01*
X60690858Y-97888996D01*
X60709452Y-97827701D01*
X60744937Y-97761313D01*
X60808530Y-97642339D01*
X60941868Y-97479867D01*
X61104340Y-97346529D01*
X61203891Y-97293318D01*
X61289702Y-97247451D01*
X61490833Y-97186439D01*
X61700000Y-97165838D01*
X61909168Y-97186439D01*
X61909168Y-97186439D01*
G37*
G36*
X52509168Y-97186439D02*
G01*
X52710299Y-97247451D01*
X52796110Y-97293318D01*
X52895661Y-97346529D01*
X53058133Y-97479867D01*
X53191471Y-97642339D01*
X53216409Y-97688996D01*
X53290549Y-97827701D01*
X53351561Y-98028832D01*
X53367000Y-98185589D01*
X53367000Y-99814411D01*
X53351561Y-99971168D01*
X53290549Y-100172299D01*
X53246281Y-100255117D01*
X53191471Y-100357661D01*
X53118236Y-100446898D01*
X53058133Y-100520133D01*
X52895661Y-100653470D01*
X52710298Y-100752549D01*
X52509167Y-100813561D01*
X52300000Y-100834162D01*
X52090832Y-100813561D01*
X51889701Y-100752549D01*
X51803890Y-100706682D01*
X51704339Y-100653471D01*
X51615102Y-100580236D01*
X51541867Y-100520133D01*
X51408530Y-100357661D01*
X51309451Y-100172298D01*
X51248439Y-99971167D01*
X51233000Y-99814410D01*
X51233000Y-98185589D01*
X51244112Y-98072761D01*
X51248439Y-98028830D01*
X51290858Y-97888996D01*
X51309452Y-97827701D01*
X51344937Y-97761313D01*
X51408530Y-97642339D01*
X51541868Y-97479867D01*
X51704340Y-97346529D01*
X51803891Y-97293318D01*
X51889702Y-97247451D01*
X52090833Y-97186439D01*
X52300000Y-97165838D01*
X52509168Y-97186439D01*
X52509168Y-97186439D01*
G37*
G36*
X57209168Y-97186439D02*
G01*
X57410299Y-97247451D01*
X57496110Y-97293318D01*
X57595661Y-97346529D01*
X57758133Y-97479867D01*
X57891471Y-97642339D01*
X57916409Y-97688996D01*
X57990549Y-97827701D01*
X58051561Y-98028832D01*
X58067000Y-98185589D01*
X58067000Y-99814411D01*
X58051561Y-99971168D01*
X57990549Y-100172299D01*
X57946281Y-100255117D01*
X57891471Y-100357661D01*
X57818236Y-100446898D01*
X57758133Y-100520133D01*
X57595661Y-100653470D01*
X57410298Y-100752549D01*
X57209167Y-100813561D01*
X57000000Y-100834162D01*
X56790832Y-100813561D01*
X56589701Y-100752549D01*
X56503890Y-100706682D01*
X56404339Y-100653471D01*
X56315102Y-100580236D01*
X56241867Y-100520133D01*
X56108530Y-100357661D01*
X56009451Y-100172298D01*
X55948439Y-99971167D01*
X55933000Y-99814410D01*
X55933000Y-98185589D01*
X55944112Y-98072761D01*
X55948439Y-98028830D01*
X55990858Y-97888996D01*
X56009452Y-97827701D01*
X56044937Y-97761313D01*
X56108530Y-97642339D01*
X56241868Y-97479867D01*
X56404340Y-97346529D01*
X56503891Y-97293318D01*
X56589702Y-97247451D01*
X56790833Y-97186439D01*
X57000000Y-97165838D01*
X57209168Y-97186439D01*
X57209168Y-97186439D01*
G37*
G36*
X83546822Y-97561313D02*
G01*
X83707241Y-97609976D01*
X83855077Y-97688995D01*
X83967024Y-97780868D01*
X83984659Y-97795341D01*
X84091004Y-97924922D01*
X84091005Y-97924924D01*
X84170024Y-98072758D01*
X84218687Y-98233177D01*
X84231000Y-98358196D01*
X84231000Y-99641804D01*
X84218687Y-99766823D01*
X84170024Y-99927242D01*
X84099114Y-100059906D01*
X84091004Y-100075078D01*
X83984659Y-100204659D01*
X83855078Y-100311004D01*
X83855076Y-100311005D01*
X83707242Y-100390024D01*
X83546823Y-100438687D01*
X83380000Y-100455117D01*
X83213178Y-100438687D01*
X83052759Y-100390024D01*
X82904925Y-100311005D01*
X82904923Y-100311004D01*
X82775342Y-100204659D01*
X82668997Y-100075078D01*
X82660887Y-100059906D01*
X82589977Y-99927242D01*
X82541314Y-99766823D01*
X82529001Y-99641804D01*
X82529000Y-98358197D01*
X82541313Y-98233178D01*
X82584753Y-98089976D01*
X82589975Y-98072762D01*
X82589976Y-98072759D01*
X82668995Y-97924923D01*
X82775341Y-97795341D01*
X82836824Y-97744883D01*
X82904922Y-97688996D01*
X82920310Y-97680771D01*
X83052758Y-97609976D01*
X83213177Y-97561313D01*
X83380000Y-97544883D01*
X83546822Y-97561313D01*
X83546822Y-97561313D01*
G37*
G36*
X75237022Y-97560590D02*
G01*
X75337681Y-97591125D01*
X75388012Y-97606392D01*
X75455263Y-97642339D01*
X75527164Y-97680771D01*
X75649133Y-97780867D01*
X75687565Y-97827697D01*
X75749229Y-97902835D01*
X75823608Y-98041987D01*
X75832942Y-98072758D01*
X75869410Y-98192977D01*
X75869410Y-98192979D01*
X75881000Y-98310654D01*
X75881000Y-99689346D01*
X75878110Y-99718686D01*
X75869410Y-99807023D01*
X75867168Y-99814413D01*
X75823608Y-99958013D01*
X75749229Y-100097165D01*
X75649133Y-100219133D01*
X75527165Y-100319229D01*
X75388013Y-100393608D01*
X75337682Y-100408875D01*
X75237023Y-100439410D01*
X75080000Y-100454875D01*
X74922978Y-100439410D01*
X74822319Y-100408875D01*
X74771988Y-100393608D01*
X74632836Y-100319229D01*
X74510868Y-100219133D01*
X74410772Y-100097165D01*
X74336393Y-99958013D01*
X74292833Y-99814413D01*
X74290591Y-99807023D01*
X74281891Y-99718686D01*
X74279001Y-99689346D01*
X74279000Y-98310655D01*
X74290590Y-98192980D01*
X74290590Y-98192978D01*
X74336392Y-98041989D01*
X74336392Y-98041988D01*
X74410771Y-97902836D01*
X74422130Y-97888995D01*
X74510867Y-97780867D01*
X74632835Y-97680771D01*
X74704736Y-97642339D01*
X74771987Y-97606392D01*
X74822318Y-97591125D01*
X74922977Y-97560590D01*
X75080000Y-97545125D01*
X75237022Y-97560590D01*
X75237022Y-97560590D01*
G37*
G36*
X86646822Y-97761313D02*
G01*
X86807241Y-97809976D01*
X86955077Y-97888995D01*
X87084659Y-97995341D01*
X87191004Y-98124922D01*
X87191005Y-98124924D01*
X87270024Y-98272758D01*
X87318687Y-98433177D01*
X87331000Y-98558196D01*
X87331000Y-99441803D01*
X87318687Y-99566822D01*
X87318686Y-99566825D01*
X87272620Y-99718686D01*
X87270024Y-99727242D01*
X87223430Y-99814413D01*
X87191004Y-99875078D01*
X87084659Y-100004659D01*
X86955078Y-100111004D01*
X86955076Y-100111005D01*
X86807242Y-100190024D01*
X86646823Y-100238687D01*
X86480000Y-100255117D01*
X86313178Y-100238687D01*
X86152759Y-100190024D01*
X86004925Y-100111005D01*
X86004923Y-100111004D01*
X85875342Y-100004659D01*
X85768997Y-99875078D01*
X85736571Y-99814413D01*
X85689977Y-99727242D01*
X85687382Y-99718686D01*
X85672620Y-99670024D01*
X85641314Y-99566823D01*
X85629000Y-99441803D01*
X85629000Y-98558197D01*
X85641313Y-98433178D01*
X85689976Y-98272759D01*
X85768995Y-98124923D01*
X85875341Y-97995341D01*
X85961144Y-97924924D01*
X86004922Y-97888996D01*
X86020094Y-97880886D01*
X86152758Y-97809976D01*
X86313177Y-97761313D01*
X86480000Y-97744883D01*
X86646822Y-97761313D01*
X86646822Y-97761313D01*
G37*
G36*
X120766823Y-98041313D02*
G01*
X120927242Y-98089976D01*
X121059906Y-98160886D01*
X121075078Y-98168996D01*
X121204659Y-98275341D01*
X121311004Y-98404922D01*
X121311005Y-98404924D01*
X121390024Y-98552758D01*
X121438687Y-98713177D01*
X121455117Y-98880000D01*
X121438687Y-99046823D01*
X121390024Y-99207242D01*
X121319114Y-99339906D01*
X121311004Y-99355078D01*
X121204659Y-99484659D01*
X121075078Y-99591004D01*
X121075076Y-99591005D01*
X120927242Y-99670024D01*
X120766823Y-99718687D01*
X120641804Y-99731000D01*
X119358196Y-99731000D01*
X119233177Y-99718687D01*
X119072758Y-99670024D01*
X118924924Y-99591005D01*
X118924922Y-99591004D01*
X118795341Y-99484659D01*
X118688996Y-99355078D01*
X118680886Y-99339906D01*
X118609976Y-99207242D01*
X118561313Y-99046823D01*
X118544883Y-98880000D01*
X118561313Y-98713177D01*
X118609976Y-98552758D01*
X118688995Y-98404924D01*
X118688996Y-98404922D01*
X118795341Y-98275341D01*
X118924922Y-98168996D01*
X118940094Y-98160886D01*
X119072758Y-98089976D01*
X119233177Y-98041313D01*
X119358196Y-98029000D01*
X120641804Y-98029000D01*
X120766823Y-98041313D01*
X120766823Y-98041313D01*
G37*
G36*
X136679294Y-97018633D02*
G01*
X136851695Y-97070931D01*
X137010583Y-97155858D01*
X137149849Y-97270151D01*
X137264142Y-97409417D01*
X137349069Y-97568305D01*
X137401367Y-97740706D01*
X137419025Y-97920000D01*
X137401367Y-98099294D01*
X137349069Y-98271695D01*
X137264142Y-98430583D01*
X137149849Y-98569849D01*
X137010583Y-98684142D01*
X136851695Y-98769069D01*
X136679294Y-98821367D01*
X136544931Y-98834600D01*
X136455069Y-98834600D01*
X136320706Y-98821367D01*
X136148305Y-98769069D01*
X135989417Y-98684142D01*
X135850151Y-98569849D01*
X135735858Y-98430583D01*
X135650931Y-98271695D01*
X135598633Y-98099294D01*
X135580975Y-97920000D01*
X135598633Y-97740706D01*
X135650931Y-97568305D01*
X135735858Y-97409417D01*
X135850151Y-97270151D01*
X135989417Y-97155858D01*
X136148305Y-97070931D01*
X136320706Y-97018633D01*
X136455069Y-97005400D01*
X136544931Y-97005400D01*
X136679294Y-97018633D01*
X136679294Y-97018633D01*
G37*
G36*
X134139294Y-97018633D02*
G01*
X134311695Y-97070931D01*
X134470583Y-97155858D01*
X134609849Y-97270151D01*
X134724142Y-97409417D01*
X134809069Y-97568305D01*
X134861367Y-97740706D01*
X134879025Y-97920000D01*
X134861367Y-98099294D01*
X134809069Y-98271695D01*
X134724142Y-98430583D01*
X134609849Y-98569849D01*
X134470583Y-98684142D01*
X134311695Y-98769069D01*
X134139294Y-98821367D01*
X134004931Y-98834600D01*
X133915069Y-98834600D01*
X133780706Y-98821367D01*
X133608305Y-98769069D01*
X133449417Y-98684142D01*
X133310151Y-98569849D01*
X133195858Y-98430583D01*
X133110931Y-98271695D01*
X133058633Y-98099294D01*
X133040975Y-97920000D01*
X133058633Y-97740706D01*
X133110931Y-97568305D01*
X133195858Y-97409417D01*
X133310151Y-97270151D01*
X133449417Y-97155858D01*
X133608305Y-97070931D01*
X133780706Y-97018633D01*
X133915069Y-97005400D01*
X134004931Y-97005400D01*
X134139294Y-97018633D01*
X134139294Y-97018633D01*
G37*
G36*
X136679294Y-94478633D02*
G01*
X136851695Y-94530931D01*
X137010583Y-94615858D01*
X137149849Y-94730151D01*
X137264142Y-94869417D01*
X137349069Y-95028305D01*
X137401367Y-95200706D01*
X137419025Y-95380000D01*
X137401367Y-95559294D01*
X137349069Y-95731695D01*
X137264142Y-95890583D01*
X137149849Y-96029849D01*
X137010583Y-96144142D01*
X136851695Y-96229069D01*
X136679294Y-96281367D01*
X136544931Y-96294600D01*
X136455069Y-96294600D01*
X136320706Y-96281367D01*
X136148305Y-96229069D01*
X135989417Y-96144142D01*
X135850151Y-96029849D01*
X135735858Y-95890583D01*
X135650931Y-95731695D01*
X135598633Y-95559294D01*
X135580975Y-95380000D01*
X135598633Y-95200706D01*
X135650931Y-95028305D01*
X135735858Y-94869417D01*
X135850151Y-94730151D01*
X135989417Y-94615858D01*
X136148305Y-94530931D01*
X136320706Y-94478633D01*
X136455069Y-94465400D01*
X136544931Y-94465400D01*
X136679294Y-94478633D01*
X136679294Y-94478633D01*
G37*
G36*
X134139294Y-94478633D02*
G01*
X134311695Y-94530931D01*
X134470583Y-94615858D01*
X134609849Y-94730151D01*
X134724142Y-94869417D01*
X134809069Y-95028305D01*
X134861367Y-95200706D01*
X134879025Y-95380000D01*
X134861367Y-95559294D01*
X134809069Y-95731695D01*
X134724142Y-95890583D01*
X134609849Y-96029849D01*
X134470583Y-96144142D01*
X134311695Y-96229069D01*
X134139294Y-96281367D01*
X134004931Y-96294600D01*
X133915069Y-96294600D01*
X133780706Y-96281367D01*
X133608305Y-96229069D01*
X133449417Y-96144142D01*
X133310151Y-96029849D01*
X133195858Y-95890583D01*
X133110931Y-95731695D01*
X133058633Y-95559294D01*
X133040975Y-95380000D01*
X133058633Y-95200706D01*
X133110931Y-95028305D01*
X133195858Y-94869417D01*
X133310151Y-94730151D01*
X133449417Y-94615858D01*
X133608305Y-94530931D01*
X133780706Y-94478633D01*
X133915069Y-94465400D01*
X134004931Y-94465400D01*
X134139294Y-94478633D01*
X134139294Y-94478633D01*
G37*
G36*
X103546822Y-93061313D02*
G01*
X103707241Y-93109976D01*
X103855077Y-93188995D01*
X103967024Y-93280868D01*
X103984659Y-93295341D01*
X104091004Y-93424922D01*
X104091005Y-93424924D01*
X104170024Y-93572758D01*
X104218687Y-93733177D01*
X104231000Y-93858196D01*
X104231000Y-95141804D01*
X104218687Y-95266823D01*
X104170024Y-95427242D01*
X104099441Y-95559293D01*
X104091004Y-95575078D01*
X103984659Y-95704659D01*
X103855078Y-95811004D01*
X103855076Y-95811005D01*
X103707242Y-95890024D01*
X103707239Y-95890025D01*
X103695427Y-95893608D01*
X103546823Y-95938687D01*
X103380000Y-95955117D01*
X103213178Y-95938687D01*
X103064574Y-95893608D01*
X103052762Y-95890025D01*
X103052759Y-95890024D01*
X102904925Y-95811005D01*
X102904923Y-95811004D01*
X102775342Y-95704659D01*
X102668997Y-95575078D01*
X102660560Y-95559293D01*
X102589977Y-95427242D01*
X102541314Y-95266823D01*
X102529001Y-95141804D01*
X102529000Y-93858197D01*
X102541313Y-93733178D01*
X102589976Y-93572759D01*
X102668995Y-93424923D01*
X102775341Y-93295341D01*
X102850772Y-93233436D01*
X102904922Y-93188996D01*
X102920310Y-93180771D01*
X103052758Y-93109976D01*
X103213177Y-93061313D01*
X103380000Y-93044883D01*
X103546822Y-93061313D01*
X103546822Y-93061313D01*
G37*
G36*
X95237022Y-93060590D02*
G01*
X95337681Y-93091125D01*
X95388012Y-93106392D01*
X95527164Y-93180771D01*
X95649133Y-93280867D01*
X95706347Y-93350583D01*
X95749229Y-93402835D01*
X95823608Y-93541987D01*
X95832942Y-93572758D01*
X95869410Y-93692977D01*
X95881000Y-93810655D01*
X95881000Y-95189345D01*
X95869410Y-95307023D01*
X95848766Y-95375076D01*
X95823608Y-95458013D01*
X95749229Y-95597165D01*
X95649133Y-95719133D01*
X95527165Y-95819229D01*
X95388013Y-95893608D01*
X95337682Y-95908875D01*
X95237023Y-95939410D01*
X95080000Y-95954875D01*
X94922978Y-95939410D01*
X94822319Y-95908875D01*
X94771988Y-95893608D01*
X94632836Y-95819229D01*
X94510868Y-95719133D01*
X94410772Y-95597165D01*
X94336393Y-95458013D01*
X94311235Y-95375076D01*
X94290591Y-95307023D01*
X94279001Y-95189345D01*
X94279000Y-93810656D01*
X94290590Y-93692978D01*
X94336392Y-93541989D01*
X94336392Y-93541988D01*
X94410771Y-93402836D01*
X94422130Y-93388995D01*
X94510867Y-93280867D01*
X94632835Y-93180771D01*
X94771987Y-93106392D01*
X94822318Y-93091125D01*
X94922977Y-93060590D01*
X95080000Y-93045125D01*
X95237022Y-93060590D01*
X95237022Y-93060590D01*
G37*
G36*
X106646822Y-93261313D02*
G01*
X106807241Y-93309976D01*
X106955077Y-93388995D01*
X107077967Y-93489849D01*
X107084659Y-93495341D01*
X107191004Y-93624922D01*
X107191005Y-93624924D01*
X107270024Y-93772758D01*
X107318687Y-93933177D01*
X107331000Y-94058196D01*
X107331000Y-94941803D01*
X107318687Y-95066822D01*
X107270024Y-95227242D01*
X107248867Y-95266823D01*
X107191004Y-95375078D01*
X107084659Y-95504659D01*
X106955078Y-95611004D01*
X106955076Y-95611005D01*
X106807242Y-95690024D01*
X106646823Y-95738687D01*
X106480000Y-95755117D01*
X106313178Y-95738687D01*
X106152759Y-95690024D01*
X106004925Y-95611005D01*
X106004923Y-95611004D01*
X105875342Y-95504659D01*
X105768997Y-95375078D01*
X105711134Y-95266823D01*
X105689977Y-95227242D01*
X105641314Y-95066823D01*
X105629000Y-94941803D01*
X105629000Y-94058197D01*
X105641313Y-93933178D01*
X105689976Y-93772759D01*
X105768995Y-93624923D01*
X105875341Y-93495341D01*
X105961144Y-93424924D01*
X106004922Y-93388996D01*
X106076788Y-93350583D01*
X106152758Y-93309976D01*
X106313177Y-93261313D01*
X106480000Y-93244883D01*
X106646822Y-93261313D01*
X106646822Y-93261313D01*
G37*
G36*
X51496564Y-92529389D02*
G01*
X51687833Y-92608615D01*
X51687835Y-92608616D01*
X51859973Y-92723635D01*
X52006365Y-92870027D01*
X52121385Y-93042167D01*
X52200611Y-93233436D01*
X52241000Y-93436484D01*
X52241000Y-93643516D01*
X52200611Y-93846564D01*
X52164734Y-93933178D01*
X52121384Y-94037835D01*
X52006365Y-94209973D01*
X51859973Y-94356365D01*
X51687835Y-94471384D01*
X51687834Y-94471385D01*
X51687833Y-94471385D01*
X51496564Y-94550611D01*
X51293516Y-94591000D01*
X51086484Y-94591000D01*
X50883436Y-94550611D01*
X50692167Y-94471385D01*
X50692166Y-94471385D01*
X50692165Y-94471384D01*
X50520027Y-94356365D01*
X50373635Y-94209973D01*
X50258616Y-94037835D01*
X50215266Y-93933178D01*
X50179389Y-93846564D01*
X50139000Y-93643516D01*
X50139000Y-93436484D01*
X50179389Y-93233436D01*
X50258615Y-93042167D01*
X50373635Y-92870027D01*
X50520027Y-92723635D01*
X50692165Y-92608616D01*
X50692167Y-92608615D01*
X50883436Y-92529389D01*
X51086484Y-92489000D01*
X51293516Y-92489000D01*
X51496564Y-92529389D01*
X51496564Y-92529389D01*
G37*
G36*
X59116564Y-92275389D02*
G01*
X59307833Y-92354615D01*
X59307835Y-92354616D01*
X59479973Y-92469635D01*
X59626365Y-92616027D01*
X59656219Y-92660706D01*
X59741385Y-92788167D01*
X59820611Y-92979436D01*
X59861000Y-93182484D01*
X59861000Y-93389516D01*
X59820611Y-93592564D01*
X59745972Y-93772758D01*
X59741384Y-93783835D01*
X59626365Y-93955973D01*
X59479973Y-94102365D01*
X59307835Y-94217384D01*
X59307834Y-94217385D01*
X59307833Y-94217385D01*
X59116564Y-94296611D01*
X58913516Y-94337000D01*
X58706484Y-94337000D01*
X58503436Y-94296611D01*
X58312167Y-94217385D01*
X58312166Y-94217385D01*
X58312165Y-94217384D01*
X58140027Y-94102365D01*
X57993635Y-93955973D01*
X57878616Y-93783835D01*
X57874028Y-93772758D01*
X57799389Y-93592564D01*
X57759000Y-93389516D01*
X57759000Y-93182484D01*
X57799389Y-92979436D01*
X57878615Y-92788167D01*
X57963782Y-92660706D01*
X57993635Y-92616027D01*
X58140027Y-92469635D01*
X58312165Y-92354616D01*
X58312167Y-92354615D01*
X58503436Y-92275389D01*
X58706484Y-92235000D01*
X58913516Y-92235000D01*
X59116564Y-92275389D01*
X59116564Y-92275389D01*
G37*
G36*
X134139294Y-91938633D02*
G01*
X134311695Y-91990931D01*
X134470583Y-92075858D01*
X134609849Y-92190151D01*
X134724142Y-92329417D01*
X134809069Y-92488305D01*
X134861367Y-92660706D01*
X134879025Y-92840000D01*
X134861367Y-93019294D01*
X134809069Y-93191695D01*
X134724142Y-93350583D01*
X134609849Y-93489849D01*
X134470583Y-93604142D01*
X134311695Y-93689069D01*
X134139294Y-93741367D01*
X134004931Y-93754600D01*
X133915069Y-93754600D01*
X133780706Y-93741367D01*
X133608305Y-93689069D01*
X133449417Y-93604142D01*
X133310151Y-93489849D01*
X133195858Y-93350583D01*
X133110931Y-93191695D01*
X133058633Y-93019294D01*
X133040975Y-92840000D01*
X133058633Y-92660706D01*
X133110931Y-92488305D01*
X133195858Y-92329417D01*
X133310151Y-92190151D01*
X133449417Y-92075858D01*
X133608305Y-91990931D01*
X133780706Y-91938633D01*
X133915069Y-91925400D01*
X134004931Y-91925400D01*
X134139294Y-91938633D01*
X134139294Y-91938633D01*
G37*
G36*
X136679294Y-91938633D02*
G01*
X136851695Y-91990931D01*
X137010583Y-92075858D01*
X137149849Y-92190151D01*
X137264142Y-92329417D01*
X137349069Y-92488305D01*
X137401367Y-92660706D01*
X137419025Y-92840000D01*
X137401367Y-93019294D01*
X137349069Y-93191695D01*
X137264142Y-93350583D01*
X137149849Y-93489849D01*
X137010583Y-93604142D01*
X136851695Y-93689069D01*
X136679294Y-93741367D01*
X136544931Y-93754600D01*
X136455069Y-93754600D01*
X136320706Y-93741367D01*
X136148305Y-93689069D01*
X135989417Y-93604142D01*
X135850151Y-93489849D01*
X135735858Y-93350583D01*
X135650931Y-93191695D01*
X135598633Y-93019294D01*
X135580975Y-92840000D01*
X135598633Y-92660706D01*
X135650931Y-92488305D01*
X135735858Y-92329417D01*
X135850151Y-92190151D01*
X135989417Y-92075858D01*
X136148305Y-91990931D01*
X136320706Y-91938633D01*
X136455069Y-91925400D01*
X136544931Y-91925400D01*
X136679294Y-91938633D01*
X136679294Y-91938633D01*
G37*
G36*
X65851000Y-92351000D02*
G01*
X64149000Y-92351000D01*
X64149000Y-90649000D01*
X65851000Y-90649000D01*
X65851000Y-92351000D01*
X65851000Y-92351000D01*
G37*
G36*
X83546822Y-88561313D02*
G01*
X83707241Y-88609976D01*
X83855077Y-88688995D01*
X83967024Y-88780868D01*
X83984659Y-88795341D01*
X84091004Y-88924922D01*
X84091005Y-88924924D01*
X84170024Y-89072758D01*
X84218687Y-89233177D01*
X84231000Y-89358196D01*
X84231000Y-90641804D01*
X84218687Y-90766823D01*
X84170024Y-90927242D01*
X84116614Y-91027165D01*
X84091004Y-91075078D01*
X83984659Y-91204659D01*
X83855078Y-91311004D01*
X83855076Y-91311005D01*
X83707242Y-91390024D01*
X83546823Y-91438687D01*
X83380000Y-91455117D01*
X83213178Y-91438687D01*
X83052759Y-91390024D01*
X82904925Y-91311005D01*
X82904923Y-91311004D01*
X82775342Y-91204659D01*
X82668997Y-91075078D01*
X82643387Y-91027165D01*
X82589977Y-90927242D01*
X82541314Y-90766823D01*
X82529001Y-90641804D01*
X82529000Y-89358197D01*
X82541313Y-89233178D01*
X82589976Y-89072759D01*
X82668995Y-88924923D01*
X82775341Y-88795341D01*
X82792978Y-88780867D01*
X82904922Y-88688996D01*
X82920310Y-88680771D01*
X83052758Y-88609976D01*
X83213177Y-88561313D01*
X83380000Y-88544883D01*
X83546822Y-88561313D01*
X83546822Y-88561313D01*
G37*
G36*
X75237022Y-88560590D02*
G01*
X75337681Y-88591125D01*
X75388012Y-88606392D01*
X75527164Y-88680771D01*
X75649133Y-88780867D01*
X75737871Y-88888995D01*
X75749229Y-88902835D01*
X75823608Y-89041987D01*
X75832942Y-89072758D01*
X75869410Y-89192977D01*
X75881000Y-89310655D01*
X75881000Y-90689345D01*
X75869410Y-90807023D01*
X75848766Y-90875076D01*
X75823608Y-90958013D01*
X75749229Y-91097165D01*
X75649133Y-91219133D01*
X75527165Y-91319229D01*
X75388013Y-91393608D01*
X75337682Y-91408875D01*
X75237023Y-91439410D01*
X75080000Y-91454875D01*
X74922978Y-91439410D01*
X74822319Y-91408875D01*
X74771988Y-91393608D01*
X74632836Y-91319229D01*
X74510868Y-91219133D01*
X74410772Y-91097165D01*
X74336393Y-90958013D01*
X74311235Y-90875076D01*
X74290591Y-90807023D01*
X74279001Y-90689345D01*
X74279000Y-89310656D01*
X74290590Y-89192978D01*
X74336392Y-89041989D01*
X74336392Y-89041988D01*
X74410771Y-88902836D01*
X74422130Y-88888995D01*
X74510867Y-88780867D01*
X74632835Y-88680771D01*
X74771987Y-88606392D01*
X74822318Y-88591125D01*
X74922977Y-88560590D01*
X75080000Y-88545125D01*
X75237022Y-88560590D01*
X75237022Y-88560590D01*
G37*
G36*
X120728571Y-89782863D02*
G01*
X120807023Y-89790590D01*
X120898354Y-89818295D01*
X120958013Y-89836392D01*
X121097165Y-89910771D01*
X121219133Y-90010867D01*
X121319229Y-90132835D01*
X121393608Y-90271987D01*
X121393608Y-90271988D01*
X121439410Y-90422977D01*
X121454875Y-90580000D01*
X121439410Y-90737023D01*
X121418176Y-90807021D01*
X121393608Y-90888013D01*
X121319229Y-91027165D01*
X121219133Y-91149133D01*
X121097165Y-91249229D01*
X120958013Y-91323608D01*
X120907682Y-91338875D01*
X120807023Y-91369410D01*
X120728571Y-91377137D01*
X120689346Y-91381000D01*
X119310654Y-91381000D01*
X119271429Y-91377137D01*
X119192977Y-91369410D01*
X119092318Y-91338875D01*
X119041987Y-91323608D01*
X118902835Y-91249229D01*
X118780867Y-91149133D01*
X118680771Y-91027165D01*
X118606392Y-90888013D01*
X118581824Y-90807021D01*
X118560590Y-90737023D01*
X118545125Y-90580000D01*
X118560590Y-90422977D01*
X118606392Y-90271988D01*
X118606392Y-90271987D01*
X118680771Y-90132835D01*
X118780867Y-90010867D01*
X118902835Y-89910771D01*
X119041987Y-89836392D01*
X119101646Y-89818295D01*
X119192977Y-89790590D01*
X119271429Y-89782863D01*
X119310654Y-89779000D01*
X120689346Y-89779000D01*
X120728571Y-89782863D01*
X120728571Y-89782863D01*
G37*
G36*
X86646822Y-88761313D02*
G01*
X86807241Y-88809976D01*
X86955077Y-88888995D01*
X87038958Y-88957835D01*
X87084659Y-88995341D01*
X87191004Y-89124922D01*
X87191005Y-89124924D01*
X87270024Y-89272758D01*
X87318687Y-89433177D01*
X87331000Y-89558196D01*
X87331000Y-90441803D01*
X87318687Y-90566822D01*
X87270024Y-90727242D01*
X87248867Y-90766823D01*
X87191004Y-90875078D01*
X87084659Y-91004659D01*
X86955078Y-91111004D01*
X86955076Y-91111005D01*
X86807242Y-91190024D01*
X86646823Y-91238687D01*
X86480000Y-91255117D01*
X86313178Y-91238687D01*
X86152759Y-91190024D01*
X86004925Y-91111005D01*
X86004923Y-91111004D01*
X85875342Y-91004659D01*
X85768997Y-90875078D01*
X85711134Y-90766823D01*
X85689977Y-90727242D01*
X85641314Y-90566823D01*
X85629000Y-90441803D01*
X85629000Y-89558197D01*
X85641313Y-89433178D01*
X85689976Y-89272759D01*
X85768995Y-89124923D01*
X85875341Y-88995341D01*
X85921042Y-88957835D01*
X86004922Y-88888996D01*
X86020094Y-88880886D01*
X86152758Y-88809976D01*
X86313177Y-88761313D01*
X86480000Y-88744883D01*
X86646822Y-88761313D01*
X86646822Y-88761313D01*
G37*
G36*
X65248228Y-88181703D02*
G01*
X65403100Y-88245853D01*
X65542481Y-88338985D01*
X65661015Y-88457519D01*
X65754147Y-88596900D01*
X65818297Y-88751772D01*
X65851000Y-88916184D01*
X65851000Y-89083816D01*
X65818297Y-89248228D01*
X65754147Y-89403100D01*
X65661015Y-89542481D01*
X65542481Y-89661015D01*
X65403100Y-89754147D01*
X65248228Y-89818297D01*
X65083816Y-89851000D01*
X64916184Y-89851000D01*
X64751772Y-89818297D01*
X64596900Y-89754147D01*
X64457519Y-89661015D01*
X64338985Y-89542481D01*
X64245853Y-89403100D01*
X64181703Y-89248228D01*
X64149000Y-89083816D01*
X64149000Y-88916184D01*
X64181703Y-88751772D01*
X64245853Y-88596900D01*
X64338985Y-88457519D01*
X64457519Y-88338985D01*
X64596900Y-88245853D01*
X64751772Y-88181703D01*
X64916184Y-88149000D01*
X65083816Y-88149000D01*
X65248228Y-88181703D01*
X65248228Y-88181703D01*
G37*
G36*
X59116564Y-87703389D02*
G01*
X59307833Y-87782615D01*
X59307835Y-87782616D01*
X59479973Y-87897635D01*
X59626365Y-88044027D01*
X59718359Y-88181705D01*
X59741385Y-88216167D01*
X59820611Y-88407436D01*
X59861000Y-88610484D01*
X59861000Y-88817516D01*
X59820611Y-89020564D01*
X59749194Y-89192980D01*
X59741384Y-89211835D01*
X59626365Y-89383973D01*
X59479973Y-89530365D01*
X59307835Y-89645384D01*
X59307834Y-89645385D01*
X59307833Y-89645385D01*
X59116564Y-89724611D01*
X58913516Y-89765000D01*
X58706484Y-89765000D01*
X58503436Y-89724611D01*
X58312167Y-89645385D01*
X58312166Y-89645385D01*
X58312165Y-89645384D01*
X58140027Y-89530365D01*
X57993635Y-89383973D01*
X57878616Y-89211835D01*
X57870806Y-89192980D01*
X57799389Y-89020564D01*
X57759000Y-88817516D01*
X57759000Y-88610484D01*
X57799389Y-88407436D01*
X57878615Y-88216167D01*
X57901642Y-88181705D01*
X57993635Y-88044027D01*
X58140027Y-87897635D01*
X58312165Y-87782616D01*
X58312167Y-87782615D01*
X58503436Y-87703389D01*
X58706484Y-87663000D01*
X58913516Y-87663000D01*
X59116564Y-87703389D01*
X59116564Y-87703389D01*
G37*
G36*
X51496564Y-87449389D02*
G01*
X51687833Y-87528615D01*
X51687835Y-87528616D01*
X51859973Y-87643635D01*
X52006365Y-87790027D01*
X52121385Y-87962167D01*
X52200611Y-88153436D01*
X52241000Y-88356484D01*
X52241000Y-88563516D01*
X52200611Y-88766564D01*
X52135016Y-88924924D01*
X52121384Y-88957835D01*
X52006365Y-89129973D01*
X51859973Y-89276365D01*
X51687835Y-89391384D01*
X51687834Y-89391385D01*
X51687833Y-89391385D01*
X51496564Y-89470611D01*
X51293516Y-89511000D01*
X51086484Y-89511000D01*
X50883436Y-89470611D01*
X50692167Y-89391385D01*
X50692166Y-89391385D01*
X50692165Y-89391384D01*
X50520027Y-89276365D01*
X50373635Y-89129973D01*
X50258616Y-88957835D01*
X50244984Y-88924924D01*
X50179389Y-88766564D01*
X50139000Y-88563516D01*
X50139000Y-88356484D01*
X50179389Y-88153436D01*
X50258615Y-87962167D01*
X50373635Y-87790027D01*
X50520027Y-87643635D01*
X50692165Y-87528616D01*
X50692167Y-87528615D01*
X50883436Y-87449389D01*
X51086484Y-87409000D01*
X51293516Y-87409000D01*
X51496564Y-87449389D01*
X51496564Y-87449389D01*
G37*
G36*
X120566823Y-87141313D02*
G01*
X120727242Y-87189976D01*
X120859906Y-87260886D01*
X120875078Y-87268996D01*
X121004659Y-87375341D01*
X121111004Y-87504922D01*
X121111005Y-87504924D01*
X121190024Y-87652758D01*
X121238687Y-87813177D01*
X121255117Y-87980000D01*
X121238687Y-88146823D01*
X121190024Y-88307242D01*
X121136470Y-88407435D01*
X121111004Y-88455078D01*
X121004659Y-88584659D01*
X120875078Y-88691004D01*
X120875076Y-88691005D01*
X120727242Y-88770024D01*
X120566823Y-88818687D01*
X120441804Y-88831000D01*
X119558196Y-88831000D01*
X119433177Y-88818687D01*
X119272758Y-88770024D01*
X119124924Y-88691005D01*
X119124922Y-88691004D01*
X118995341Y-88584659D01*
X118888996Y-88455078D01*
X118863530Y-88407435D01*
X118809976Y-88307242D01*
X118761313Y-88146823D01*
X118744883Y-87980000D01*
X118761313Y-87813177D01*
X118809976Y-87652758D01*
X118888995Y-87504924D01*
X118888996Y-87504922D01*
X118995341Y-87375341D01*
X119124922Y-87268996D01*
X119140094Y-87260886D01*
X119272758Y-87189976D01*
X119433177Y-87141313D01*
X119558196Y-87129000D01*
X120441804Y-87129000D01*
X120566823Y-87141313D01*
X120566823Y-87141313D01*
G37*
G36*
X120766823Y-84041313D02*
G01*
X120927242Y-84089976D01*
X121059906Y-84160886D01*
X121075078Y-84168996D01*
X121204659Y-84275341D01*
X121311004Y-84404922D01*
X121311005Y-84404924D01*
X121390024Y-84552758D01*
X121438687Y-84713177D01*
X121455117Y-84880000D01*
X121438687Y-85046823D01*
X121390024Y-85207242D01*
X121384602Y-85217385D01*
X121311004Y-85355078D01*
X121204659Y-85484659D01*
X121075078Y-85591004D01*
X121075076Y-85591005D01*
X120927242Y-85670024D01*
X120766823Y-85718687D01*
X120641804Y-85731000D01*
X119358196Y-85731000D01*
X119233177Y-85718687D01*
X119072758Y-85670024D01*
X118924924Y-85591005D01*
X118924922Y-85591004D01*
X118795341Y-85484659D01*
X118688996Y-85355078D01*
X118615398Y-85217385D01*
X118609976Y-85207242D01*
X118561313Y-85046823D01*
X118544883Y-84880000D01*
X118561313Y-84713177D01*
X118609976Y-84552758D01*
X118688995Y-84404924D01*
X118688996Y-84404922D01*
X118795341Y-84275341D01*
X118924922Y-84168996D01*
X118940094Y-84160886D01*
X119072758Y-84089976D01*
X119233177Y-84041313D01*
X119358196Y-84029000D01*
X120641804Y-84029000D01*
X120766823Y-84041313D01*
X120766823Y-84041313D01*
G37*
G36*
X51496564Y-83529389D02*
G01*
X51687833Y-83608615D01*
X51687835Y-83608616D01*
X51859973Y-83723635D01*
X52006365Y-83870027D01*
X52120815Y-84041313D01*
X52121385Y-84042167D01*
X52200611Y-84233436D01*
X52241000Y-84436484D01*
X52241000Y-84643516D01*
X52200611Y-84846564D01*
X52186761Y-84880000D01*
X52121384Y-85037835D01*
X52006365Y-85209973D01*
X51859973Y-85356365D01*
X51687835Y-85471384D01*
X51687834Y-85471385D01*
X51687833Y-85471385D01*
X51496564Y-85550611D01*
X51293516Y-85591000D01*
X51086484Y-85591000D01*
X50883436Y-85550611D01*
X50692167Y-85471385D01*
X50692166Y-85471385D01*
X50692165Y-85471384D01*
X50520027Y-85356365D01*
X50373635Y-85209973D01*
X50258616Y-85037835D01*
X50193239Y-84880000D01*
X50179389Y-84846564D01*
X50139000Y-84643516D01*
X50139000Y-84436484D01*
X50179389Y-84233436D01*
X50258615Y-84042167D01*
X50259186Y-84041313D01*
X50373635Y-83870027D01*
X50520027Y-83723635D01*
X50692165Y-83608616D01*
X50692167Y-83608615D01*
X50883436Y-83529389D01*
X51086484Y-83489000D01*
X51293516Y-83489000D01*
X51496564Y-83529389D01*
X51496564Y-83529389D01*
G37*
G36*
X59116564Y-83275389D02*
G01*
X59307833Y-83354615D01*
X59307835Y-83354616D01*
X59479973Y-83469635D01*
X59626365Y-83616027D01*
X59741385Y-83788167D01*
X59820611Y-83979436D01*
X59861000Y-84182484D01*
X59861000Y-84389516D01*
X59820611Y-84592564D01*
X59741385Y-84783833D01*
X59741384Y-84783835D01*
X59626365Y-84955973D01*
X59479973Y-85102365D01*
X59307835Y-85217384D01*
X59307834Y-85217385D01*
X59307833Y-85217385D01*
X59116564Y-85296611D01*
X58913516Y-85337000D01*
X58706484Y-85337000D01*
X58503436Y-85296611D01*
X58312167Y-85217385D01*
X58312166Y-85217385D01*
X58312165Y-85217384D01*
X58140027Y-85102365D01*
X57993635Y-84955973D01*
X57878616Y-84783835D01*
X57878615Y-84783833D01*
X57799389Y-84592564D01*
X57759000Y-84389516D01*
X57759000Y-84182484D01*
X57799389Y-83979436D01*
X57878615Y-83788167D01*
X57993635Y-83616027D01*
X58140027Y-83469635D01*
X58312165Y-83354616D01*
X58312167Y-83354615D01*
X58503436Y-83275389D01*
X58706484Y-83235000D01*
X58913516Y-83235000D01*
X59116564Y-83275389D01*
X59116564Y-83275389D01*
G37*
G36*
X83546822Y-79561313D02*
G01*
X83677379Y-79600917D01*
X83701387Y-79608200D01*
X83707241Y-79609976D01*
X83855077Y-79688995D01*
X83967024Y-79780868D01*
X83984659Y-79795341D01*
X84091004Y-79924922D01*
X84091005Y-79924924D01*
X84170024Y-80072758D01*
X84218687Y-80233177D01*
X84231000Y-80358196D01*
X84231000Y-81641804D01*
X84218687Y-81766823D01*
X84170024Y-81927242D01*
X84099114Y-82059906D01*
X84091004Y-82075078D01*
X83984659Y-82204659D01*
X83855078Y-82311004D01*
X83855076Y-82311005D01*
X83707242Y-82390024D01*
X83546823Y-82438687D01*
X83380000Y-82455117D01*
X83213178Y-82438687D01*
X83052759Y-82390024D01*
X82904925Y-82311005D01*
X82904923Y-82311004D01*
X82775342Y-82204659D01*
X82668997Y-82075078D01*
X82660887Y-82059906D01*
X82589977Y-81927242D01*
X82541314Y-81766823D01*
X82529001Y-81641804D01*
X82529000Y-80358197D01*
X82541313Y-80233178D01*
X82589976Y-80072759D01*
X82668995Y-79924923D01*
X82775341Y-79795341D01*
X82792978Y-79780867D01*
X82904922Y-79688996D01*
X82920310Y-79680771D01*
X83052758Y-79609976D01*
X83058613Y-79608200D01*
X83082620Y-79600917D01*
X83213177Y-79561313D01*
X83380000Y-79544883D01*
X83546822Y-79561313D01*
X83546822Y-79561313D01*
G37*
G36*
X75237022Y-79560590D02*
G01*
X75337681Y-79591125D01*
X75388012Y-79606392D01*
X75527164Y-79680771D01*
X75649133Y-79780867D01*
X75737871Y-79888995D01*
X75749229Y-79902835D01*
X75823608Y-80041987D01*
X75832942Y-80072758D01*
X75869410Y-80192977D01*
X75869410Y-80192979D01*
X75881000Y-80310654D01*
X75881000Y-81689346D01*
X75879447Y-81705117D01*
X75869410Y-81807023D01*
X75848766Y-81875076D01*
X75823608Y-81958013D01*
X75749229Y-82097165D01*
X75649133Y-82219133D01*
X75527165Y-82319229D01*
X75388013Y-82393608D01*
X75337682Y-82408875D01*
X75237023Y-82439410D01*
X75080000Y-82454875D01*
X74922978Y-82439410D01*
X74822319Y-82408875D01*
X74771988Y-82393608D01*
X74632836Y-82319229D01*
X74510868Y-82219133D01*
X74410772Y-82097165D01*
X74336393Y-81958013D01*
X74311235Y-81875076D01*
X74290591Y-81807023D01*
X74280554Y-81705117D01*
X74279001Y-81689346D01*
X74279000Y-80310655D01*
X74290590Y-80192980D01*
X74290590Y-80192978D01*
X74336392Y-80041989D01*
X74336392Y-80041988D01*
X74410771Y-79902836D01*
X74422130Y-79888995D01*
X74510867Y-79780867D01*
X74632835Y-79680771D01*
X74771987Y-79606392D01*
X74822318Y-79591125D01*
X74922977Y-79560590D01*
X75080000Y-79545125D01*
X75237022Y-79560590D01*
X75237022Y-79560590D01*
G37*
G36*
X86646822Y-79761313D02*
G01*
X86758996Y-79795341D01*
X86801387Y-79808200D01*
X86807241Y-79809976D01*
X86955077Y-79888995D01*
X87038958Y-79957835D01*
X87084659Y-79995341D01*
X87191004Y-80124922D01*
X87191005Y-80124924D01*
X87270024Y-80272758D01*
X87318687Y-80433177D01*
X87331000Y-80558196D01*
X87331000Y-81441803D01*
X87318687Y-81566822D01*
X87270024Y-81727242D01*
X87248867Y-81766823D01*
X87191004Y-81875078D01*
X87084659Y-82004659D01*
X86955078Y-82111004D01*
X86955076Y-82111005D01*
X86807242Y-82190024D01*
X86646823Y-82238687D01*
X86480000Y-82255117D01*
X86313178Y-82238687D01*
X86152759Y-82190024D01*
X86004925Y-82111005D01*
X86004923Y-82111004D01*
X85875342Y-82004659D01*
X85768997Y-81875078D01*
X85711134Y-81766823D01*
X85689977Y-81727242D01*
X85641314Y-81566823D01*
X85629000Y-81441803D01*
X85629000Y-80558197D01*
X85641313Y-80433178D01*
X85689976Y-80272759D01*
X85768995Y-80124923D01*
X85875341Y-79995341D01*
X85921042Y-79957835D01*
X86004922Y-79888996D01*
X86020094Y-79880886D01*
X86152758Y-79809976D01*
X86158613Y-79808200D01*
X86201003Y-79795341D01*
X86313177Y-79761313D01*
X86480000Y-79744883D01*
X86646822Y-79761313D01*
X86646822Y-79761313D01*
G37*
G36*
X103521823Y-78811313D02*
G01*
X103682242Y-78859976D01*
X103830078Y-78938995D01*
X103942025Y-79030868D01*
X103959660Y-79045341D01*
X104066005Y-79174922D01*
X104066006Y-79174924D01*
X104145025Y-79322758D01*
X104193688Y-79483177D01*
X104206001Y-79608196D01*
X104206001Y-80891804D01*
X104193688Y-81016823D01*
X104145025Y-81177242D01*
X104074115Y-81309906D01*
X104066005Y-81325078D01*
X103959660Y-81454659D01*
X103830079Y-81561004D01*
X103830077Y-81561005D01*
X103682243Y-81640024D01*
X103682240Y-81640025D01*
X103676375Y-81641804D01*
X103521824Y-81688687D01*
X103355001Y-81705117D01*
X103188179Y-81688687D01*
X103033628Y-81641804D01*
X103027763Y-81640025D01*
X103027760Y-81640024D01*
X102879926Y-81561005D01*
X102879924Y-81561004D01*
X102750343Y-81454659D01*
X102643998Y-81325078D01*
X102635888Y-81309906D01*
X102564978Y-81177242D01*
X102516315Y-81016823D01*
X102504002Y-80891804D01*
X102504001Y-79608197D01*
X102516314Y-79483178D01*
X102564977Y-79322759D01*
X102643996Y-79174923D01*
X102750342Y-79045341D01*
X102811825Y-78994883D01*
X102879923Y-78938996D01*
X102895311Y-78930771D01*
X103027759Y-78859976D01*
X103188178Y-78811313D01*
X103355001Y-78794883D01*
X103521823Y-78811313D01*
X103521823Y-78811313D01*
G37*
G36*
X95212023Y-78810590D02*
G01*
X95312682Y-78841125D01*
X95363013Y-78856392D01*
X95440172Y-78897635D01*
X95502165Y-78930771D01*
X95624134Y-79030867D01*
X95712872Y-79138995D01*
X95724230Y-79152835D01*
X95798609Y-79291987D01*
X95807943Y-79322758D01*
X95844411Y-79442977D01*
X95844411Y-79442979D01*
X95854472Y-79545125D01*
X95856001Y-79560655D01*
X95856001Y-80939345D01*
X95844411Y-81057023D01*
X95823767Y-81125076D01*
X95798609Y-81208013D01*
X95724230Y-81347165D01*
X95624134Y-81469133D01*
X95502166Y-81569229D01*
X95363014Y-81643608D01*
X95312683Y-81658875D01*
X95212024Y-81689410D01*
X95055001Y-81704875D01*
X94897979Y-81689410D01*
X94797320Y-81658875D01*
X94746989Y-81643608D01*
X94607837Y-81569229D01*
X94485869Y-81469133D01*
X94385773Y-81347165D01*
X94311394Y-81208013D01*
X94286236Y-81125076D01*
X94265592Y-81057023D01*
X94254002Y-80939345D01*
X94254001Y-79560656D01*
X94254008Y-79560590D01*
X94265591Y-79442980D01*
X94265591Y-79442978D01*
X94311393Y-79291989D01*
X94311393Y-79291988D01*
X94385772Y-79152836D01*
X94397131Y-79138995D01*
X94485868Y-79030867D01*
X94607836Y-78930771D01*
X94669829Y-78897635D01*
X94746988Y-78856392D01*
X94797319Y-78841125D01*
X94897978Y-78810590D01*
X95055001Y-78795125D01*
X95212023Y-78810590D01*
X95212023Y-78810590D01*
G37*
G36*
X106621823Y-79011313D02*
G01*
X106782242Y-79059976D01*
X106930078Y-79138995D01*
X107059660Y-79245341D01*
X107166005Y-79374922D01*
X107166006Y-79374924D01*
X107245025Y-79522758D01*
X107293688Y-79683177D01*
X107306001Y-79808196D01*
X107306001Y-80691803D01*
X107293688Y-80816822D01*
X107245025Y-80977242D01*
X107223868Y-81016823D01*
X107166005Y-81125078D01*
X107059660Y-81254659D01*
X106930079Y-81361004D01*
X106930077Y-81361005D01*
X106782243Y-81440024D01*
X106782240Y-81440025D01*
X106752381Y-81449083D01*
X106621824Y-81488687D01*
X106455001Y-81505117D01*
X106288179Y-81488687D01*
X106157622Y-81449083D01*
X106127763Y-81440025D01*
X106127760Y-81440024D01*
X105979926Y-81361005D01*
X105979924Y-81361004D01*
X105850343Y-81254659D01*
X105743998Y-81125078D01*
X105686135Y-81016823D01*
X105664978Y-80977242D01*
X105616315Y-80816823D01*
X105604001Y-80691803D01*
X105604001Y-79808197D01*
X105616314Y-79683178D01*
X105664977Y-79522759D01*
X105743996Y-79374923D01*
X105850342Y-79245341D01*
X105979923Y-79138996D01*
X105995095Y-79130886D01*
X106127759Y-79059976D01*
X106288178Y-79011313D01*
X106455001Y-78994883D01*
X106621823Y-79011313D01*
X106621823Y-79011313D01*
G37*
G36*
X59116564Y-78703389D02*
G01*
X59307833Y-78782615D01*
X59307835Y-78782616D01*
X59479973Y-78897635D01*
X59626365Y-79044027D01*
X59713828Y-79174924D01*
X59741385Y-79216167D01*
X59820611Y-79407436D01*
X59861000Y-79610484D01*
X59861000Y-79817516D01*
X59820611Y-80020564D01*
X59749194Y-80192980D01*
X59741384Y-80211835D01*
X59626365Y-80383973D01*
X59479973Y-80530365D01*
X59307835Y-80645384D01*
X59307834Y-80645385D01*
X59307833Y-80645385D01*
X59116564Y-80724611D01*
X58913516Y-80765000D01*
X58706484Y-80765000D01*
X58503436Y-80724611D01*
X58312167Y-80645385D01*
X58312166Y-80645385D01*
X58312165Y-80645384D01*
X58140027Y-80530365D01*
X57993635Y-80383973D01*
X57878616Y-80211835D01*
X57870806Y-80192980D01*
X57799389Y-80020564D01*
X57759000Y-79817516D01*
X57759000Y-79610484D01*
X57799389Y-79407436D01*
X57878615Y-79216167D01*
X57906173Y-79174924D01*
X57993635Y-79044027D01*
X58140027Y-78897635D01*
X58312165Y-78782616D01*
X58312167Y-78782615D01*
X58503436Y-78703389D01*
X58706484Y-78663000D01*
X58913516Y-78663000D01*
X59116564Y-78703389D01*
X59116564Y-78703389D01*
G37*
G36*
X51496564Y-78449389D02*
G01*
X51687833Y-78528615D01*
X51687835Y-78528616D01*
X51859973Y-78643635D01*
X52006365Y-78790027D01*
X52020589Y-78811314D01*
X52121385Y-78962167D01*
X52200611Y-79153436D01*
X52241000Y-79356484D01*
X52241000Y-79563516D01*
X52200611Y-79766564D01*
X52135016Y-79924924D01*
X52121384Y-79957835D01*
X52006365Y-80129973D01*
X51859973Y-80276365D01*
X51687835Y-80391384D01*
X51687834Y-80391385D01*
X51687833Y-80391385D01*
X51496564Y-80470611D01*
X51293516Y-80511000D01*
X51086484Y-80511000D01*
X50883436Y-80470611D01*
X50692167Y-80391385D01*
X50692166Y-80391385D01*
X50692165Y-80391384D01*
X50520027Y-80276365D01*
X50373635Y-80129973D01*
X50258616Y-79957835D01*
X50244984Y-79924924D01*
X50179389Y-79766564D01*
X50139000Y-79563516D01*
X50139000Y-79356484D01*
X50179389Y-79153436D01*
X50258615Y-78962167D01*
X50359412Y-78811314D01*
X50373635Y-78790027D01*
X50520027Y-78643635D01*
X50692165Y-78528616D01*
X50692167Y-78528615D01*
X50883436Y-78449389D01*
X51086484Y-78409000D01*
X51293516Y-78409000D01*
X51496564Y-78449389D01*
X51496564Y-78449389D01*
G37*
G36*
X149116564Y-75529389D02*
G01*
X149307833Y-75608615D01*
X149307835Y-75608616D01*
X149318926Y-75616027D01*
X149479973Y-75723635D01*
X149626365Y-75870027D01*
X149741385Y-76042167D01*
X149820611Y-76233436D01*
X149861000Y-76436484D01*
X149861000Y-76643516D01*
X149820611Y-76846564D01*
X149803442Y-76888013D01*
X149741384Y-77037835D01*
X149626365Y-77209973D01*
X149479973Y-77356365D01*
X149307835Y-77471384D01*
X149307834Y-77471385D01*
X149307833Y-77471385D01*
X149116564Y-77550611D01*
X148913516Y-77591000D01*
X148706484Y-77591000D01*
X148503436Y-77550611D01*
X148312167Y-77471385D01*
X148312166Y-77471385D01*
X148312165Y-77471384D01*
X148140027Y-77356365D01*
X147993635Y-77209973D01*
X147878616Y-77037835D01*
X147816558Y-76888013D01*
X147799389Y-76846564D01*
X147759000Y-76643516D01*
X147759000Y-76436484D01*
X147799389Y-76233436D01*
X147878615Y-76042167D01*
X147993635Y-75870027D01*
X148140027Y-75723635D01*
X148301074Y-75616027D01*
X148312165Y-75608616D01*
X148312167Y-75608615D01*
X148503436Y-75529389D01*
X148706484Y-75489000D01*
X148913516Y-75489000D01*
X149116564Y-75529389D01*
X149116564Y-75529389D01*
G37*
G36*
X120728571Y-75782863D02*
G01*
X120807023Y-75790590D01*
X120907682Y-75821125D01*
X120958013Y-75836392D01*
X121097165Y-75910771D01*
X121219133Y-76010867D01*
X121319229Y-76132835D01*
X121393608Y-76271987D01*
X121393608Y-76271988D01*
X121439410Y-76422977D01*
X121454875Y-76580000D01*
X121439410Y-76737023D01*
X121408875Y-76837682D01*
X121393608Y-76888013D01*
X121319229Y-77027165D01*
X121219133Y-77149133D01*
X121097165Y-77249229D01*
X120958013Y-77323608D01*
X120907682Y-77338875D01*
X120807023Y-77369410D01*
X120728571Y-77377137D01*
X120689346Y-77381000D01*
X119310654Y-77381000D01*
X119271429Y-77377137D01*
X119192977Y-77369410D01*
X119092318Y-77338875D01*
X119041987Y-77323608D01*
X118902835Y-77249229D01*
X118780867Y-77149133D01*
X118680771Y-77027165D01*
X118606392Y-76888013D01*
X118591125Y-76837682D01*
X118560590Y-76737023D01*
X118545125Y-76580000D01*
X118560590Y-76422977D01*
X118606392Y-76271988D01*
X118606392Y-76271987D01*
X118680771Y-76132835D01*
X118780867Y-76010867D01*
X118902835Y-75910771D01*
X119041987Y-75836392D01*
X119092318Y-75821125D01*
X119192977Y-75790590D01*
X119271429Y-75782863D01*
X119310654Y-75779000D01*
X120689346Y-75779000D01*
X120728571Y-75782863D01*
X120728571Y-75782863D01*
G37*
G36*
X141496564Y-75275389D02*
G01*
X141687833Y-75354615D01*
X141687835Y-75354616D01*
X141859973Y-75469635D01*
X142006365Y-75616027D01*
X142121385Y-75788167D01*
X142200611Y-75979436D01*
X142241000Y-76182484D01*
X142241000Y-76389516D01*
X142200611Y-76592564D01*
X142179506Y-76643516D01*
X142121384Y-76783835D01*
X142006365Y-76955973D01*
X141859973Y-77102365D01*
X141687835Y-77217384D01*
X141687834Y-77217385D01*
X141687833Y-77217385D01*
X141496564Y-77296611D01*
X141293516Y-77337000D01*
X141086484Y-77337000D01*
X140883436Y-77296611D01*
X140692167Y-77217385D01*
X140692166Y-77217385D01*
X140692165Y-77217384D01*
X140520027Y-77102365D01*
X140373635Y-76955973D01*
X140258616Y-76783835D01*
X140200494Y-76643516D01*
X140179389Y-76592564D01*
X140139000Y-76389516D01*
X140139000Y-76182484D01*
X140179389Y-75979436D01*
X140258615Y-75788167D01*
X140373635Y-75616027D01*
X140520027Y-75469635D01*
X140692165Y-75354616D01*
X140692167Y-75354615D01*
X140883436Y-75275389D01*
X141086484Y-75235000D01*
X141293516Y-75235000D01*
X141496564Y-75275389D01*
X141496564Y-75275389D01*
G37*
G36*
X59856153Y-71825922D02*
G01*
X59940848Y-71861004D01*
X60078359Y-71917963D01*
X60278342Y-72051587D01*
X60448413Y-72221658D01*
X60582037Y-72421641D01*
X60627072Y-72530365D01*
X60674078Y-72643847D01*
X60690666Y-72727242D01*
X60706536Y-72807023D01*
X60721000Y-72879742D01*
X60721000Y-73120258D01*
X60674078Y-73356153D01*
X60635953Y-73448194D01*
X60582037Y-73578359D01*
X60448413Y-73778342D01*
X60278342Y-73948413D01*
X60078359Y-74082037D01*
X59948194Y-74135953D01*
X59856153Y-74174078D01*
X59738205Y-74197539D01*
X59620259Y-74221000D01*
X59379741Y-74221000D01*
X59261795Y-74197539D01*
X59143847Y-74174078D01*
X59051806Y-74135953D01*
X58921641Y-74082037D01*
X58721658Y-73948413D01*
X58551587Y-73778342D01*
X58417963Y-73578359D01*
X58364047Y-73448194D01*
X58325922Y-73356153D01*
X58279000Y-73120258D01*
X58279000Y-72879742D01*
X58293465Y-72807023D01*
X58309334Y-72727242D01*
X58325922Y-72643847D01*
X58372928Y-72530365D01*
X58417963Y-72421641D01*
X58551587Y-72221658D01*
X58721658Y-72051587D01*
X58921641Y-71917963D01*
X59059152Y-71861004D01*
X59143847Y-71825922D01*
X59379741Y-71779000D01*
X59620259Y-71779000D01*
X59856153Y-71825922D01*
X59856153Y-71825922D01*
G37*
G36*
X52356153Y-71825922D02*
G01*
X52440848Y-71861004D01*
X52578359Y-71917963D01*
X52778342Y-72051587D01*
X52948413Y-72221658D01*
X53082037Y-72421641D01*
X53127072Y-72530365D01*
X53174078Y-72643847D01*
X53190666Y-72727242D01*
X53206536Y-72807023D01*
X53221000Y-72879742D01*
X53221000Y-73120258D01*
X53174078Y-73356153D01*
X53135953Y-73448194D01*
X53082037Y-73578359D01*
X52948413Y-73778342D01*
X52778342Y-73948413D01*
X52578359Y-74082037D01*
X52448194Y-74135953D01*
X52356153Y-74174078D01*
X52238205Y-74197539D01*
X52120259Y-74221000D01*
X51879741Y-74221000D01*
X51761795Y-74197539D01*
X51643847Y-74174078D01*
X51551806Y-74135953D01*
X51421641Y-74082037D01*
X51221658Y-73948413D01*
X51051587Y-73778342D01*
X50917963Y-73578359D01*
X50864047Y-73448194D01*
X50825922Y-73356153D01*
X50779000Y-73120258D01*
X50779000Y-72879742D01*
X50793465Y-72807023D01*
X50809334Y-72727242D01*
X50825922Y-72643847D01*
X50872928Y-72530365D01*
X50917963Y-72421641D01*
X51051587Y-72221658D01*
X51221658Y-72051587D01*
X51421641Y-71917963D01*
X51559152Y-71861004D01*
X51643847Y-71825922D01*
X51879741Y-71779000D01*
X52120259Y-71779000D01*
X52356153Y-71825922D01*
X52356153Y-71825922D01*
G37*
G36*
X83546822Y-70561313D02*
G01*
X83707241Y-70609976D01*
X83855077Y-70688995D01*
X83967024Y-70780868D01*
X83984659Y-70795341D01*
X84091004Y-70924922D01*
X84091005Y-70924924D01*
X84170024Y-71072758D01*
X84218687Y-71233177D01*
X84231000Y-71358196D01*
X84231000Y-72641804D01*
X84218687Y-72766823D01*
X84170024Y-72927242D01*
X84099114Y-73059906D01*
X84091004Y-73075078D01*
X83984659Y-73204659D01*
X83855078Y-73311004D01*
X83855076Y-73311005D01*
X83707242Y-73390024D01*
X83546823Y-73438687D01*
X83380000Y-73455117D01*
X83213178Y-73438687D01*
X83052759Y-73390024D01*
X82904925Y-73311005D01*
X82904923Y-73311004D01*
X82775342Y-73204659D01*
X82668997Y-73075078D01*
X82660887Y-73059906D01*
X82589977Y-72927242D01*
X82541314Y-72766823D01*
X82529001Y-72641804D01*
X82529000Y-71358197D01*
X82541313Y-71233178D01*
X82589976Y-71072759D01*
X82668995Y-70924923D01*
X82775341Y-70795341D01*
X82836824Y-70744883D01*
X82904922Y-70688996D01*
X82989787Y-70643635D01*
X83052758Y-70609976D01*
X83213177Y-70561313D01*
X83380000Y-70544883D01*
X83546822Y-70561313D01*
X83546822Y-70561313D01*
G37*
G36*
X75237022Y-70560590D02*
G01*
X75337681Y-70591125D01*
X75388012Y-70606392D01*
X75457688Y-70643635D01*
X75527164Y-70680771D01*
X75649133Y-70780867D01*
X75737871Y-70888995D01*
X75749229Y-70902835D01*
X75823608Y-71041987D01*
X75824227Y-71044027D01*
X75869410Y-71192977D01*
X75881000Y-71310655D01*
X75881000Y-72689345D01*
X75869410Y-72807023D01*
X75848766Y-72875076D01*
X75823608Y-72958013D01*
X75749229Y-73097165D01*
X75649133Y-73219133D01*
X75527165Y-73319229D01*
X75388013Y-73393608D01*
X75337682Y-73408875D01*
X75237023Y-73439410D01*
X75080000Y-73454875D01*
X74922978Y-73439410D01*
X74822319Y-73408875D01*
X74771988Y-73393608D01*
X74632836Y-73319229D01*
X74510868Y-73219133D01*
X74410772Y-73097165D01*
X74336393Y-72958013D01*
X74311235Y-72875076D01*
X74290591Y-72807023D01*
X74279001Y-72689345D01*
X74279000Y-71310656D01*
X74290590Y-71192978D01*
X74327058Y-71072758D01*
X74336392Y-71041988D01*
X74410771Y-70902836D01*
X74422130Y-70888995D01*
X74510867Y-70780867D01*
X74632835Y-70680771D01*
X74702311Y-70643635D01*
X74771987Y-70606392D01*
X74822318Y-70591125D01*
X74922977Y-70560590D01*
X75080000Y-70545125D01*
X75237022Y-70560590D01*
X75237022Y-70560590D01*
G37*
G36*
X86646822Y-70761313D02*
G01*
X86807241Y-70809976D01*
X86955077Y-70888995D01*
X87084659Y-70995341D01*
X87191004Y-71124922D01*
X87191005Y-71124924D01*
X87270024Y-71272758D01*
X87318687Y-71433177D01*
X87331000Y-71558196D01*
X87331000Y-72441803D01*
X87318687Y-72566822D01*
X87270024Y-72727242D01*
X87248867Y-72766823D01*
X87191004Y-72875078D01*
X87084659Y-73004659D01*
X86955078Y-73111004D01*
X86955076Y-73111005D01*
X86807242Y-73190024D01*
X86646823Y-73238687D01*
X86480000Y-73255117D01*
X86313178Y-73238687D01*
X86152759Y-73190024D01*
X86004925Y-73111005D01*
X86004923Y-73111004D01*
X85875342Y-73004659D01*
X85768997Y-72875078D01*
X85711134Y-72766823D01*
X85689977Y-72727242D01*
X85641314Y-72566823D01*
X85629000Y-72441803D01*
X85629000Y-71558197D01*
X85641313Y-71433178D01*
X85689976Y-71272759D01*
X85768995Y-71124923D01*
X85875341Y-70995341D01*
X86004922Y-70888996D01*
X86020094Y-70880886D01*
X86152758Y-70809976D01*
X86313177Y-70761313D01*
X86480000Y-70744883D01*
X86646822Y-70761313D01*
X86646822Y-70761313D01*
G37*
G36*
X141496564Y-70703389D02*
G01*
X141683613Y-70780867D01*
X141687835Y-70782616D01*
X141859973Y-70897635D01*
X142006365Y-71044027D01*
X142105892Y-71192979D01*
X142121385Y-71216167D01*
X142200611Y-71407436D01*
X142241000Y-71610484D01*
X142241000Y-71817516D01*
X142200611Y-72020564D01*
X142130973Y-72188686D01*
X142121384Y-72211835D01*
X142006365Y-72383973D01*
X141859973Y-72530365D01*
X141687835Y-72645384D01*
X141687834Y-72645385D01*
X141687833Y-72645385D01*
X141496564Y-72724611D01*
X141293516Y-72765000D01*
X141086484Y-72765000D01*
X140883436Y-72724611D01*
X140692167Y-72645385D01*
X140692166Y-72645385D01*
X140692165Y-72645384D01*
X140520027Y-72530365D01*
X140373635Y-72383973D01*
X140258616Y-72211835D01*
X140249027Y-72188686D01*
X140179389Y-72020564D01*
X140139000Y-71817516D01*
X140139000Y-71610484D01*
X140179389Y-71407436D01*
X140258615Y-71216167D01*
X140274109Y-71192979D01*
X140373635Y-71044027D01*
X140520027Y-70897635D01*
X140692165Y-70782616D01*
X140696387Y-70780867D01*
X140883436Y-70703389D01*
X141086484Y-70663000D01*
X141293516Y-70663000D01*
X141496564Y-70703389D01*
X141496564Y-70703389D01*
G37*
G36*
X149116564Y-70449389D02*
G01*
X149307833Y-70528615D01*
X149307835Y-70528616D01*
X149479973Y-70643635D01*
X149626365Y-70790027D01*
X149716500Y-70924923D01*
X149741385Y-70962167D01*
X149820611Y-71153436D01*
X149861000Y-71356484D01*
X149861000Y-71563516D01*
X149820611Y-71766564D01*
X149748761Y-71940025D01*
X149741384Y-71957835D01*
X149626365Y-72129973D01*
X149479973Y-72276365D01*
X149307835Y-72391384D01*
X149307834Y-72391385D01*
X149307833Y-72391385D01*
X149116564Y-72470611D01*
X148913516Y-72511000D01*
X148706484Y-72511000D01*
X148503436Y-72470611D01*
X148312167Y-72391385D01*
X148312166Y-72391385D01*
X148312165Y-72391384D01*
X148140027Y-72276365D01*
X147993635Y-72129973D01*
X147878616Y-71957835D01*
X147871239Y-71940025D01*
X147799389Y-71766564D01*
X147759000Y-71563516D01*
X147759000Y-71356484D01*
X147799389Y-71153436D01*
X147878615Y-70962167D01*
X147903501Y-70924923D01*
X147993635Y-70790027D01*
X148140027Y-70643635D01*
X148312165Y-70528616D01*
X148312167Y-70528615D01*
X148503436Y-70449389D01*
X148706484Y-70409000D01*
X148913516Y-70409000D01*
X149116564Y-70449389D01*
X149116564Y-70449389D01*
G37*
G36*
X103546822Y-69311313D02*
G01*
X103707241Y-69359976D01*
X103855077Y-69438995D01*
X103967024Y-69530868D01*
X103984659Y-69545341D01*
X104091004Y-69674922D01*
X104091005Y-69674924D01*
X104170024Y-69822758D01*
X104218687Y-69983177D01*
X104231000Y-70108196D01*
X104231000Y-71391804D01*
X104218687Y-71516823D01*
X104170024Y-71677242D01*
X104122280Y-71766564D01*
X104091004Y-71825078D01*
X103984659Y-71954659D01*
X103855078Y-72061004D01*
X103855076Y-72061005D01*
X103707242Y-72140024D01*
X103546823Y-72188687D01*
X103380000Y-72205117D01*
X103213178Y-72188687D01*
X103052759Y-72140024D01*
X102904925Y-72061005D01*
X102904923Y-72061004D01*
X102775342Y-71954659D01*
X102668997Y-71825078D01*
X102637721Y-71766564D01*
X102589977Y-71677242D01*
X102541314Y-71516823D01*
X102529001Y-71391804D01*
X102529000Y-70108197D01*
X102541313Y-69983178D01*
X102589976Y-69822759D01*
X102668995Y-69674923D01*
X102775341Y-69545341D01*
X102836824Y-69494883D01*
X102904922Y-69438996D01*
X102920310Y-69430771D01*
X103052758Y-69359976D01*
X103213177Y-69311313D01*
X103380000Y-69294883D01*
X103546822Y-69311313D01*
X103546822Y-69311313D01*
G37*
G36*
X95237022Y-69310590D02*
G01*
X95337681Y-69341125D01*
X95388012Y-69356392D01*
X95527164Y-69430771D01*
X95649133Y-69530867D01*
X95737871Y-69638995D01*
X95749229Y-69652835D01*
X95823608Y-69791987D01*
X95832942Y-69822758D01*
X95869410Y-69942977D01*
X95881000Y-70060655D01*
X95881000Y-71439345D01*
X95869410Y-71557023D01*
X95867440Y-71563516D01*
X95823608Y-71708013D01*
X95749229Y-71847165D01*
X95649133Y-71969133D01*
X95527165Y-72069229D01*
X95388013Y-72143608D01*
X95337682Y-72158875D01*
X95237023Y-72189410D01*
X95080000Y-72204875D01*
X94922978Y-72189410D01*
X94822319Y-72158875D01*
X94771988Y-72143608D01*
X94632836Y-72069229D01*
X94510868Y-71969133D01*
X94410772Y-71847165D01*
X94336393Y-71708013D01*
X94292561Y-71563516D01*
X94290591Y-71557023D01*
X94279001Y-71439345D01*
X94279000Y-70060656D01*
X94290590Y-69942978D01*
X94336392Y-69791989D01*
X94336392Y-69791988D01*
X94410771Y-69652836D01*
X94422130Y-69638995D01*
X94510867Y-69530867D01*
X94632835Y-69430771D01*
X94771987Y-69356392D01*
X94822318Y-69341125D01*
X94922977Y-69310590D01*
X95080000Y-69295125D01*
X95237022Y-69310590D01*
X95237022Y-69310590D01*
G37*
G36*
X106646822Y-69511313D02*
G01*
X106807241Y-69559976D01*
X106955077Y-69638995D01*
X107084659Y-69745341D01*
X107191004Y-69874922D01*
X107191005Y-69874924D01*
X107270024Y-70022758D01*
X107318687Y-70183177D01*
X107331000Y-70308196D01*
X107331000Y-71191803D01*
X107318687Y-71316822D01*
X107270024Y-71477242D01*
X107199114Y-71609906D01*
X107191004Y-71625078D01*
X107084659Y-71754659D01*
X106955078Y-71861004D01*
X106955076Y-71861005D01*
X106807242Y-71940024D01*
X106646823Y-71988687D01*
X106480000Y-72005117D01*
X106313178Y-71988687D01*
X106152759Y-71940024D01*
X106004925Y-71861005D01*
X106004923Y-71861004D01*
X105875342Y-71754659D01*
X105768997Y-71625078D01*
X105760887Y-71609906D01*
X105689977Y-71477242D01*
X105641314Y-71316823D01*
X105629000Y-71191803D01*
X105629000Y-70308197D01*
X105641313Y-70183178D01*
X105689976Y-70022759D01*
X105768995Y-69874923D01*
X105875341Y-69745341D01*
X105961144Y-69674924D01*
X106004922Y-69638996D01*
X106020094Y-69630886D01*
X106152758Y-69559976D01*
X106313177Y-69511313D01*
X106480000Y-69494883D01*
X106646822Y-69511313D01*
X106646822Y-69511313D01*
G37*
G36*
X59856153Y-66825922D02*
G01*
X59948194Y-66864047D01*
X60078359Y-66917963D01*
X60278342Y-67051587D01*
X60448413Y-67221658D01*
X60582037Y-67421641D01*
X60674078Y-67643848D01*
X60721000Y-67879741D01*
X60721000Y-68120259D01*
X60674078Y-68356152D01*
X60582037Y-68578359D01*
X60448413Y-68778342D01*
X60278342Y-68948413D01*
X60078359Y-69082037D01*
X59948194Y-69135953D01*
X59856153Y-69174078D01*
X59738205Y-69197539D01*
X59620259Y-69221000D01*
X59379741Y-69221000D01*
X59261795Y-69197539D01*
X59143847Y-69174078D01*
X59051806Y-69135953D01*
X58921641Y-69082037D01*
X58721658Y-68948413D01*
X58551587Y-68778342D01*
X58417963Y-68578359D01*
X58325922Y-68356152D01*
X58279000Y-68120259D01*
X58279000Y-67879741D01*
X58325922Y-67643848D01*
X58417963Y-67421641D01*
X58551587Y-67221658D01*
X58721658Y-67051587D01*
X58921641Y-66917963D01*
X59051806Y-66864047D01*
X59143847Y-66825922D01*
X59379741Y-66779000D01*
X59620259Y-66779000D01*
X59856153Y-66825922D01*
X59856153Y-66825922D01*
G37*
G36*
X52356153Y-66825922D02*
G01*
X52448194Y-66864047D01*
X52578359Y-66917963D01*
X52778342Y-67051587D01*
X52948413Y-67221658D01*
X53082037Y-67421641D01*
X53174078Y-67643848D01*
X53221000Y-67879741D01*
X53221000Y-68120259D01*
X53174078Y-68356152D01*
X53082037Y-68578359D01*
X52948413Y-68778342D01*
X52778342Y-68948413D01*
X52578359Y-69082037D01*
X52448194Y-69135953D01*
X52356153Y-69174078D01*
X52238205Y-69197539D01*
X52120259Y-69221000D01*
X51879741Y-69221000D01*
X51761795Y-69197539D01*
X51643847Y-69174078D01*
X51551806Y-69135953D01*
X51421641Y-69082037D01*
X51221658Y-68948413D01*
X51051587Y-68778342D01*
X50917963Y-68578359D01*
X50825922Y-68356152D01*
X50779000Y-68120259D01*
X50779000Y-67879741D01*
X50825922Y-67643848D01*
X50917963Y-67421641D01*
X51051587Y-67221658D01*
X51221658Y-67051587D01*
X51421641Y-66917963D01*
X51551806Y-66864047D01*
X51643847Y-66825922D01*
X51879741Y-66779000D01*
X52120259Y-66779000D01*
X52356153Y-66825922D01*
X52356153Y-66825922D01*
G37*
G36*
X121469294Y-64598633D02*
G01*
X121641695Y-64650931D01*
X121800583Y-64735858D01*
X121939849Y-64850151D01*
X122054142Y-64989417D01*
X122139069Y-65148305D01*
X122191367Y-65320706D01*
X122209025Y-65500000D01*
X122191367Y-65679294D01*
X122139069Y-65851695D01*
X122054142Y-66010583D01*
X121939849Y-66149849D01*
X121800583Y-66264142D01*
X121641695Y-66349069D01*
X121469294Y-66401367D01*
X121334931Y-66414600D01*
X121245069Y-66414600D01*
X121110706Y-66401367D01*
X120938305Y-66349069D01*
X120779417Y-66264142D01*
X120640151Y-66149849D01*
X120525858Y-66010583D01*
X120440931Y-65851695D01*
X120388633Y-65679294D01*
X120370975Y-65500000D01*
X120388633Y-65320706D01*
X120440931Y-65148305D01*
X120525858Y-64989417D01*
X120640151Y-64850151D01*
X120779417Y-64735858D01*
X120938305Y-64650931D01*
X121110706Y-64598633D01*
X121245069Y-64585400D01*
X121334931Y-64585400D01*
X121469294Y-64598633D01*
X121469294Y-64598633D01*
G37*
G36*
X119664600Y-66414600D02*
G01*
X117835400Y-66414600D01*
X117835400Y-64585400D01*
X119664600Y-64585400D01*
X119664600Y-66414600D01*
X119664600Y-66414600D01*
G37*
G36*
X101719294Y-64598633D02*
G01*
X101891695Y-64650931D01*
X102050583Y-64735858D01*
X102189849Y-64850151D01*
X102304142Y-64989417D01*
X102389069Y-65148305D01*
X102441367Y-65320706D01*
X102459025Y-65500000D01*
X102441367Y-65679294D01*
X102389069Y-65851695D01*
X102304142Y-66010583D01*
X102189849Y-66149849D01*
X102050583Y-66264142D01*
X101891695Y-66349069D01*
X101719294Y-66401367D01*
X101584931Y-66414600D01*
X101495069Y-66414600D01*
X101360706Y-66401367D01*
X101188305Y-66349069D01*
X101029417Y-66264142D01*
X100890151Y-66149849D01*
X100775858Y-66010583D01*
X100690931Y-65851695D01*
X100638633Y-65679294D01*
X100620975Y-65500000D01*
X100638633Y-65320706D01*
X100690931Y-65148305D01*
X100775858Y-64989417D01*
X100890151Y-64850151D01*
X101029417Y-64735858D01*
X101188305Y-64650931D01*
X101360706Y-64598633D01*
X101495069Y-64585400D01*
X101584931Y-64585400D01*
X101719294Y-64598633D01*
X101719294Y-64598633D01*
G37*
G36*
X99914600Y-66414600D02*
G01*
X98085400Y-66414600D01*
X98085400Y-64585400D01*
X99914600Y-64585400D01*
X99914600Y-66414600D01*
X99914600Y-66414600D01*
G37*
G36*
X146356153Y-63325922D02*
G01*
X146429134Y-63356152D01*
X146578359Y-63417963D01*
X146778342Y-63551587D01*
X146948413Y-63721658D01*
X147082037Y-63921641D01*
X147093126Y-63948413D01*
X147174078Y-64143847D01*
X147221000Y-64379741D01*
X147221000Y-64620259D01*
X147174078Y-64856152D01*
X147082037Y-65078359D01*
X146948413Y-65278342D01*
X146778342Y-65448413D01*
X146578359Y-65582037D01*
X146448194Y-65635953D01*
X146356153Y-65674078D01*
X146238205Y-65697539D01*
X146120259Y-65721000D01*
X145879741Y-65721000D01*
X145761795Y-65697539D01*
X145643847Y-65674078D01*
X145551806Y-65635953D01*
X145421641Y-65582037D01*
X145221658Y-65448413D01*
X145051587Y-65278342D01*
X144917963Y-65078359D01*
X144825922Y-64856152D01*
X144779000Y-64620259D01*
X144779000Y-64379741D01*
X144825922Y-64143847D01*
X144906874Y-63948413D01*
X144917963Y-63921641D01*
X145051587Y-63721658D01*
X145221658Y-63551587D01*
X145421641Y-63417963D01*
X145570866Y-63356152D01*
X145643847Y-63325922D01*
X145879741Y-63279000D01*
X146120259Y-63279000D01*
X146356153Y-63325922D01*
X146356153Y-63325922D01*
G37*
G36*
X52356153Y-61825922D02*
G01*
X52448194Y-61864047D01*
X52578359Y-61917963D01*
X52778342Y-62051587D01*
X52948413Y-62221658D01*
X53082037Y-62421641D01*
X53174078Y-62643848D01*
X53221000Y-62879741D01*
X53221000Y-63120259D01*
X53210648Y-63172303D01*
X53189425Y-63279000D01*
X53174078Y-63356152D01*
X53082037Y-63578359D01*
X52948413Y-63778342D01*
X52778342Y-63948413D01*
X52578359Y-64082037D01*
X52448194Y-64135953D01*
X52356153Y-64174078D01*
X52120259Y-64221000D01*
X51879741Y-64221000D01*
X51643847Y-64174078D01*
X51551806Y-64135953D01*
X51421641Y-64082037D01*
X51221658Y-63948413D01*
X51051587Y-63778342D01*
X50917963Y-63578359D01*
X50825922Y-63356152D01*
X50810576Y-63279000D01*
X50789352Y-63172303D01*
X50779000Y-63120259D01*
X50779000Y-62879741D01*
X50825922Y-62643848D01*
X50917963Y-62421641D01*
X51051587Y-62221658D01*
X51221658Y-62051587D01*
X51421641Y-61917963D01*
X51551806Y-61864047D01*
X51643847Y-61825922D01*
X51879741Y-61779000D01*
X52120259Y-61779000D01*
X52356153Y-61825922D01*
X52356153Y-61825922D01*
G37*
G36*
X59856153Y-61825922D02*
G01*
X59948194Y-61864047D01*
X60078359Y-61917963D01*
X60278342Y-62051587D01*
X60448413Y-62221658D01*
X60582037Y-62421641D01*
X60674078Y-62643848D01*
X60721000Y-62879741D01*
X60721000Y-63120259D01*
X60710648Y-63172303D01*
X60689425Y-63279000D01*
X60674078Y-63356152D01*
X60582037Y-63578359D01*
X60448413Y-63778342D01*
X60278342Y-63948413D01*
X60078359Y-64082037D01*
X59948194Y-64135953D01*
X59856153Y-64174078D01*
X59620259Y-64221000D01*
X59379741Y-64221000D01*
X59143847Y-64174078D01*
X59051806Y-64135953D01*
X58921641Y-64082037D01*
X58721658Y-63948413D01*
X58551587Y-63778342D01*
X58417963Y-63578359D01*
X58325922Y-63356152D01*
X58310576Y-63279000D01*
X58289352Y-63172303D01*
X58279000Y-63120259D01*
X58279000Y-62879741D01*
X58325922Y-62643848D01*
X58417963Y-62421641D01*
X58551587Y-62221658D01*
X58721658Y-62051587D01*
X58921641Y-61917963D01*
X59051806Y-61864047D01*
X59143847Y-61825922D01*
X59379741Y-61779000D01*
X59620259Y-61779000D01*
X59856153Y-61825922D01*
X59856153Y-61825922D01*
G37*
G36*
X121469294Y-62058633D02*
G01*
X121641695Y-62110931D01*
X121800583Y-62195858D01*
X121939849Y-62310151D01*
X122054142Y-62449417D01*
X122139069Y-62608305D01*
X122191367Y-62780706D01*
X122209025Y-62960000D01*
X122191367Y-63139294D01*
X122139069Y-63311695D01*
X122054142Y-63470583D01*
X121939849Y-63609849D01*
X121800583Y-63724142D01*
X121641695Y-63809069D01*
X121469294Y-63861367D01*
X121334931Y-63874600D01*
X121245069Y-63874600D01*
X121110706Y-63861367D01*
X120938305Y-63809069D01*
X120779417Y-63724142D01*
X120640151Y-63609849D01*
X120525858Y-63470583D01*
X120440931Y-63311695D01*
X120388633Y-63139294D01*
X120370975Y-62960000D01*
X120388633Y-62780706D01*
X120440931Y-62608305D01*
X120525858Y-62449417D01*
X120640151Y-62310151D01*
X120779417Y-62195858D01*
X120938305Y-62110931D01*
X121110706Y-62058633D01*
X121245069Y-62045400D01*
X121334931Y-62045400D01*
X121469294Y-62058633D01*
X121469294Y-62058633D01*
G37*
G36*
X118929294Y-62058633D02*
G01*
X119101695Y-62110931D01*
X119260583Y-62195858D01*
X119399849Y-62310151D01*
X119514142Y-62449417D01*
X119599069Y-62608305D01*
X119651367Y-62780706D01*
X119669025Y-62960000D01*
X119651367Y-63139294D01*
X119599069Y-63311695D01*
X119514142Y-63470583D01*
X119399849Y-63609849D01*
X119260583Y-63724142D01*
X119101695Y-63809069D01*
X118929294Y-63861367D01*
X118794931Y-63874600D01*
X118705069Y-63874600D01*
X118570706Y-63861367D01*
X118398305Y-63809069D01*
X118239417Y-63724142D01*
X118100151Y-63609849D01*
X117985858Y-63470583D01*
X117900931Y-63311695D01*
X117848633Y-63139294D01*
X117830975Y-62960000D01*
X117848633Y-62780706D01*
X117900931Y-62608305D01*
X117985858Y-62449417D01*
X118100151Y-62310151D01*
X118239417Y-62195858D01*
X118398305Y-62110931D01*
X118570706Y-62058633D01*
X118705069Y-62045400D01*
X118794931Y-62045400D01*
X118929294Y-62058633D01*
X118929294Y-62058633D01*
G37*
G36*
X99179294Y-62058633D02*
G01*
X99351695Y-62110931D01*
X99510583Y-62195858D01*
X99649849Y-62310151D01*
X99764142Y-62449417D01*
X99849069Y-62608305D01*
X99901367Y-62780706D01*
X99919025Y-62960000D01*
X99901367Y-63139294D01*
X99849069Y-63311695D01*
X99764142Y-63470583D01*
X99649849Y-63609849D01*
X99510583Y-63724142D01*
X99351695Y-63809069D01*
X99179294Y-63861367D01*
X99044931Y-63874600D01*
X98955069Y-63874600D01*
X98820706Y-63861367D01*
X98648305Y-63809069D01*
X98489417Y-63724142D01*
X98350151Y-63609849D01*
X98235858Y-63470583D01*
X98150931Y-63311695D01*
X98098633Y-63139294D01*
X98080975Y-62960000D01*
X98098633Y-62780706D01*
X98150931Y-62608305D01*
X98235858Y-62449417D01*
X98350151Y-62310151D01*
X98489417Y-62195858D01*
X98648305Y-62110931D01*
X98820706Y-62058633D01*
X98955069Y-62045400D01*
X99044931Y-62045400D01*
X99179294Y-62058633D01*
X99179294Y-62058633D01*
G37*
G36*
X101719294Y-62058633D02*
G01*
X101891695Y-62110931D01*
X102050583Y-62195858D01*
X102189849Y-62310151D01*
X102304142Y-62449417D01*
X102389069Y-62608305D01*
X102441367Y-62780706D01*
X102459025Y-62960000D01*
X102441367Y-63139294D01*
X102389069Y-63311695D01*
X102304142Y-63470583D01*
X102189849Y-63609849D01*
X102050583Y-63724142D01*
X101891695Y-63809069D01*
X101719294Y-63861367D01*
X101584931Y-63874600D01*
X101495069Y-63874600D01*
X101360706Y-63861367D01*
X101188305Y-63809069D01*
X101029417Y-63724142D01*
X100890151Y-63609849D01*
X100775858Y-63470583D01*
X100690931Y-63311695D01*
X100638633Y-63139294D01*
X100620975Y-62960000D01*
X100638633Y-62780706D01*
X100690931Y-62608305D01*
X100775858Y-62449417D01*
X100890151Y-62310151D01*
X101029417Y-62195858D01*
X101188305Y-62110931D01*
X101360706Y-62058633D01*
X101495069Y-62045400D01*
X101584931Y-62045400D01*
X101719294Y-62058633D01*
X101719294Y-62058633D01*
G37*
G36*
X75509167Y-60186439D02*
G01*
X75710298Y-60247451D01*
X75895661Y-60346530D01*
X76058133Y-60479867D01*
X76118236Y-60553102D01*
X76191471Y-60642339D01*
X76233516Y-60721000D01*
X76290549Y-60827701D01*
X76351561Y-61028832D01*
X76351561Y-61028835D01*
X76366858Y-61184142D01*
X76367000Y-61185589D01*
X76367000Y-62814411D01*
X76351561Y-62971168D01*
X76290549Y-63172299D01*
X76244682Y-63258110D01*
X76191471Y-63357661D01*
X76058133Y-63520133D01*
X75895661Y-63653471D01*
X75796110Y-63706682D01*
X75710299Y-63752549D01*
X75509168Y-63813561D01*
X75300000Y-63834162D01*
X75090833Y-63813561D01*
X74889702Y-63752549D01*
X74803891Y-63706682D01*
X74704340Y-63653471D01*
X74541868Y-63520133D01*
X74408530Y-63357661D01*
X74343964Y-63236865D01*
X74309452Y-63172299D01*
X74289114Y-63105255D01*
X74248439Y-62971170D01*
X74233000Y-62814413D01*
X74233000Y-61185588D01*
X74248439Y-61028836D01*
X74248439Y-61028833D01*
X74309451Y-60827702D01*
X74408530Y-60642339D01*
X74541867Y-60479867D01*
X74615102Y-60419764D01*
X74704339Y-60346529D01*
X74831909Y-60278342D01*
X74889701Y-60247451D01*
X75090832Y-60186439D01*
X75300000Y-60165838D01*
X75509167Y-60186439D01*
X75509167Y-60186439D01*
G37*
G36*
X84909167Y-60186439D02*
G01*
X85110298Y-60247451D01*
X85295661Y-60346530D01*
X85458133Y-60479867D01*
X85518236Y-60553102D01*
X85591471Y-60642339D01*
X85633516Y-60721000D01*
X85690549Y-60827701D01*
X85751561Y-61028832D01*
X85751561Y-61028835D01*
X85766858Y-61184142D01*
X85767000Y-61185589D01*
X85767000Y-62814411D01*
X85751561Y-62971168D01*
X85690549Y-63172299D01*
X85644682Y-63258110D01*
X85591471Y-63357661D01*
X85458133Y-63520133D01*
X85295661Y-63653471D01*
X85196110Y-63706682D01*
X85110299Y-63752549D01*
X84909168Y-63813561D01*
X84700000Y-63834162D01*
X84490833Y-63813561D01*
X84289702Y-63752549D01*
X84203891Y-63706682D01*
X84104340Y-63653471D01*
X83941868Y-63520133D01*
X83808530Y-63357661D01*
X83743964Y-63236865D01*
X83709452Y-63172299D01*
X83689114Y-63105255D01*
X83648439Y-62971170D01*
X83633000Y-62814413D01*
X83633000Y-61185588D01*
X83648439Y-61028836D01*
X83648439Y-61028833D01*
X83709451Y-60827702D01*
X83808530Y-60642339D01*
X83941867Y-60479867D01*
X84015102Y-60419764D01*
X84104339Y-60346529D01*
X84231909Y-60278342D01*
X84289701Y-60247451D01*
X84490832Y-60186439D01*
X84700000Y-60165838D01*
X84909167Y-60186439D01*
X84909167Y-60186439D01*
G37*
G36*
X80209167Y-60186439D02*
G01*
X80410298Y-60247451D01*
X80595661Y-60346530D01*
X80758133Y-60479867D01*
X80818236Y-60553102D01*
X80891471Y-60642339D01*
X80933516Y-60721000D01*
X80990549Y-60827701D01*
X81051561Y-61028832D01*
X81051561Y-61028835D01*
X81066858Y-61184142D01*
X81067000Y-61185589D01*
X81067000Y-62814411D01*
X81051561Y-62971168D01*
X80990549Y-63172299D01*
X80944682Y-63258110D01*
X80891471Y-63357661D01*
X80758133Y-63520133D01*
X80595661Y-63653471D01*
X80496110Y-63706682D01*
X80410299Y-63752549D01*
X80209168Y-63813561D01*
X80000000Y-63834162D01*
X79790833Y-63813561D01*
X79589702Y-63752549D01*
X79503891Y-63706682D01*
X79404340Y-63653471D01*
X79241868Y-63520133D01*
X79108530Y-63357661D01*
X79043964Y-63236865D01*
X79009452Y-63172299D01*
X78989114Y-63105255D01*
X78948439Y-62971170D01*
X78933000Y-62814413D01*
X78933000Y-61185588D01*
X78948439Y-61028836D01*
X78948439Y-61028833D01*
X79009451Y-60827702D01*
X79108530Y-60642339D01*
X79241867Y-60479867D01*
X79315102Y-60419764D01*
X79404339Y-60346529D01*
X79531909Y-60278342D01*
X79589701Y-60247451D01*
X79790832Y-60186439D01*
X80000000Y-60165838D01*
X80209167Y-60186439D01*
X80209167Y-60186439D01*
G37*
G36*
X121469294Y-59518633D02*
G01*
X121641695Y-59570931D01*
X121800583Y-59655858D01*
X121939849Y-59770151D01*
X122054142Y-59909417D01*
X122139069Y-60068305D01*
X122191367Y-60240706D01*
X122209025Y-60420000D01*
X122191367Y-60599294D01*
X122139069Y-60771695D01*
X122054142Y-60930583D01*
X121939849Y-61069849D01*
X121800583Y-61184142D01*
X121641695Y-61269069D01*
X121469294Y-61321367D01*
X121334931Y-61334600D01*
X121245069Y-61334600D01*
X121110706Y-61321367D01*
X120938305Y-61269069D01*
X120779417Y-61184142D01*
X120640151Y-61069849D01*
X120525858Y-60930583D01*
X120440931Y-60771695D01*
X120388633Y-60599294D01*
X120370975Y-60420000D01*
X120388633Y-60240706D01*
X120440931Y-60068305D01*
X120525858Y-59909417D01*
X120640151Y-59770151D01*
X120779417Y-59655858D01*
X120938305Y-59570931D01*
X121110706Y-59518633D01*
X121245069Y-59505400D01*
X121334931Y-59505400D01*
X121469294Y-59518633D01*
X121469294Y-59518633D01*
G37*
G36*
X118929294Y-59518633D02*
G01*
X119101695Y-59570931D01*
X119260583Y-59655858D01*
X119399849Y-59770151D01*
X119514142Y-59909417D01*
X119599069Y-60068305D01*
X119651367Y-60240706D01*
X119669025Y-60420000D01*
X119651367Y-60599294D01*
X119599069Y-60771695D01*
X119514142Y-60930583D01*
X119399849Y-61069849D01*
X119260583Y-61184142D01*
X119101695Y-61269069D01*
X118929294Y-61321367D01*
X118794931Y-61334600D01*
X118705069Y-61334600D01*
X118570706Y-61321367D01*
X118398305Y-61269069D01*
X118239417Y-61184142D01*
X118100151Y-61069849D01*
X117985858Y-60930583D01*
X117900931Y-60771695D01*
X117848633Y-60599294D01*
X117830975Y-60420000D01*
X117848633Y-60240706D01*
X117900931Y-60068305D01*
X117985858Y-59909417D01*
X118100151Y-59770151D01*
X118239417Y-59655858D01*
X118398305Y-59570931D01*
X118570706Y-59518633D01*
X118705069Y-59505400D01*
X118794931Y-59505400D01*
X118929294Y-59518633D01*
X118929294Y-59518633D01*
G37*
G36*
X99179294Y-59518633D02*
G01*
X99351695Y-59570931D01*
X99510583Y-59655858D01*
X99649849Y-59770151D01*
X99764142Y-59909417D01*
X99849069Y-60068305D01*
X99901367Y-60240706D01*
X99919025Y-60420000D01*
X99901367Y-60599294D01*
X99849069Y-60771695D01*
X99764142Y-60930583D01*
X99649849Y-61069849D01*
X99510583Y-61184142D01*
X99351695Y-61269069D01*
X99179294Y-61321367D01*
X99044931Y-61334600D01*
X98955069Y-61334600D01*
X98820706Y-61321367D01*
X98648305Y-61269069D01*
X98489417Y-61184142D01*
X98350151Y-61069849D01*
X98235858Y-60930583D01*
X98150931Y-60771695D01*
X98098633Y-60599294D01*
X98080975Y-60420000D01*
X98098633Y-60240706D01*
X98150931Y-60068305D01*
X98235858Y-59909417D01*
X98350151Y-59770151D01*
X98489417Y-59655858D01*
X98648305Y-59570931D01*
X98820706Y-59518633D01*
X98955069Y-59505400D01*
X99044931Y-59505400D01*
X99179294Y-59518633D01*
X99179294Y-59518633D01*
G37*
G36*
X101719294Y-59518633D02*
G01*
X101891695Y-59570931D01*
X102050583Y-59655858D01*
X102189849Y-59770151D01*
X102304142Y-59909417D01*
X102389069Y-60068305D01*
X102441367Y-60240706D01*
X102459025Y-60420000D01*
X102441367Y-60599294D01*
X102389069Y-60771695D01*
X102304142Y-60930583D01*
X102189849Y-61069849D01*
X102050583Y-61184142D01*
X101891695Y-61269069D01*
X101719294Y-61321367D01*
X101584931Y-61334600D01*
X101495069Y-61334600D01*
X101360706Y-61321367D01*
X101188305Y-61269069D01*
X101029417Y-61184142D01*
X100890151Y-61069849D01*
X100775858Y-60930583D01*
X100690931Y-60771695D01*
X100638633Y-60599294D01*
X100620975Y-60420000D01*
X100638633Y-60240706D01*
X100690931Y-60068305D01*
X100775858Y-59909417D01*
X100890151Y-59770151D01*
X101029417Y-59655858D01*
X101188305Y-59570931D01*
X101360706Y-59518633D01*
X101495069Y-59505400D01*
X101584931Y-59505400D01*
X101719294Y-59518633D01*
X101719294Y-59518633D01*
G37*
G36*
X146356153Y-58325922D02*
G01*
X146382897Y-58337000D01*
X146578359Y-58417963D01*
X146778342Y-58551587D01*
X146948413Y-58721658D01*
X147082037Y-58921641D01*
X147174078Y-59143848D01*
X147221000Y-59379741D01*
X147221000Y-59620259D01*
X147174078Y-59856152D01*
X147082037Y-60078359D01*
X146948413Y-60278342D01*
X146778342Y-60448413D01*
X146578359Y-60582037D01*
X146448194Y-60635953D01*
X146356153Y-60674078D01*
X146120259Y-60721000D01*
X145879741Y-60721000D01*
X145643847Y-60674078D01*
X145551806Y-60635953D01*
X145421641Y-60582037D01*
X145221658Y-60448413D01*
X145051587Y-60278342D01*
X144917963Y-60078359D01*
X144825922Y-59856152D01*
X144779000Y-59620259D01*
X144779000Y-59379741D01*
X144825922Y-59143848D01*
X144917963Y-58921641D01*
X145051587Y-58721658D01*
X145221658Y-58551587D01*
X145421641Y-58417963D01*
X145617103Y-58337000D01*
X145643847Y-58325922D01*
X145879741Y-58279000D01*
X146120259Y-58279000D01*
X146356153Y-58325922D01*
X146356153Y-58325922D01*
G37*
G36*
X78100562Y-57578181D02*
G01*
X78135481Y-57588774D01*
X78167663Y-57605976D01*
X78195873Y-57629127D01*
X78219024Y-57657337D01*
X78236226Y-57689519D01*
X78246819Y-57724438D01*
X78251000Y-57766895D01*
X78251000Y-59233105D01*
X78246819Y-59275562D01*
X78236226Y-59310481D01*
X78219024Y-59342663D01*
X78195873Y-59370873D01*
X78167663Y-59394024D01*
X78135481Y-59411226D01*
X78100562Y-59421819D01*
X78058105Y-59426000D01*
X76916895Y-59426000D01*
X76874438Y-59421819D01*
X76839519Y-59411226D01*
X76807337Y-59394024D01*
X76779127Y-59370873D01*
X76755976Y-59342663D01*
X76738774Y-59310481D01*
X76728181Y-59275562D01*
X76724000Y-59233105D01*
X76724000Y-57766895D01*
X76728181Y-57724438D01*
X76738774Y-57689519D01*
X76755976Y-57657337D01*
X76779127Y-57629127D01*
X76807337Y-57605976D01*
X76839519Y-57588774D01*
X76874438Y-57578181D01*
X76916895Y-57574000D01*
X78058105Y-57574000D01*
X78100562Y-57578181D01*
X78100562Y-57578181D01*
G37*
G36*
X83125562Y-57578181D02*
G01*
X83160481Y-57588774D01*
X83192663Y-57605976D01*
X83220873Y-57629127D01*
X83244024Y-57657337D01*
X83261226Y-57689519D01*
X83271819Y-57724438D01*
X83276000Y-57766895D01*
X83276000Y-59233105D01*
X83271819Y-59275562D01*
X83261226Y-59310481D01*
X83244024Y-59342663D01*
X83220873Y-59370873D01*
X83192663Y-59394024D01*
X83160481Y-59411226D01*
X83125562Y-59421819D01*
X83083105Y-59426000D01*
X81941895Y-59426000D01*
X81899438Y-59421819D01*
X81864519Y-59411226D01*
X81832337Y-59394024D01*
X81804127Y-59370873D01*
X81780976Y-59342663D01*
X81763774Y-59310481D01*
X81753181Y-59275562D01*
X81749000Y-59233105D01*
X81749000Y-57766895D01*
X81753181Y-57724438D01*
X81763774Y-57689519D01*
X81780976Y-57657337D01*
X81804127Y-57629127D01*
X81832337Y-57605976D01*
X81864519Y-57588774D01*
X81899438Y-57578181D01*
X81941895Y-57574000D01*
X83083105Y-57574000D01*
X83125562Y-57578181D01*
X83125562Y-57578181D01*
G37*
G36*
X75125562Y-57578181D02*
G01*
X75160481Y-57588774D01*
X75192663Y-57605976D01*
X75220873Y-57629127D01*
X75244024Y-57657337D01*
X75261226Y-57689519D01*
X75271819Y-57724438D01*
X75276000Y-57766895D01*
X75276000Y-59233105D01*
X75271819Y-59275562D01*
X75261226Y-59310481D01*
X75244024Y-59342663D01*
X75220873Y-59370873D01*
X75192663Y-59394024D01*
X75160481Y-59411226D01*
X75125562Y-59421819D01*
X75083105Y-59426000D01*
X73941895Y-59426000D01*
X73899438Y-59421819D01*
X73864519Y-59411226D01*
X73832337Y-59394024D01*
X73804127Y-59370873D01*
X73780976Y-59342663D01*
X73763774Y-59310481D01*
X73753181Y-59275562D01*
X73749000Y-59233105D01*
X73749000Y-57766895D01*
X73753181Y-57724438D01*
X73763774Y-57689519D01*
X73780976Y-57657337D01*
X73804127Y-57629127D01*
X73832337Y-57605976D01*
X73864519Y-57588774D01*
X73899438Y-57578181D01*
X73941895Y-57574000D01*
X75083105Y-57574000D01*
X75125562Y-57578181D01*
X75125562Y-57578181D01*
G37*
G36*
X86100562Y-57578181D02*
G01*
X86135481Y-57588774D01*
X86167663Y-57605976D01*
X86195873Y-57629127D01*
X86219024Y-57657337D01*
X86236226Y-57689519D01*
X86246819Y-57724438D01*
X86251000Y-57766895D01*
X86251000Y-59233105D01*
X86246819Y-59275562D01*
X86236226Y-59310481D01*
X86219024Y-59342663D01*
X86195873Y-59370873D01*
X86167663Y-59394024D01*
X86135481Y-59411226D01*
X86100562Y-59421819D01*
X86058105Y-59426000D01*
X84916895Y-59426000D01*
X84874438Y-59421819D01*
X84839519Y-59411226D01*
X84807337Y-59394024D01*
X84779127Y-59370873D01*
X84755976Y-59342663D01*
X84738774Y-59310481D01*
X84728181Y-59275562D01*
X84724000Y-59233105D01*
X84724000Y-57766895D01*
X84728181Y-57724438D01*
X84738774Y-57689519D01*
X84755976Y-57657337D01*
X84779127Y-57629127D01*
X84807337Y-57605976D01*
X84839519Y-57588774D01*
X84874438Y-57578181D01*
X84916895Y-57574000D01*
X86058105Y-57574000D01*
X86100562Y-57578181D01*
X86100562Y-57578181D01*
G37*
G36*
X118929294Y-56978633D02*
G01*
X119101695Y-57030931D01*
X119260583Y-57115858D01*
X119399849Y-57230151D01*
X119514142Y-57369417D01*
X119599069Y-57528305D01*
X119651367Y-57700706D01*
X119669025Y-57880000D01*
X119651367Y-58059294D01*
X119599069Y-58231695D01*
X119514142Y-58390583D01*
X119399849Y-58529849D01*
X119260583Y-58644142D01*
X119101695Y-58729069D01*
X118929294Y-58781367D01*
X118794931Y-58794600D01*
X118705069Y-58794600D01*
X118570706Y-58781367D01*
X118398305Y-58729069D01*
X118239417Y-58644142D01*
X118100151Y-58529849D01*
X117985858Y-58390583D01*
X117900931Y-58231695D01*
X117848633Y-58059294D01*
X117830975Y-57880000D01*
X117848633Y-57700706D01*
X117900931Y-57528305D01*
X117985858Y-57369417D01*
X118100151Y-57230151D01*
X118239417Y-57115858D01*
X118398305Y-57030931D01*
X118570706Y-56978633D01*
X118705069Y-56965400D01*
X118794931Y-56965400D01*
X118929294Y-56978633D01*
X118929294Y-56978633D01*
G37*
G36*
X101719294Y-56978633D02*
G01*
X101891695Y-57030931D01*
X102050583Y-57115858D01*
X102189849Y-57230151D01*
X102304142Y-57369417D01*
X102389069Y-57528305D01*
X102441367Y-57700706D01*
X102459025Y-57880000D01*
X102441367Y-58059294D01*
X102389069Y-58231695D01*
X102304142Y-58390583D01*
X102189849Y-58529849D01*
X102050583Y-58644142D01*
X101891695Y-58729069D01*
X101719294Y-58781367D01*
X101584931Y-58794600D01*
X101495069Y-58794600D01*
X101360706Y-58781367D01*
X101188305Y-58729069D01*
X101029417Y-58644142D01*
X100890151Y-58529849D01*
X100775858Y-58390583D01*
X100690931Y-58231695D01*
X100638633Y-58059294D01*
X100620975Y-57880000D01*
X100638633Y-57700706D01*
X100690931Y-57528305D01*
X100775858Y-57369417D01*
X100890151Y-57230151D01*
X101029417Y-57115858D01*
X101188305Y-57030931D01*
X101360706Y-56978633D01*
X101495069Y-56965400D01*
X101584931Y-56965400D01*
X101719294Y-56978633D01*
X101719294Y-56978633D01*
G37*
G36*
X99179294Y-56978633D02*
G01*
X99351695Y-57030931D01*
X99510583Y-57115858D01*
X99649849Y-57230151D01*
X99764142Y-57369417D01*
X99849069Y-57528305D01*
X99901367Y-57700706D01*
X99919025Y-57880000D01*
X99901367Y-58059294D01*
X99849069Y-58231695D01*
X99764142Y-58390583D01*
X99649849Y-58529849D01*
X99510583Y-58644142D01*
X99351695Y-58729069D01*
X99179294Y-58781367D01*
X99044931Y-58794600D01*
X98955069Y-58794600D01*
X98820706Y-58781367D01*
X98648305Y-58729069D01*
X98489417Y-58644142D01*
X98350151Y-58529849D01*
X98235858Y-58390583D01*
X98150931Y-58231695D01*
X98098633Y-58059294D01*
X98080975Y-57880000D01*
X98098633Y-57700706D01*
X98150931Y-57528305D01*
X98235858Y-57369417D01*
X98350151Y-57230151D01*
X98489417Y-57115858D01*
X98648305Y-57030931D01*
X98820706Y-56978633D01*
X98955069Y-56965400D01*
X99044931Y-56965400D01*
X99179294Y-56978633D01*
X99179294Y-56978633D01*
G37*
G36*
X121469294Y-56978633D02*
G01*
X121641695Y-57030931D01*
X121800583Y-57115858D01*
X121939849Y-57230151D01*
X122054142Y-57369417D01*
X122139069Y-57528305D01*
X122191367Y-57700706D01*
X122209025Y-57880000D01*
X122191367Y-58059294D01*
X122139069Y-58231695D01*
X122054142Y-58390583D01*
X121939849Y-58529849D01*
X121800583Y-58644142D01*
X121641695Y-58729069D01*
X121469294Y-58781367D01*
X121334931Y-58794600D01*
X121245069Y-58794600D01*
X121110706Y-58781367D01*
X120938305Y-58729069D01*
X120779417Y-58644142D01*
X120640151Y-58529849D01*
X120525858Y-58390583D01*
X120440931Y-58231695D01*
X120388633Y-58059294D01*
X120370975Y-57880000D01*
X120388633Y-57700706D01*
X120440931Y-57528305D01*
X120525858Y-57369417D01*
X120640151Y-57230151D01*
X120779417Y-57115858D01*
X120938305Y-57030931D01*
X121110706Y-56978633D01*
X121245069Y-56965400D01*
X121334931Y-56965400D01*
X121469294Y-56978633D01*
X121469294Y-56978633D01*
G37*
G36*
X51496564Y-56529389D02*
G01*
X51687833Y-56608615D01*
X51687835Y-56608616D01*
X51859973Y-56723635D01*
X52006365Y-56870027D01*
X52113878Y-57030931D01*
X52121385Y-57042167D01*
X52200611Y-57233436D01*
X52241000Y-57436484D01*
X52241000Y-57643516D01*
X52200611Y-57846564D01*
X52186761Y-57880000D01*
X52121384Y-58037835D01*
X52006365Y-58209973D01*
X51859973Y-58356365D01*
X51687835Y-58471384D01*
X51687834Y-58471385D01*
X51687833Y-58471385D01*
X51496564Y-58550611D01*
X51293516Y-58591000D01*
X51086484Y-58591000D01*
X50883436Y-58550611D01*
X50692167Y-58471385D01*
X50692166Y-58471385D01*
X50692165Y-58471384D01*
X50520027Y-58356365D01*
X50373635Y-58209973D01*
X50258616Y-58037835D01*
X50193239Y-57880000D01*
X50179389Y-57846564D01*
X50139000Y-57643516D01*
X50139000Y-57436484D01*
X50179389Y-57233436D01*
X50258615Y-57042167D01*
X50266123Y-57030931D01*
X50373635Y-56870027D01*
X50520027Y-56723635D01*
X50692165Y-56608616D01*
X50692167Y-56608615D01*
X50883436Y-56529389D01*
X51086484Y-56489000D01*
X51293516Y-56489000D01*
X51496564Y-56529389D01*
X51496564Y-56529389D01*
G37*
G36*
X59116564Y-56275389D02*
G01*
X59307833Y-56354615D01*
X59307835Y-56354616D01*
X59479973Y-56469635D01*
X59626365Y-56616027D01*
X59725332Y-56764141D01*
X59741385Y-56788167D01*
X59820611Y-56979436D01*
X59861000Y-57182484D01*
X59861000Y-57389516D01*
X59820611Y-57592564D01*
X59748401Y-57766895D01*
X59741384Y-57783835D01*
X59626365Y-57955973D01*
X59479973Y-58102365D01*
X59307835Y-58217384D01*
X59307834Y-58217385D01*
X59307833Y-58217385D01*
X59116564Y-58296611D01*
X58913516Y-58337000D01*
X58706484Y-58337000D01*
X58503436Y-58296611D01*
X58312167Y-58217385D01*
X58312166Y-58217385D01*
X58312165Y-58217384D01*
X58140027Y-58102365D01*
X57993635Y-57955973D01*
X57878616Y-57783835D01*
X57871599Y-57766895D01*
X57799389Y-57592564D01*
X57759000Y-57389516D01*
X57759000Y-57182484D01*
X57799389Y-56979436D01*
X57878615Y-56788167D01*
X57894669Y-56764141D01*
X57993635Y-56616027D01*
X58140027Y-56469635D01*
X58312165Y-56354616D01*
X58312167Y-56354615D01*
X58503436Y-56275389D01*
X58706484Y-56235000D01*
X58913516Y-56235000D01*
X59116564Y-56275389D01*
X59116564Y-56275389D01*
G37*
G36*
X77559294Y-55098633D02*
G01*
X77731695Y-55150931D01*
X77890583Y-55235858D01*
X78029849Y-55350151D01*
X78144142Y-55489417D01*
X78229069Y-55648305D01*
X78281367Y-55820706D01*
X78299025Y-56000000D01*
X78281367Y-56179294D01*
X78229069Y-56351695D01*
X78144142Y-56510583D01*
X78029849Y-56649849D01*
X77890583Y-56764142D01*
X77731695Y-56849069D01*
X77559294Y-56901367D01*
X77424931Y-56914600D01*
X77335069Y-56914600D01*
X77200706Y-56901367D01*
X77028305Y-56849069D01*
X76869417Y-56764142D01*
X76730151Y-56649849D01*
X76615858Y-56510583D01*
X76530931Y-56351695D01*
X76478633Y-56179294D01*
X76460975Y-56000000D01*
X76478633Y-55820706D01*
X76530931Y-55648305D01*
X76615858Y-55489417D01*
X76730151Y-55350151D01*
X76869417Y-55235858D01*
X77028305Y-55150931D01*
X77200706Y-55098633D01*
X77335069Y-55085400D01*
X77424931Y-55085400D01*
X77559294Y-55098633D01*
X77559294Y-55098633D01*
G37*
G36*
X85914600Y-56914600D02*
G01*
X84085400Y-56914600D01*
X84085400Y-55085400D01*
X85914600Y-55085400D01*
X85914600Y-56914600D01*
X85914600Y-56914600D01*
G37*
G36*
X82639294Y-55098633D02*
G01*
X82811695Y-55150931D01*
X82970583Y-55235858D01*
X83109849Y-55350151D01*
X83224142Y-55489417D01*
X83309069Y-55648305D01*
X83361367Y-55820706D01*
X83379025Y-56000000D01*
X83361367Y-56179294D01*
X83309069Y-56351695D01*
X83224142Y-56510583D01*
X83109849Y-56649849D01*
X82970583Y-56764142D01*
X82811695Y-56849069D01*
X82639294Y-56901367D01*
X82504931Y-56914600D01*
X82415069Y-56914600D01*
X82280706Y-56901367D01*
X82108305Y-56849069D01*
X81949417Y-56764142D01*
X81810151Y-56649849D01*
X81695858Y-56510583D01*
X81610931Y-56351695D01*
X81558633Y-56179294D01*
X81540975Y-56000000D01*
X81558633Y-55820706D01*
X81610931Y-55648305D01*
X81695858Y-55489417D01*
X81810151Y-55350151D01*
X81949417Y-55235858D01*
X82108305Y-55150931D01*
X82280706Y-55098633D01*
X82415069Y-55085400D01*
X82504931Y-55085400D01*
X82639294Y-55098633D01*
X82639294Y-55098633D01*
G37*
G36*
X80099294Y-55098633D02*
G01*
X80271695Y-55150931D01*
X80430583Y-55235858D01*
X80569849Y-55350151D01*
X80684142Y-55489417D01*
X80769069Y-55648305D01*
X80821367Y-55820706D01*
X80839025Y-56000000D01*
X80821367Y-56179294D01*
X80769069Y-56351695D01*
X80684142Y-56510583D01*
X80569849Y-56649849D01*
X80430583Y-56764142D01*
X80271695Y-56849069D01*
X80099294Y-56901367D01*
X79964931Y-56914600D01*
X79875069Y-56914600D01*
X79740706Y-56901367D01*
X79568305Y-56849069D01*
X79409417Y-56764142D01*
X79270151Y-56649849D01*
X79155858Y-56510583D01*
X79070931Y-56351695D01*
X79018633Y-56179294D01*
X79000975Y-56000000D01*
X79018633Y-55820706D01*
X79070931Y-55648305D01*
X79155858Y-55489417D01*
X79270151Y-55350151D01*
X79409417Y-55235858D01*
X79568305Y-55150931D01*
X79740706Y-55098633D01*
X79875069Y-55085400D01*
X79964931Y-55085400D01*
X80099294Y-55098633D01*
X80099294Y-55098633D01*
G37*
G36*
X75019294Y-55098633D02*
G01*
X75191695Y-55150931D01*
X75350583Y-55235858D01*
X75489849Y-55350151D01*
X75604142Y-55489417D01*
X75689069Y-55648305D01*
X75741367Y-55820706D01*
X75759025Y-56000000D01*
X75741367Y-56179294D01*
X75689069Y-56351695D01*
X75604142Y-56510583D01*
X75489849Y-56649849D01*
X75350583Y-56764142D01*
X75191695Y-56849069D01*
X75019294Y-56901367D01*
X74884931Y-56914600D01*
X74795069Y-56914600D01*
X74660706Y-56901367D01*
X74488305Y-56849069D01*
X74329417Y-56764142D01*
X74190151Y-56649849D01*
X74075858Y-56510583D01*
X73990931Y-56351695D01*
X73938633Y-56179294D01*
X73920975Y-56000000D01*
X73938633Y-55820706D01*
X73990931Y-55648305D01*
X74075858Y-55489417D01*
X74190151Y-55350151D01*
X74329417Y-55235858D01*
X74488305Y-55150931D01*
X74660706Y-55098633D01*
X74795069Y-55085400D01*
X74884931Y-55085400D01*
X75019294Y-55098633D01*
X75019294Y-55098633D01*
G37*
G36*
X118929294Y-54438633D02*
G01*
X119101695Y-54490931D01*
X119260583Y-54575858D01*
X119399849Y-54690151D01*
X119514142Y-54829417D01*
X119599069Y-54988305D01*
X119651367Y-55160706D01*
X119669025Y-55340000D01*
X119651367Y-55519294D01*
X119599069Y-55691695D01*
X119514142Y-55850583D01*
X119399849Y-55989849D01*
X119260583Y-56104142D01*
X119101695Y-56189069D01*
X118929294Y-56241367D01*
X118794931Y-56254600D01*
X118705069Y-56254600D01*
X118570706Y-56241367D01*
X118398305Y-56189069D01*
X118239417Y-56104142D01*
X118100151Y-55989849D01*
X117985858Y-55850583D01*
X117900931Y-55691695D01*
X117848633Y-55519294D01*
X117830975Y-55340000D01*
X117848633Y-55160706D01*
X117900931Y-54988305D01*
X117985858Y-54829417D01*
X118100151Y-54690151D01*
X118239417Y-54575858D01*
X118398305Y-54490931D01*
X118570706Y-54438633D01*
X118705069Y-54425400D01*
X118794931Y-54425400D01*
X118929294Y-54438633D01*
X118929294Y-54438633D01*
G37*
G36*
X121469294Y-54438633D02*
G01*
X121641695Y-54490931D01*
X121800583Y-54575858D01*
X121939849Y-54690151D01*
X122054142Y-54829417D01*
X122139069Y-54988305D01*
X122191367Y-55160706D01*
X122209025Y-55340000D01*
X122191367Y-55519294D01*
X122139069Y-55691695D01*
X122054142Y-55850583D01*
X121939849Y-55989849D01*
X121800583Y-56104142D01*
X121641695Y-56189069D01*
X121469294Y-56241367D01*
X121334931Y-56254600D01*
X121245069Y-56254600D01*
X121110706Y-56241367D01*
X120938305Y-56189069D01*
X120779417Y-56104142D01*
X120640151Y-55989849D01*
X120525858Y-55850583D01*
X120440931Y-55691695D01*
X120388633Y-55519294D01*
X120370975Y-55340000D01*
X120388633Y-55160706D01*
X120440931Y-54988305D01*
X120525858Y-54829417D01*
X120640151Y-54690151D01*
X120779417Y-54575858D01*
X120938305Y-54490931D01*
X121110706Y-54438633D01*
X121245069Y-54425400D01*
X121334931Y-54425400D01*
X121469294Y-54438633D01*
X121469294Y-54438633D01*
G37*
G36*
X99179294Y-54438633D02*
G01*
X99351695Y-54490931D01*
X99510583Y-54575858D01*
X99649849Y-54690151D01*
X99764142Y-54829417D01*
X99849069Y-54988305D01*
X99901367Y-55160706D01*
X99919025Y-55340000D01*
X99901367Y-55519294D01*
X99849069Y-55691695D01*
X99764142Y-55850583D01*
X99649849Y-55989849D01*
X99510583Y-56104142D01*
X99351695Y-56189069D01*
X99179294Y-56241367D01*
X99044931Y-56254600D01*
X98955069Y-56254600D01*
X98820706Y-56241367D01*
X98648305Y-56189069D01*
X98489417Y-56104142D01*
X98350151Y-55989849D01*
X98235858Y-55850583D01*
X98150931Y-55691695D01*
X98098633Y-55519294D01*
X98080975Y-55340000D01*
X98098633Y-55160706D01*
X98150931Y-54988305D01*
X98235858Y-54829417D01*
X98350151Y-54690151D01*
X98489417Y-54575858D01*
X98648305Y-54490931D01*
X98820706Y-54438633D01*
X98955069Y-54425400D01*
X99044931Y-54425400D01*
X99179294Y-54438633D01*
X99179294Y-54438633D01*
G37*
G36*
X101719294Y-54438633D02*
G01*
X101891695Y-54490931D01*
X102050583Y-54575858D01*
X102189849Y-54690151D01*
X102304142Y-54829417D01*
X102389069Y-54988305D01*
X102441367Y-55160706D01*
X102459025Y-55340000D01*
X102441367Y-55519294D01*
X102389069Y-55691695D01*
X102304142Y-55850583D01*
X102189849Y-55989849D01*
X102050583Y-56104142D01*
X101891695Y-56189069D01*
X101719294Y-56241367D01*
X101584931Y-56254600D01*
X101495069Y-56254600D01*
X101360706Y-56241367D01*
X101188305Y-56189069D01*
X101029417Y-56104142D01*
X100890151Y-55989849D01*
X100775858Y-55850583D01*
X100690931Y-55691695D01*
X100638633Y-55519294D01*
X100620975Y-55340000D01*
X100638633Y-55160706D01*
X100690931Y-54988305D01*
X100775858Y-54829417D01*
X100890151Y-54690151D01*
X101029417Y-54575858D01*
X101188305Y-54490931D01*
X101360706Y-54438633D01*
X101495069Y-54425400D01*
X101584931Y-54425400D01*
X101719294Y-54438633D01*
X101719294Y-54438633D01*
G37*
G36*
X146356153Y-53325922D02*
G01*
X146448194Y-53364047D01*
X146578359Y-53417963D01*
X146778342Y-53551587D01*
X146948413Y-53721658D01*
X147082037Y-53921641D01*
X147102309Y-53970583D01*
X147174078Y-54143847D01*
X147197539Y-54261795D01*
X147221000Y-54379741D01*
X147221000Y-54620259D01*
X147174078Y-54856152D01*
X147082037Y-55078359D01*
X146948413Y-55278342D01*
X146778342Y-55448413D01*
X146578359Y-55582037D01*
X146448194Y-55635953D01*
X146356153Y-55674078D01*
X146120259Y-55721000D01*
X145879741Y-55721000D01*
X145643847Y-55674078D01*
X145551806Y-55635953D01*
X145421641Y-55582037D01*
X145221658Y-55448413D01*
X145051587Y-55278342D01*
X144917963Y-55078359D01*
X144825922Y-54856152D01*
X144779000Y-54620259D01*
X144779000Y-54379741D01*
X144802461Y-54261795D01*
X144825922Y-54143847D01*
X144897691Y-53970583D01*
X144917963Y-53921641D01*
X145051587Y-53721658D01*
X145221658Y-53551587D01*
X145421641Y-53417963D01*
X145551806Y-53364047D01*
X145643847Y-53325922D01*
X145761795Y-53302461D01*
X145879741Y-53279000D01*
X146120259Y-53279000D01*
X146356153Y-53325922D01*
X146356153Y-53325922D01*
G37*
G36*
X80099294Y-52558633D02*
G01*
X80271695Y-52610931D01*
X80430583Y-52695858D01*
X80569849Y-52810151D01*
X80684142Y-52949417D01*
X80769069Y-53108305D01*
X80821367Y-53280706D01*
X80839025Y-53460000D01*
X80821367Y-53639294D01*
X80769069Y-53811695D01*
X80684142Y-53970583D01*
X80569849Y-54109849D01*
X80430583Y-54224142D01*
X80271695Y-54309069D01*
X80099294Y-54361367D01*
X79964931Y-54374600D01*
X79875069Y-54374600D01*
X79740706Y-54361367D01*
X79568305Y-54309069D01*
X79409417Y-54224142D01*
X79270151Y-54109849D01*
X79155858Y-53970583D01*
X79070931Y-53811695D01*
X79018633Y-53639294D01*
X79000975Y-53460000D01*
X79018633Y-53280706D01*
X79070931Y-53108305D01*
X79155858Y-52949417D01*
X79270151Y-52810151D01*
X79409417Y-52695858D01*
X79568305Y-52610931D01*
X79740706Y-52558633D01*
X79875069Y-52545400D01*
X79964931Y-52545400D01*
X80099294Y-52558633D01*
X80099294Y-52558633D01*
G37*
G36*
X75019294Y-52558633D02*
G01*
X75191695Y-52610931D01*
X75350583Y-52695858D01*
X75489849Y-52810151D01*
X75604142Y-52949417D01*
X75689069Y-53108305D01*
X75741367Y-53280706D01*
X75759025Y-53460000D01*
X75741367Y-53639294D01*
X75689069Y-53811695D01*
X75604142Y-53970583D01*
X75489849Y-54109849D01*
X75350583Y-54224142D01*
X75191695Y-54309069D01*
X75019294Y-54361367D01*
X74884931Y-54374600D01*
X74795069Y-54374600D01*
X74660706Y-54361367D01*
X74488305Y-54309069D01*
X74329417Y-54224142D01*
X74190151Y-54109849D01*
X74075858Y-53970583D01*
X73990931Y-53811695D01*
X73938633Y-53639294D01*
X73920975Y-53460000D01*
X73938633Y-53280706D01*
X73990931Y-53108305D01*
X74075858Y-52949417D01*
X74190151Y-52810151D01*
X74329417Y-52695858D01*
X74488305Y-52610931D01*
X74660706Y-52558633D01*
X74795069Y-52545400D01*
X74884931Y-52545400D01*
X75019294Y-52558633D01*
X75019294Y-52558633D01*
G37*
G36*
X77559294Y-52558633D02*
G01*
X77731695Y-52610931D01*
X77890583Y-52695858D01*
X78029849Y-52810151D01*
X78144142Y-52949417D01*
X78229069Y-53108305D01*
X78281367Y-53280706D01*
X78299025Y-53460000D01*
X78281367Y-53639294D01*
X78229069Y-53811695D01*
X78144142Y-53970583D01*
X78029849Y-54109849D01*
X77890583Y-54224142D01*
X77731695Y-54309069D01*
X77559294Y-54361367D01*
X77424931Y-54374600D01*
X77335069Y-54374600D01*
X77200706Y-54361367D01*
X77028305Y-54309069D01*
X76869417Y-54224142D01*
X76730151Y-54109849D01*
X76615858Y-53970583D01*
X76530931Y-53811695D01*
X76478633Y-53639294D01*
X76460975Y-53460000D01*
X76478633Y-53280706D01*
X76530931Y-53108305D01*
X76615858Y-52949417D01*
X76730151Y-52810151D01*
X76869417Y-52695858D01*
X77028305Y-52610931D01*
X77200706Y-52558633D01*
X77335069Y-52545400D01*
X77424931Y-52545400D01*
X77559294Y-52558633D01*
X77559294Y-52558633D01*
G37*
G36*
X85179294Y-52558633D02*
G01*
X85351695Y-52610931D01*
X85510583Y-52695858D01*
X85649849Y-52810151D01*
X85764142Y-52949417D01*
X85849069Y-53108305D01*
X85901367Y-53280706D01*
X85919025Y-53460000D01*
X85901367Y-53639294D01*
X85849069Y-53811695D01*
X85764142Y-53970583D01*
X85649849Y-54109849D01*
X85510583Y-54224142D01*
X85351695Y-54309069D01*
X85179294Y-54361367D01*
X85044931Y-54374600D01*
X84955069Y-54374600D01*
X84820706Y-54361367D01*
X84648305Y-54309069D01*
X84489417Y-54224142D01*
X84350151Y-54109849D01*
X84235858Y-53970583D01*
X84150931Y-53811695D01*
X84098633Y-53639294D01*
X84080975Y-53460000D01*
X84098633Y-53280706D01*
X84150931Y-53108305D01*
X84235858Y-52949417D01*
X84350151Y-52810151D01*
X84489417Y-52695858D01*
X84648305Y-52610931D01*
X84820706Y-52558633D01*
X84955069Y-52545400D01*
X85044931Y-52545400D01*
X85179294Y-52558633D01*
X85179294Y-52558633D01*
G37*
G36*
X82639294Y-52558633D02*
G01*
X82811695Y-52610931D01*
X82970583Y-52695858D01*
X83109849Y-52810151D01*
X83224142Y-52949417D01*
X83309069Y-53108305D01*
X83361367Y-53280706D01*
X83379025Y-53460000D01*
X83361367Y-53639294D01*
X83309069Y-53811695D01*
X83224142Y-53970583D01*
X83109849Y-54109849D01*
X82970583Y-54224142D01*
X82811695Y-54309069D01*
X82639294Y-54361367D01*
X82504931Y-54374600D01*
X82415069Y-54374600D01*
X82280706Y-54361367D01*
X82108305Y-54309069D01*
X81949417Y-54224142D01*
X81810151Y-54109849D01*
X81695858Y-53970583D01*
X81610931Y-53811695D01*
X81558633Y-53639294D01*
X81540975Y-53460000D01*
X81558633Y-53280706D01*
X81610931Y-53108305D01*
X81695858Y-52949417D01*
X81810151Y-52810151D01*
X81949417Y-52695858D01*
X82108305Y-52610931D01*
X82280706Y-52558633D01*
X82415069Y-52545400D01*
X82504931Y-52545400D01*
X82639294Y-52558633D01*
X82639294Y-52558633D01*
G37*
G36*
X59116564Y-51703389D02*
G01*
X59231507Y-51751000D01*
X59307835Y-51782616D01*
X59318926Y-51790027D01*
X59479973Y-51897635D01*
X59626365Y-52044027D01*
X59741385Y-52216167D01*
X59820611Y-52407436D01*
X59861000Y-52610484D01*
X59861000Y-52817516D01*
X59820611Y-53020564D01*
X59775292Y-53129973D01*
X59741384Y-53211835D01*
X59626365Y-53383973D01*
X59479973Y-53530365D01*
X59307835Y-53645384D01*
X59307834Y-53645385D01*
X59307833Y-53645385D01*
X59116564Y-53724611D01*
X58913516Y-53765000D01*
X58706484Y-53765000D01*
X58503436Y-53724611D01*
X58312167Y-53645385D01*
X58312166Y-53645385D01*
X58312165Y-53645384D01*
X58140027Y-53530365D01*
X57993635Y-53383973D01*
X57878616Y-53211835D01*
X57844708Y-53129973D01*
X57799389Y-53020564D01*
X57759000Y-52817516D01*
X57759000Y-52610484D01*
X57799389Y-52407436D01*
X57878615Y-52216167D01*
X57993635Y-52044027D01*
X58140027Y-51897635D01*
X58301074Y-51790027D01*
X58312165Y-51782616D01*
X58388493Y-51751000D01*
X58503436Y-51703389D01*
X58706484Y-51663000D01*
X58913516Y-51663000D01*
X59116564Y-51703389D01*
X59116564Y-51703389D01*
G37*
G36*
X51496564Y-51449389D02*
G01*
X51687833Y-51528615D01*
X51687835Y-51528616D01*
X51769201Y-51582983D01*
X51859973Y-51643635D01*
X52006365Y-51790027D01*
X52121385Y-51962167D01*
X52200611Y-52153436D01*
X52241000Y-52356484D01*
X52241000Y-52563516D01*
X52200611Y-52766564D01*
X52179506Y-52817516D01*
X52121384Y-52957835D01*
X52006365Y-53129973D01*
X51859973Y-53276365D01*
X51687835Y-53391384D01*
X51687834Y-53391385D01*
X51687833Y-53391385D01*
X51496564Y-53470611D01*
X51293516Y-53511000D01*
X51086484Y-53511000D01*
X50883436Y-53470611D01*
X50692167Y-53391385D01*
X50692166Y-53391385D01*
X50692165Y-53391384D01*
X50520027Y-53276365D01*
X50373635Y-53129973D01*
X50258616Y-52957835D01*
X50200494Y-52817516D01*
X50179389Y-52766564D01*
X50139000Y-52563516D01*
X50139000Y-52356484D01*
X50179389Y-52153436D01*
X50258615Y-51962167D01*
X50373635Y-51790027D01*
X50520027Y-51643635D01*
X50610799Y-51582983D01*
X50692165Y-51528616D01*
X50692167Y-51528615D01*
X50883436Y-51449389D01*
X51086484Y-51409000D01*
X51293516Y-51409000D01*
X51496564Y-51449389D01*
X51496564Y-51449389D01*
G37*
G36*
X82438674Y-50253465D02*
G01*
X82476367Y-50264899D01*
X82511103Y-50283466D01*
X82541548Y-50308452D01*
X82566534Y-50338897D01*
X82585101Y-50373633D01*
X82596535Y-50411326D01*
X82601000Y-50456661D01*
X82601000Y-51543339D01*
X82596535Y-51588674D01*
X82585101Y-51626367D01*
X82566534Y-51661103D01*
X82541548Y-51691548D01*
X82511103Y-51716534D01*
X82476367Y-51735101D01*
X82438674Y-51746535D01*
X82393339Y-51751000D01*
X81556661Y-51751000D01*
X81511326Y-51746535D01*
X81473633Y-51735101D01*
X81438897Y-51716534D01*
X81408452Y-51691548D01*
X81383466Y-51661103D01*
X81364899Y-51626367D01*
X81353465Y-51588674D01*
X81349000Y-51543339D01*
X81349000Y-50456661D01*
X81353465Y-50411326D01*
X81364899Y-50373633D01*
X81383466Y-50338897D01*
X81408452Y-50308452D01*
X81438897Y-50283466D01*
X81473633Y-50264899D01*
X81511326Y-50253465D01*
X81556661Y-50249000D01*
X82393339Y-50249000D01*
X82438674Y-50253465D01*
X82438674Y-50253465D01*
G37*
G36*
X84488674Y-50253465D02*
G01*
X84526367Y-50264899D01*
X84561103Y-50283466D01*
X84591548Y-50308452D01*
X84616534Y-50338897D01*
X84635101Y-50373633D01*
X84646535Y-50411326D01*
X84651000Y-50456661D01*
X84651000Y-51543339D01*
X84646535Y-51588674D01*
X84635101Y-51626367D01*
X84616534Y-51661103D01*
X84591548Y-51691548D01*
X84561103Y-51716534D01*
X84526367Y-51735101D01*
X84488674Y-51746535D01*
X84443339Y-51751000D01*
X83606661Y-51751000D01*
X83561326Y-51746535D01*
X83523633Y-51735101D01*
X83488897Y-51716534D01*
X83458452Y-51691548D01*
X83433466Y-51661103D01*
X83414899Y-51626367D01*
X83403465Y-51588674D01*
X83399000Y-51543339D01*
X83399000Y-50456661D01*
X83403465Y-50411326D01*
X83414899Y-50373633D01*
X83433466Y-50338897D01*
X83458452Y-50308452D01*
X83488897Y-50283466D01*
X83523633Y-50264899D01*
X83561326Y-50253465D01*
X83606661Y-50249000D01*
X84443339Y-50249000D01*
X84488674Y-50253465D01*
X84488674Y-50253465D01*
G37*
G36*
X80488674Y-50253465D02*
G01*
X80526367Y-50264899D01*
X80561103Y-50283466D01*
X80591548Y-50308452D01*
X80616534Y-50338897D01*
X80635101Y-50373633D01*
X80646535Y-50411326D01*
X80651000Y-50456661D01*
X80651000Y-51543339D01*
X80646535Y-51588674D01*
X80635101Y-51626367D01*
X80616534Y-51661103D01*
X80591548Y-51691548D01*
X80561103Y-51716534D01*
X80526367Y-51735101D01*
X80488674Y-51746535D01*
X80443339Y-51751000D01*
X79606661Y-51751000D01*
X79561326Y-51746535D01*
X79523633Y-51735101D01*
X79488897Y-51716534D01*
X79458452Y-51691548D01*
X79433466Y-51661103D01*
X79414899Y-51626367D01*
X79403465Y-51588674D01*
X79399000Y-51543339D01*
X79399000Y-50456661D01*
X79403465Y-50411326D01*
X79414899Y-50373633D01*
X79433466Y-50338897D01*
X79458452Y-50308452D01*
X79488897Y-50283466D01*
X79523633Y-50264899D01*
X79561326Y-50253465D01*
X79606661Y-50249000D01*
X80443339Y-50249000D01*
X80488674Y-50253465D01*
X80488674Y-50253465D01*
G37*
G36*
X78438674Y-50253465D02*
G01*
X78476367Y-50264899D01*
X78511103Y-50283466D01*
X78541548Y-50308452D01*
X78566534Y-50338897D01*
X78585101Y-50373633D01*
X78596535Y-50411326D01*
X78601000Y-50456661D01*
X78601000Y-51543339D01*
X78596535Y-51588674D01*
X78585101Y-51626367D01*
X78566534Y-51661103D01*
X78541548Y-51691548D01*
X78511103Y-51716534D01*
X78476367Y-51735101D01*
X78438674Y-51746535D01*
X78393339Y-51751000D01*
X77556661Y-51751000D01*
X77511326Y-51746535D01*
X77473633Y-51735101D01*
X77438897Y-51716534D01*
X77408452Y-51691548D01*
X77383466Y-51661103D01*
X77364899Y-51626367D01*
X77353465Y-51588674D01*
X77349000Y-51543339D01*
X77349000Y-50456661D01*
X77353465Y-50411326D01*
X77364899Y-50373633D01*
X77383466Y-50338897D01*
X77408452Y-50308452D01*
X77438897Y-50283466D01*
X77473633Y-50264899D01*
X77511326Y-50253465D01*
X77556661Y-50249000D01*
X78393339Y-50249000D01*
X78438674Y-50253465D01*
X78438674Y-50253465D01*
G37*
M02*
