%TF.GenerationSoftware,KiCad,Pcbnew,(5.1.0)-1*%
%TF.CreationDate,2019-04-16T22:19:31+02:00*%
%TF.ProjectId,Kicad_LFO_1,4b696361-645f-44c4-964f-5f312e6b6963,Rev A*%
%TF.SameCoordinates,Original*%
%TF.FileFunction,Paste,Top*%
%TF.FilePolarity,Positive*%
%FSLAX46Y46*%
G04 Gerber Fmt 4.6, Leading zero omitted, Abs format (unit mm)*
G04 Created by KiCad (PCBNEW (5.1.0)-1) date 2019-04-16 22:19:31*
%MOMM*%
%LPD*%
G04 APERTURE LIST*
%ADD10C,1.000000*%
%ADD11C,0.050000*%
%ADD12C,0.150000*%
%ADD13C,1.425000*%
%ADD14C,1.150000*%
G04 APERTURE END LIST*
D10*
X111000000Y-60000000D02*
X111000000Y-140000000D01*
X110000000Y-140000000D02*
X111000000Y-140000000D01*
X110000000Y-60000000D02*
X111000000Y-60000000D01*
X110000000Y-140000000D02*
X110000000Y-60000000D01*
X129500000Y-140000000D02*
X130500000Y-140000000D01*
X130500000Y-60000000D02*
X130500000Y-140000000D01*
X129500000Y-60000000D02*
X130500000Y-60000000D01*
X129500000Y-140000000D02*
X129500000Y-60000000D01*
X90000000Y-60000000D02*
X90000000Y-140000000D01*
X89000000Y-60000000D02*
X90000000Y-60000000D01*
X89000000Y-140000000D02*
X90000000Y-140000000D01*
X89000000Y-140000000D02*
X89000000Y-60000000D01*
X69000000Y-60000000D02*
X70000000Y-60000000D01*
X69000000Y-140000000D02*
X69000000Y-60000000D01*
X69000000Y-140000000D02*
X70000000Y-140000000D01*
X70000000Y-60000000D02*
X70000000Y-140000000D01*
D11*
X150000000Y-50000000D02*
X50000000Y-50000000D01*
X150000000Y-150000000D02*
X150000000Y-50000000D01*
X50000000Y-150000000D02*
X150000000Y-150000000D01*
X50000000Y-50000000D02*
X50000000Y-150000000D01*
D12*
G36*
X77974504Y-57626204D02*
G01*
X77998773Y-57629804D01*
X78022571Y-57635765D01*
X78045671Y-57644030D01*
X78067849Y-57654520D01*
X78088893Y-57667133D01*
X78108598Y-57681747D01*
X78126777Y-57698223D01*
X78143253Y-57716402D01*
X78157867Y-57736107D01*
X78170480Y-57757151D01*
X78180970Y-57779329D01*
X78189235Y-57802429D01*
X78195196Y-57826227D01*
X78198796Y-57850496D01*
X78200000Y-57875000D01*
X78200000Y-59125000D01*
X78198796Y-59149504D01*
X78195196Y-59173773D01*
X78189235Y-59197571D01*
X78180970Y-59220671D01*
X78170480Y-59242849D01*
X78157867Y-59263893D01*
X78143253Y-59283598D01*
X78126777Y-59301777D01*
X78108598Y-59318253D01*
X78088893Y-59332867D01*
X78067849Y-59345480D01*
X78045671Y-59355970D01*
X78022571Y-59364235D01*
X77998773Y-59370196D01*
X77974504Y-59373796D01*
X77950000Y-59375000D01*
X77025000Y-59375000D01*
X77000496Y-59373796D01*
X76976227Y-59370196D01*
X76952429Y-59364235D01*
X76929329Y-59355970D01*
X76907151Y-59345480D01*
X76886107Y-59332867D01*
X76866402Y-59318253D01*
X76848223Y-59301777D01*
X76831747Y-59283598D01*
X76817133Y-59263893D01*
X76804520Y-59242849D01*
X76794030Y-59220671D01*
X76785765Y-59197571D01*
X76779804Y-59173773D01*
X76776204Y-59149504D01*
X76775000Y-59125000D01*
X76775000Y-57875000D01*
X76776204Y-57850496D01*
X76779804Y-57826227D01*
X76785765Y-57802429D01*
X76794030Y-57779329D01*
X76804520Y-57757151D01*
X76817133Y-57736107D01*
X76831747Y-57716402D01*
X76848223Y-57698223D01*
X76866402Y-57681747D01*
X76886107Y-57667133D01*
X76907151Y-57654520D01*
X76929329Y-57644030D01*
X76952429Y-57635765D01*
X76976227Y-57629804D01*
X77000496Y-57626204D01*
X77025000Y-57625000D01*
X77950000Y-57625000D01*
X77974504Y-57626204D01*
X77974504Y-57626204D01*
G37*
D13*
X77487500Y-58500000D03*
D12*
G36*
X74999504Y-57626204D02*
G01*
X75023773Y-57629804D01*
X75047571Y-57635765D01*
X75070671Y-57644030D01*
X75092849Y-57654520D01*
X75113893Y-57667133D01*
X75133598Y-57681747D01*
X75151777Y-57698223D01*
X75168253Y-57716402D01*
X75182867Y-57736107D01*
X75195480Y-57757151D01*
X75205970Y-57779329D01*
X75214235Y-57802429D01*
X75220196Y-57826227D01*
X75223796Y-57850496D01*
X75225000Y-57875000D01*
X75225000Y-59125000D01*
X75223796Y-59149504D01*
X75220196Y-59173773D01*
X75214235Y-59197571D01*
X75205970Y-59220671D01*
X75195480Y-59242849D01*
X75182867Y-59263893D01*
X75168253Y-59283598D01*
X75151777Y-59301777D01*
X75133598Y-59318253D01*
X75113893Y-59332867D01*
X75092849Y-59345480D01*
X75070671Y-59355970D01*
X75047571Y-59364235D01*
X75023773Y-59370196D01*
X74999504Y-59373796D01*
X74975000Y-59375000D01*
X74050000Y-59375000D01*
X74025496Y-59373796D01*
X74001227Y-59370196D01*
X73977429Y-59364235D01*
X73954329Y-59355970D01*
X73932151Y-59345480D01*
X73911107Y-59332867D01*
X73891402Y-59318253D01*
X73873223Y-59301777D01*
X73856747Y-59283598D01*
X73842133Y-59263893D01*
X73829520Y-59242849D01*
X73819030Y-59220671D01*
X73810765Y-59197571D01*
X73804804Y-59173773D01*
X73801204Y-59149504D01*
X73800000Y-59125000D01*
X73800000Y-57875000D01*
X73801204Y-57850496D01*
X73804804Y-57826227D01*
X73810765Y-57802429D01*
X73819030Y-57779329D01*
X73829520Y-57757151D01*
X73842133Y-57736107D01*
X73856747Y-57716402D01*
X73873223Y-57698223D01*
X73891402Y-57681747D01*
X73911107Y-57667133D01*
X73932151Y-57654520D01*
X73954329Y-57644030D01*
X73977429Y-57635765D01*
X74001227Y-57629804D01*
X74025496Y-57626204D01*
X74050000Y-57625000D01*
X74975000Y-57625000D01*
X74999504Y-57626204D01*
X74999504Y-57626204D01*
G37*
D13*
X74512500Y-58500000D03*
D12*
G36*
X82999504Y-57626204D02*
G01*
X83023773Y-57629804D01*
X83047571Y-57635765D01*
X83070671Y-57644030D01*
X83092849Y-57654520D01*
X83113893Y-57667133D01*
X83133598Y-57681747D01*
X83151777Y-57698223D01*
X83168253Y-57716402D01*
X83182867Y-57736107D01*
X83195480Y-57757151D01*
X83205970Y-57779329D01*
X83214235Y-57802429D01*
X83220196Y-57826227D01*
X83223796Y-57850496D01*
X83225000Y-57875000D01*
X83225000Y-59125000D01*
X83223796Y-59149504D01*
X83220196Y-59173773D01*
X83214235Y-59197571D01*
X83205970Y-59220671D01*
X83195480Y-59242849D01*
X83182867Y-59263893D01*
X83168253Y-59283598D01*
X83151777Y-59301777D01*
X83133598Y-59318253D01*
X83113893Y-59332867D01*
X83092849Y-59345480D01*
X83070671Y-59355970D01*
X83047571Y-59364235D01*
X83023773Y-59370196D01*
X82999504Y-59373796D01*
X82975000Y-59375000D01*
X82050000Y-59375000D01*
X82025496Y-59373796D01*
X82001227Y-59370196D01*
X81977429Y-59364235D01*
X81954329Y-59355970D01*
X81932151Y-59345480D01*
X81911107Y-59332867D01*
X81891402Y-59318253D01*
X81873223Y-59301777D01*
X81856747Y-59283598D01*
X81842133Y-59263893D01*
X81829520Y-59242849D01*
X81819030Y-59220671D01*
X81810765Y-59197571D01*
X81804804Y-59173773D01*
X81801204Y-59149504D01*
X81800000Y-59125000D01*
X81800000Y-57875000D01*
X81801204Y-57850496D01*
X81804804Y-57826227D01*
X81810765Y-57802429D01*
X81819030Y-57779329D01*
X81829520Y-57757151D01*
X81842133Y-57736107D01*
X81856747Y-57716402D01*
X81873223Y-57698223D01*
X81891402Y-57681747D01*
X81911107Y-57667133D01*
X81932151Y-57654520D01*
X81954329Y-57644030D01*
X81977429Y-57635765D01*
X82001227Y-57629804D01*
X82025496Y-57626204D01*
X82050000Y-57625000D01*
X82975000Y-57625000D01*
X82999504Y-57626204D01*
X82999504Y-57626204D01*
G37*
D13*
X82512500Y-58500000D03*
D12*
G36*
X85974504Y-57626204D02*
G01*
X85998773Y-57629804D01*
X86022571Y-57635765D01*
X86045671Y-57644030D01*
X86067849Y-57654520D01*
X86088893Y-57667133D01*
X86108598Y-57681747D01*
X86126777Y-57698223D01*
X86143253Y-57716402D01*
X86157867Y-57736107D01*
X86170480Y-57757151D01*
X86180970Y-57779329D01*
X86189235Y-57802429D01*
X86195196Y-57826227D01*
X86198796Y-57850496D01*
X86200000Y-57875000D01*
X86200000Y-59125000D01*
X86198796Y-59149504D01*
X86195196Y-59173773D01*
X86189235Y-59197571D01*
X86180970Y-59220671D01*
X86170480Y-59242849D01*
X86157867Y-59263893D01*
X86143253Y-59283598D01*
X86126777Y-59301777D01*
X86108598Y-59318253D01*
X86088893Y-59332867D01*
X86067849Y-59345480D01*
X86045671Y-59355970D01*
X86022571Y-59364235D01*
X85998773Y-59370196D01*
X85974504Y-59373796D01*
X85950000Y-59375000D01*
X85025000Y-59375000D01*
X85000496Y-59373796D01*
X84976227Y-59370196D01*
X84952429Y-59364235D01*
X84929329Y-59355970D01*
X84907151Y-59345480D01*
X84886107Y-59332867D01*
X84866402Y-59318253D01*
X84848223Y-59301777D01*
X84831747Y-59283598D01*
X84817133Y-59263893D01*
X84804520Y-59242849D01*
X84794030Y-59220671D01*
X84785765Y-59197571D01*
X84779804Y-59173773D01*
X84776204Y-59149504D01*
X84775000Y-59125000D01*
X84775000Y-57875000D01*
X84776204Y-57850496D01*
X84779804Y-57826227D01*
X84785765Y-57802429D01*
X84794030Y-57779329D01*
X84804520Y-57757151D01*
X84817133Y-57736107D01*
X84831747Y-57716402D01*
X84848223Y-57698223D01*
X84866402Y-57681747D01*
X84886107Y-57667133D01*
X84907151Y-57654520D01*
X84929329Y-57644030D01*
X84952429Y-57635765D01*
X84976227Y-57629804D01*
X85000496Y-57626204D01*
X85025000Y-57625000D01*
X85950000Y-57625000D01*
X85974504Y-57626204D01*
X85974504Y-57626204D01*
G37*
D13*
X85487500Y-58500000D03*
D12*
G36*
X60474505Y-113451204D02*
G01*
X60498773Y-113454804D01*
X60522572Y-113460765D01*
X60545671Y-113469030D01*
X60567850Y-113479520D01*
X60588893Y-113492132D01*
X60608599Y-113506747D01*
X60626777Y-113523223D01*
X60643253Y-113541401D01*
X60657868Y-113561107D01*
X60670480Y-113582150D01*
X60680970Y-113604329D01*
X60689235Y-113627428D01*
X60695196Y-113651227D01*
X60698796Y-113675495D01*
X60700000Y-113699999D01*
X60700000Y-114350001D01*
X60698796Y-114374505D01*
X60695196Y-114398773D01*
X60689235Y-114422572D01*
X60680970Y-114445671D01*
X60670480Y-114467850D01*
X60657868Y-114488893D01*
X60643253Y-114508599D01*
X60626777Y-114526777D01*
X60608599Y-114543253D01*
X60588893Y-114557868D01*
X60567850Y-114570480D01*
X60545671Y-114580970D01*
X60522572Y-114589235D01*
X60498773Y-114595196D01*
X60474505Y-114598796D01*
X60450001Y-114600000D01*
X59549999Y-114600000D01*
X59525495Y-114598796D01*
X59501227Y-114595196D01*
X59477428Y-114589235D01*
X59454329Y-114580970D01*
X59432150Y-114570480D01*
X59411107Y-114557868D01*
X59391401Y-114543253D01*
X59373223Y-114526777D01*
X59356747Y-114508599D01*
X59342132Y-114488893D01*
X59329520Y-114467850D01*
X59319030Y-114445671D01*
X59310765Y-114422572D01*
X59304804Y-114398773D01*
X59301204Y-114374505D01*
X59300000Y-114350001D01*
X59300000Y-113699999D01*
X59301204Y-113675495D01*
X59304804Y-113651227D01*
X59310765Y-113627428D01*
X59319030Y-113604329D01*
X59329520Y-113582150D01*
X59342132Y-113561107D01*
X59356747Y-113541401D01*
X59373223Y-113523223D01*
X59391401Y-113506747D01*
X59411107Y-113492132D01*
X59432150Y-113479520D01*
X59454329Y-113469030D01*
X59477428Y-113460765D01*
X59501227Y-113454804D01*
X59525495Y-113451204D01*
X59549999Y-113450000D01*
X60450001Y-113450000D01*
X60474505Y-113451204D01*
X60474505Y-113451204D01*
G37*
D14*
X60000000Y-114025000D03*
D12*
G36*
X60474505Y-111401204D02*
G01*
X60498773Y-111404804D01*
X60522572Y-111410765D01*
X60545671Y-111419030D01*
X60567850Y-111429520D01*
X60588893Y-111442132D01*
X60608599Y-111456747D01*
X60626777Y-111473223D01*
X60643253Y-111491401D01*
X60657868Y-111511107D01*
X60670480Y-111532150D01*
X60680970Y-111554329D01*
X60689235Y-111577428D01*
X60695196Y-111601227D01*
X60698796Y-111625495D01*
X60700000Y-111649999D01*
X60700000Y-112300001D01*
X60698796Y-112324505D01*
X60695196Y-112348773D01*
X60689235Y-112372572D01*
X60680970Y-112395671D01*
X60670480Y-112417850D01*
X60657868Y-112438893D01*
X60643253Y-112458599D01*
X60626777Y-112476777D01*
X60608599Y-112493253D01*
X60588893Y-112507868D01*
X60567850Y-112520480D01*
X60545671Y-112530970D01*
X60522572Y-112539235D01*
X60498773Y-112545196D01*
X60474505Y-112548796D01*
X60450001Y-112550000D01*
X59549999Y-112550000D01*
X59525495Y-112548796D01*
X59501227Y-112545196D01*
X59477428Y-112539235D01*
X59454329Y-112530970D01*
X59432150Y-112520480D01*
X59411107Y-112507868D01*
X59391401Y-112493253D01*
X59373223Y-112476777D01*
X59356747Y-112458599D01*
X59342132Y-112438893D01*
X59329520Y-112417850D01*
X59319030Y-112395671D01*
X59310765Y-112372572D01*
X59304804Y-112348773D01*
X59301204Y-112324505D01*
X59300000Y-112300001D01*
X59300000Y-111649999D01*
X59301204Y-111625495D01*
X59304804Y-111601227D01*
X59310765Y-111577428D01*
X59319030Y-111554329D01*
X59329520Y-111532150D01*
X59342132Y-111511107D01*
X59356747Y-111491401D01*
X59373223Y-111473223D01*
X59391401Y-111456747D01*
X59411107Y-111442132D01*
X59432150Y-111429520D01*
X59454329Y-111419030D01*
X59477428Y-111410765D01*
X59501227Y-111404804D01*
X59525495Y-111401204D01*
X59549999Y-111400000D01*
X60450001Y-111400000D01*
X60474505Y-111401204D01*
X60474505Y-111401204D01*
G37*
D14*
X60000000Y-111975000D03*
D12*
G36*
X82324505Y-50301204D02*
G01*
X82348773Y-50304804D01*
X82372572Y-50310765D01*
X82395671Y-50319030D01*
X82417850Y-50329520D01*
X82438893Y-50342132D01*
X82458599Y-50356747D01*
X82476777Y-50373223D01*
X82493253Y-50391401D01*
X82507868Y-50411107D01*
X82520480Y-50432150D01*
X82530970Y-50454329D01*
X82539235Y-50477428D01*
X82545196Y-50501227D01*
X82548796Y-50525495D01*
X82550000Y-50549999D01*
X82550000Y-51450001D01*
X82548796Y-51474505D01*
X82545196Y-51498773D01*
X82539235Y-51522572D01*
X82530970Y-51545671D01*
X82520480Y-51567850D01*
X82507868Y-51588893D01*
X82493253Y-51608599D01*
X82476777Y-51626777D01*
X82458599Y-51643253D01*
X82438893Y-51657868D01*
X82417850Y-51670480D01*
X82395671Y-51680970D01*
X82372572Y-51689235D01*
X82348773Y-51695196D01*
X82324505Y-51698796D01*
X82300001Y-51700000D01*
X81649999Y-51700000D01*
X81625495Y-51698796D01*
X81601227Y-51695196D01*
X81577428Y-51689235D01*
X81554329Y-51680970D01*
X81532150Y-51670480D01*
X81511107Y-51657868D01*
X81491401Y-51643253D01*
X81473223Y-51626777D01*
X81456747Y-51608599D01*
X81442132Y-51588893D01*
X81429520Y-51567850D01*
X81419030Y-51545671D01*
X81410765Y-51522572D01*
X81404804Y-51498773D01*
X81401204Y-51474505D01*
X81400000Y-51450001D01*
X81400000Y-50549999D01*
X81401204Y-50525495D01*
X81404804Y-50501227D01*
X81410765Y-50477428D01*
X81419030Y-50454329D01*
X81429520Y-50432150D01*
X81442132Y-50411107D01*
X81456747Y-50391401D01*
X81473223Y-50373223D01*
X81491401Y-50356747D01*
X81511107Y-50342132D01*
X81532150Y-50329520D01*
X81554329Y-50319030D01*
X81577428Y-50310765D01*
X81601227Y-50304804D01*
X81625495Y-50301204D01*
X81649999Y-50300000D01*
X82300001Y-50300000D01*
X82324505Y-50301204D01*
X82324505Y-50301204D01*
G37*
D14*
X81975000Y-51000000D03*
D12*
G36*
X84374505Y-50301204D02*
G01*
X84398773Y-50304804D01*
X84422572Y-50310765D01*
X84445671Y-50319030D01*
X84467850Y-50329520D01*
X84488893Y-50342132D01*
X84508599Y-50356747D01*
X84526777Y-50373223D01*
X84543253Y-50391401D01*
X84557868Y-50411107D01*
X84570480Y-50432150D01*
X84580970Y-50454329D01*
X84589235Y-50477428D01*
X84595196Y-50501227D01*
X84598796Y-50525495D01*
X84600000Y-50549999D01*
X84600000Y-51450001D01*
X84598796Y-51474505D01*
X84595196Y-51498773D01*
X84589235Y-51522572D01*
X84580970Y-51545671D01*
X84570480Y-51567850D01*
X84557868Y-51588893D01*
X84543253Y-51608599D01*
X84526777Y-51626777D01*
X84508599Y-51643253D01*
X84488893Y-51657868D01*
X84467850Y-51670480D01*
X84445671Y-51680970D01*
X84422572Y-51689235D01*
X84398773Y-51695196D01*
X84374505Y-51698796D01*
X84350001Y-51700000D01*
X83699999Y-51700000D01*
X83675495Y-51698796D01*
X83651227Y-51695196D01*
X83627428Y-51689235D01*
X83604329Y-51680970D01*
X83582150Y-51670480D01*
X83561107Y-51657868D01*
X83541401Y-51643253D01*
X83523223Y-51626777D01*
X83506747Y-51608599D01*
X83492132Y-51588893D01*
X83479520Y-51567850D01*
X83469030Y-51545671D01*
X83460765Y-51522572D01*
X83454804Y-51498773D01*
X83451204Y-51474505D01*
X83450000Y-51450001D01*
X83450000Y-50549999D01*
X83451204Y-50525495D01*
X83454804Y-50501227D01*
X83460765Y-50477428D01*
X83469030Y-50454329D01*
X83479520Y-50432150D01*
X83492132Y-50411107D01*
X83506747Y-50391401D01*
X83523223Y-50373223D01*
X83541401Y-50356747D01*
X83561107Y-50342132D01*
X83582150Y-50329520D01*
X83604329Y-50319030D01*
X83627428Y-50310765D01*
X83651227Y-50304804D01*
X83675495Y-50301204D01*
X83699999Y-50300000D01*
X84350001Y-50300000D01*
X84374505Y-50301204D01*
X84374505Y-50301204D01*
G37*
D14*
X84025000Y-51000000D03*
D12*
G36*
X58474505Y-111401204D02*
G01*
X58498773Y-111404804D01*
X58522572Y-111410765D01*
X58545671Y-111419030D01*
X58567850Y-111429520D01*
X58588893Y-111442132D01*
X58608599Y-111456747D01*
X58626777Y-111473223D01*
X58643253Y-111491401D01*
X58657868Y-111511107D01*
X58670480Y-111532150D01*
X58680970Y-111554329D01*
X58689235Y-111577428D01*
X58695196Y-111601227D01*
X58698796Y-111625495D01*
X58700000Y-111649999D01*
X58700000Y-112300001D01*
X58698796Y-112324505D01*
X58695196Y-112348773D01*
X58689235Y-112372572D01*
X58680970Y-112395671D01*
X58670480Y-112417850D01*
X58657868Y-112438893D01*
X58643253Y-112458599D01*
X58626777Y-112476777D01*
X58608599Y-112493253D01*
X58588893Y-112507868D01*
X58567850Y-112520480D01*
X58545671Y-112530970D01*
X58522572Y-112539235D01*
X58498773Y-112545196D01*
X58474505Y-112548796D01*
X58450001Y-112550000D01*
X57549999Y-112550000D01*
X57525495Y-112548796D01*
X57501227Y-112545196D01*
X57477428Y-112539235D01*
X57454329Y-112530970D01*
X57432150Y-112520480D01*
X57411107Y-112507868D01*
X57391401Y-112493253D01*
X57373223Y-112476777D01*
X57356747Y-112458599D01*
X57342132Y-112438893D01*
X57329520Y-112417850D01*
X57319030Y-112395671D01*
X57310765Y-112372572D01*
X57304804Y-112348773D01*
X57301204Y-112324505D01*
X57300000Y-112300001D01*
X57300000Y-111649999D01*
X57301204Y-111625495D01*
X57304804Y-111601227D01*
X57310765Y-111577428D01*
X57319030Y-111554329D01*
X57329520Y-111532150D01*
X57342132Y-111511107D01*
X57356747Y-111491401D01*
X57373223Y-111473223D01*
X57391401Y-111456747D01*
X57411107Y-111442132D01*
X57432150Y-111429520D01*
X57454329Y-111419030D01*
X57477428Y-111410765D01*
X57501227Y-111404804D01*
X57525495Y-111401204D01*
X57549999Y-111400000D01*
X58450001Y-111400000D01*
X58474505Y-111401204D01*
X58474505Y-111401204D01*
G37*
D14*
X58000000Y-111975000D03*
D12*
G36*
X58474505Y-113451204D02*
G01*
X58498773Y-113454804D01*
X58522572Y-113460765D01*
X58545671Y-113469030D01*
X58567850Y-113479520D01*
X58588893Y-113492132D01*
X58608599Y-113506747D01*
X58626777Y-113523223D01*
X58643253Y-113541401D01*
X58657868Y-113561107D01*
X58670480Y-113582150D01*
X58680970Y-113604329D01*
X58689235Y-113627428D01*
X58695196Y-113651227D01*
X58698796Y-113675495D01*
X58700000Y-113699999D01*
X58700000Y-114350001D01*
X58698796Y-114374505D01*
X58695196Y-114398773D01*
X58689235Y-114422572D01*
X58680970Y-114445671D01*
X58670480Y-114467850D01*
X58657868Y-114488893D01*
X58643253Y-114508599D01*
X58626777Y-114526777D01*
X58608599Y-114543253D01*
X58588893Y-114557868D01*
X58567850Y-114570480D01*
X58545671Y-114580970D01*
X58522572Y-114589235D01*
X58498773Y-114595196D01*
X58474505Y-114598796D01*
X58450001Y-114600000D01*
X57549999Y-114600000D01*
X57525495Y-114598796D01*
X57501227Y-114595196D01*
X57477428Y-114589235D01*
X57454329Y-114580970D01*
X57432150Y-114570480D01*
X57411107Y-114557868D01*
X57391401Y-114543253D01*
X57373223Y-114526777D01*
X57356747Y-114508599D01*
X57342132Y-114488893D01*
X57329520Y-114467850D01*
X57319030Y-114445671D01*
X57310765Y-114422572D01*
X57304804Y-114398773D01*
X57301204Y-114374505D01*
X57300000Y-114350001D01*
X57300000Y-113699999D01*
X57301204Y-113675495D01*
X57304804Y-113651227D01*
X57310765Y-113627428D01*
X57319030Y-113604329D01*
X57329520Y-113582150D01*
X57342132Y-113561107D01*
X57356747Y-113541401D01*
X57373223Y-113523223D01*
X57391401Y-113506747D01*
X57411107Y-113492132D01*
X57432150Y-113479520D01*
X57454329Y-113469030D01*
X57477428Y-113460765D01*
X57501227Y-113454804D01*
X57525495Y-113451204D01*
X57549999Y-113450000D01*
X58450001Y-113450000D01*
X58474505Y-113451204D01*
X58474505Y-113451204D01*
G37*
D14*
X58000000Y-114025000D03*
D12*
G36*
X80374505Y-50301204D02*
G01*
X80398773Y-50304804D01*
X80422572Y-50310765D01*
X80445671Y-50319030D01*
X80467850Y-50329520D01*
X80488893Y-50342132D01*
X80508599Y-50356747D01*
X80526777Y-50373223D01*
X80543253Y-50391401D01*
X80557868Y-50411107D01*
X80570480Y-50432150D01*
X80580970Y-50454329D01*
X80589235Y-50477428D01*
X80595196Y-50501227D01*
X80598796Y-50525495D01*
X80600000Y-50549999D01*
X80600000Y-51450001D01*
X80598796Y-51474505D01*
X80595196Y-51498773D01*
X80589235Y-51522572D01*
X80580970Y-51545671D01*
X80570480Y-51567850D01*
X80557868Y-51588893D01*
X80543253Y-51608599D01*
X80526777Y-51626777D01*
X80508599Y-51643253D01*
X80488893Y-51657868D01*
X80467850Y-51670480D01*
X80445671Y-51680970D01*
X80422572Y-51689235D01*
X80398773Y-51695196D01*
X80374505Y-51698796D01*
X80350001Y-51700000D01*
X79699999Y-51700000D01*
X79675495Y-51698796D01*
X79651227Y-51695196D01*
X79627428Y-51689235D01*
X79604329Y-51680970D01*
X79582150Y-51670480D01*
X79561107Y-51657868D01*
X79541401Y-51643253D01*
X79523223Y-51626777D01*
X79506747Y-51608599D01*
X79492132Y-51588893D01*
X79479520Y-51567850D01*
X79469030Y-51545671D01*
X79460765Y-51522572D01*
X79454804Y-51498773D01*
X79451204Y-51474505D01*
X79450000Y-51450001D01*
X79450000Y-50549999D01*
X79451204Y-50525495D01*
X79454804Y-50501227D01*
X79460765Y-50477428D01*
X79469030Y-50454329D01*
X79479520Y-50432150D01*
X79492132Y-50411107D01*
X79506747Y-50391401D01*
X79523223Y-50373223D01*
X79541401Y-50356747D01*
X79561107Y-50342132D01*
X79582150Y-50329520D01*
X79604329Y-50319030D01*
X79627428Y-50310765D01*
X79651227Y-50304804D01*
X79675495Y-50301204D01*
X79699999Y-50300000D01*
X80350001Y-50300000D01*
X80374505Y-50301204D01*
X80374505Y-50301204D01*
G37*
D14*
X80025000Y-51000000D03*
D12*
G36*
X78324505Y-50301204D02*
G01*
X78348773Y-50304804D01*
X78372572Y-50310765D01*
X78395671Y-50319030D01*
X78417850Y-50329520D01*
X78438893Y-50342132D01*
X78458599Y-50356747D01*
X78476777Y-50373223D01*
X78493253Y-50391401D01*
X78507868Y-50411107D01*
X78520480Y-50432150D01*
X78530970Y-50454329D01*
X78539235Y-50477428D01*
X78545196Y-50501227D01*
X78548796Y-50525495D01*
X78550000Y-50549999D01*
X78550000Y-51450001D01*
X78548796Y-51474505D01*
X78545196Y-51498773D01*
X78539235Y-51522572D01*
X78530970Y-51545671D01*
X78520480Y-51567850D01*
X78507868Y-51588893D01*
X78493253Y-51608599D01*
X78476777Y-51626777D01*
X78458599Y-51643253D01*
X78438893Y-51657868D01*
X78417850Y-51670480D01*
X78395671Y-51680970D01*
X78372572Y-51689235D01*
X78348773Y-51695196D01*
X78324505Y-51698796D01*
X78300001Y-51700000D01*
X77649999Y-51700000D01*
X77625495Y-51698796D01*
X77601227Y-51695196D01*
X77577428Y-51689235D01*
X77554329Y-51680970D01*
X77532150Y-51670480D01*
X77511107Y-51657868D01*
X77491401Y-51643253D01*
X77473223Y-51626777D01*
X77456747Y-51608599D01*
X77442132Y-51588893D01*
X77429520Y-51567850D01*
X77419030Y-51545671D01*
X77410765Y-51522572D01*
X77404804Y-51498773D01*
X77401204Y-51474505D01*
X77400000Y-51450001D01*
X77400000Y-50549999D01*
X77401204Y-50525495D01*
X77404804Y-50501227D01*
X77410765Y-50477428D01*
X77419030Y-50454329D01*
X77429520Y-50432150D01*
X77442132Y-50411107D01*
X77456747Y-50391401D01*
X77473223Y-50373223D01*
X77491401Y-50356747D01*
X77511107Y-50342132D01*
X77532150Y-50329520D01*
X77554329Y-50319030D01*
X77577428Y-50310765D01*
X77601227Y-50304804D01*
X77625495Y-50301204D01*
X77649999Y-50300000D01*
X78300001Y-50300000D01*
X78324505Y-50301204D01*
X78324505Y-50301204D01*
G37*
D14*
X77975000Y-51000000D03*
M02*
